G04 EAGLE Gerber RS-274X export*
G75*
%MOMM*%
%FSLAX34Y34*%
%LPD*%
%INCopper Layer 15*%
%IPPOS*%
%AMOC8*
5,1,8,0,0,1.08239X$1,22.5*%
G01*
%ADD10C,1.650000*%
%ADD11C,2.100000*%
%ADD12C,1.524000*%
%ADD13C,0.756400*%
%ADD14C,0.254000*%
%ADD15C,0.706400*%

G36*
X1711330Y10178D02*
X1711330Y10178D01*
X1711469Y10191D01*
X1711488Y10198D01*
X1711508Y10201D01*
X1711637Y10252D01*
X1711768Y10299D01*
X1711785Y10310D01*
X1711804Y10318D01*
X1711916Y10399D01*
X1712031Y10477D01*
X1712045Y10493D01*
X1712061Y10504D01*
X1712150Y10612D01*
X1712242Y10716D01*
X1712251Y10734D01*
X1712264Y10749D01*
X1712323Y10875D01*
X1712386Y10999D01*
X1712391Y11019D01*
X1712399Y11037D01*
X1712425Y11173D01*
X1712456Y11309D01*
X1712455Y11330D01*
X1712459Y11349D01*
X1712450Y11488D01*
X1712446Y11627D01*
X1712441Y11647D01*
X1712439Y11667D01*
X1712397Y11799D01*
X1712358Y11933D01*
X1712348Y11950D01*
X1712341Y11969D01*
X1712267Y12087D01*
X1712196Y12207D01*
X1712178Y12228D01*
X1712171Y12238D01*
X1712156Y12252D01*
X1712090Y12327D01*
X1709866Y14551D01*
X1706554Y20288D01*
X1704839Y26688D01*
X1704839Y33312D01*
X1706554Y39712D01*
X1709866Y45449D01*
X1714551Y50134D01*
X1720288Y53446D01*
X1726688Y55161D01*
X1733312Y55161D01*
X1739712Y53446D01*
X1745449Y50134D01*
X1747673Y47910D01*
X1747782Y47825D01*
X1747889Y47736D01*
X1747908Y47728D01*
X1747924Y47715D01*
X1748052Y47660D01*
X1748177Y47601D01*
X1748197Y47597D01*
X1748216Y47589D01*
X1748354Y47567D01*
X1748490Y47541D01*
X1748510Y47542D01*
X1748530Y47539D01*
X1748669Y47552D01*
X1748807Y47561D01*
X1748826Y47567D01*
X1748846Y47569D01*
X1748978Y47616D01*
X1749109Y47659D01*
X1749127Y47670D01*
X1749146Y47676D01*
X1749261Y47754D01*
X1749378Y47829D01*
X1749392Y47844D01*
X1749409Y47855D01*
X1749501Y47959D01*
X1749596Y48060D01*
X1749606Y48078D01*
X1749619Y48093D01*
X1749683Y48218D01*
X1749750Y48339D01*
X1749755Y48359D01*
X1749764Y48377D01*
X1749794Y48512D01*
X1749829Y48647D01*
X1749831Y48675D01*
X1749834Y48687D01*
X1749833Y48707D01*
X1749839Y48808D01*
X1749839Y951192D01*
X1749822Y951330D01*
X1749809Y951469D01*
X1749802Y951488D01*
X1749799Y951508D01*
X1749748Y951637D01*
X1749701Y951768D01*
X1749690Y951785D01*
X1749682Y951804D01*
X1749601Y951916D01*
X1749523Y952031D01*
X1749507Y952045D01*
X1749496Y952061D01*
X1749388Y952150D01*
X1749284Y952242D01*
X1749266Y952251D01*
X1749251Y952264D01*
X1749125Y952323D01*
X1749001Y952386D01*
X1748981Y952391D01*
X1748963Y952399D01*
X1748827Y952425D01*
X1748691Y952456D01*
X1748670Y952455D01*
X1748651Y952459D01*
X1748512Y952450D01*
X1748373Y952446D01*
X1748353Y952441D01*
X1748333Y952439D01*
X1748201Y952397D01*
X1748067Y952358D01*
X1748050Y952348D01*
X1748031Y952341D01*
X1747913Y952267D01*
X1747793Y952196D01*
X1747772Y952178D01*
X1747762Y952171D01*
X1747748Y952156D01*
X1747673Y952090D01*
X1745449Y949866D01*
X1739712Y946554D01*
X1733312Y944839D01*
X1726688Y944839D01*
X1720288Y946554D01*
X1714551Y949866D01*
X1709866Y954551D01*
X1706554Y960288D01*
X1704839Y966688D01*
X1704839Y973312D01*
X1706554Y979712D01*
X1708415Y982935D01*
X1708467Y983058D01*
X1708523Y983177D01*
X1708528Y983204D01*
X1708538Y983229D01*
X1708558Y983360D01*
X1708583Y983490D01*
X1708581Y983516D01*
X1708585Y983543D01*
X1708571Y983675D01*
X1708563Y983807D01*
X1708555Y983833D01*
X1708552Y983859D01*
X1708506Y983984D01*
X1708465Y984109D01*
X1708450Y984132D01*
X1708441Y984158D01*
X1708366Y984266D01*
X1708295Y984378D01*
X1708275Y984397D01*
X1708260Y984419D01*
X1708160Y984505D01*
X1708063Y984596D01*
X1708039Y984609D01*
X1708019Y984627D01*
X1707901Y984686D01*
X1707785Y984750D01*
X1707758Y984756D01*
X1707734Y984768D01*
X1707604Y984796D01*
X1707477Y984829D01*
X1707439Y984831D01*
X1707423Y984835D01*
X1707401Y984834D01*
X1707316Y984839D01*
X946058Y984839D01*
X945920Y984822D01*
X945781Y984809D01*
X945762Y984802D01*
X945742Y984799D01*
X945613Y984748D01*
X945482Y984701D01*
X945465Y984690D01*
X945446Y984682D01*
X945334Y984601D01*
X945219Y984523D01*
X945205Y984507D01*
X945189Y984496D01*
X945100Y984388D01*
X945008Y984284D01*
X944999Y984266D01*
X944986Y984251D01*
X944927Y984125D01*
X944864Y984001D01*
X944859Y983981D01*
X944851Y983963D01*
X944825Y983827D01*
X944794Y983691D01*
X944795Y983670D01*
X944791Y983651D01*
X944799Y983512D01*
X944804Y983373D01*
X944809Y983353D01*
X944811Y983333D01*
X944853Y983201D01*
X944892Y983067D01*
X944902Y983050D01*
X944909Y983031D01*
X944983Y982913D01*
X945054Y982793D01*
X945072Y982772D01*
X945079Y982762D01*
X945094Y982748D01*
X945160Y982673D01*
X947653Y980180D01*
X949045Y976819D01*
X949045Y973181D01*
X947653Y969820D01*
X945080Y967247D01*
X941719Y965855D01*
X938081Y965855D01*
X934720Y967247D01*
X932147Y969820D01*
X930755Y973181D01*
X930755Y976819D01*
X932147Y980180D01*
X934640Y982673D01*
X934725Y982782D01*
X934814Y982889D01*
X934822Y982908D01*
X934835Y982924D01*
X934890Y983052D01*
X934949Y983177D01*
X934953Y983197D01*
X934961Y983216D01*
X934983Y983354D01*
X935009Y983490D01*
X935008Y983510D01*
X935011Y983530D01*
X934998Y983669D01*
X934989Y983807D01*
X934983Y983826D01*
X934981Y983846D01*
X934934Y983978D01*
X934891Y984109D01*
X934881Y984127D01*
X934874Y984146D01*
X934796Y984261D01*
X934721Y984378D01*
X934706Y984392D01*
X934695Y984409D01*
X934591Y984501D01*
X934490Y984596D01*
X934472Y984606D01*
X934457Y984619D01*
X934333Y984683D01*
X934211Y984750D01*
X934192Y984755D01*
X934173Y984764D01*
X934038Y984794D01*
X933903Y984829D01*
X933875Y984831D01*
X933863Y984834D01*
X933843Y984833D01*
X933742Y984839D01*
X922094Y984839D01*
X921956Y984822D01*
X921818Y984809D01*
X921799Y984802D01*
X921779Y984799D01*
X921650Y984748D01*
X921519Y984701D01*
X921502Y984690D01*
X921483Y984682D01*
X921371Y984601D01*
X921256Y984523D01*
X921242Y984507D01*
X921226Y984496D01*
X921137Y984388D01*
X921045Y984284D01*
X921036Y984266D01*
X921023Y984251D01*
X920964Y984125D01*
X920901Y984001D01*
X920896Y983981D01*
X920887Y983963D01*
X920861Y983826D01*
X920831Y983691D01*
X920832Y983670D01*
X920828Y983651D01*
X920836Y983512D01*
X920841Y983373D01*
X920846Y983353D01*
X920847Y983333D01*
X920890Y983201D01*
X920929Y983067D01*
X920939Y983050D01*
X920945Y983031D01*
X921020Y982913D01*
X921091Y982793D01*
X921109Y982772D01*
X921116Y982762D01*
X921131Y982748D01*
X921197Y982673D01*
X922250Y981619D01*
X923190Y980325D01*
X923916Y978900D01*
X924359Y977539D01*
X915770Y977539D01*
X915652Y977524D01*
X915533Y977517D01*
X915495Y977504D01*
X915455Y977499D01*
X915344Y977456D01*
X915231Y977419D01*
X915197Y977397D01*
X915159Y977382D01*
X915063Y977312D01*
X914962Y977249D01*
X914934Y977219D01*
X914902Y977195D01*
X914826Y977104D01*
X914744Y977017D01*
X914725Y976982D01*
X914699Y976951D01*
X914648Y976843D01*
X914591Y976739D01*
X914580Y976699D01*
X914563Y976663D01*
X914541Y976546D01*
X914511Y976431D01*
X914507Y976370D01*
X914503Y976350D01*
X914505Y976330D01*
X914501Y976270D01*
X914501Y974999D01*
X914499Y974999D01*
X914499Y976270D01*
X914484Y976388D01*
X914477Y976507D01*
X914464Y976545D01*
X914459Y976585D01*
X914415Y976696D01*
X914379Y976809D01*
X914357Y976844D01*
X914342Y976881D01*
X914272Y976977D01*
X914209Y977078D01*
X914179Y977106D01*
X914155Y977139D01*
X914064Y977214D01*
X913977Y977296D01*
X913942Y977316D01*
X913910Y977341D01*
X913803Y977392D01*
X913698Y977450D01*
X913659Y977460D01*
X913623Y977477D01*
X913506Y977499D01*
X913391Y977529D01*
X913330Y977533D01*
X913310Y977537D01*
X913290Y977535D01*
X913230Y977539D01*
X904641Y977539D01*
X905084Y978900D01*
X905810Y980325D01*
X906750Y981619D01*
X907803Y982673D01*
X907888Y982782D01*
X907977Y982889D01*
X907986Y982908D01*
X907998Y982924D01*
X908053Y983051D01*
X908113Y983177D01*
X908116Y983197D01*
X908124Y983216D01*
X908146Y983354D01*
X908172Y983490D01*
X908171Y983510D01*
X908174Y983530D01*
X908161Y983669D01*
X908153Y983807D01*
X908146Y983826D01*
X908144Y983846D01*
X908097Y983978D01*
X908055Y984109D01*
X908044Y984127D01*
X908037Y984146D01*
X907959Y984261D01*
X907884Y984378D01*
X907870Y984392D01*
X907858Y984409D01*
X907754Y984501D01*
X907653Y984596D01*
X907635Y984606D01*
X907620Y984619D01*
X907496Y984682D01*
X907374Y984750D01*
X907355Y984755D01*
X907337Y984764D01*
X907201Y984794D01*
X907066Y984829D01*
X907038Y984831D01*
X907026Y984834D01*
X907006Y984833D01*
X906906Y984839D01*
X895258Y984839D01*
X895120Y984822D01*
X894981Y984809D01*
X894962Y984802D01*
X894942Y984799D01*
X894813Y984748D01*
X894682Y984701D01*
X894665Y984690D01*
X894646Y984682D01*
X894534Y984601D01*
X894419Y984523D01*
X894405Y984507D01*
X894389Y984496D01*
X894300Y984388D01*
X894208Y984284D01*
X894199Y984266D01*
X894186Y984251D01*
X894127Y984125D01*
X894064Y984001D01*
X894059Y983981D01*
X894051Y983963D01*
X894025Y983827D01*
X893994Y983691D01*
X893995Y983670D01*
X893991Y983651D01*
X893999Y983512D01*
X894004Y983373D01*
X894009Y983353D01*
X894011Y983333D01*
X894053Y983201D01*
X894092Y983067D01*
X894102Y983050D01*
X894109Y983031D01*
X894183Y982913D01*
X894254Y982793D01*
X894272Y982772D01*
X894279Y982762D01*
X894294Y982748D01*
X894360Y982673D01*
X896853Y980180D01*
X898245Y976819D01*
X898245Y973181D01*
X896853Y969820D01*
X894280Y967247D01*
X890919Y965855D01*
X887281Y965855D01*
X883920Y967247D01*
X881347Y969820D01*
X879955Y973181D01*
X879955Y976819D01*
X881347Y980180D01*
X883840Y982673D01*
X883925Y982782D01*
X884014Y982889D01*
X884022Y982908D01*
X884035Y982924D01*
X884090Y983052D01*
X884149Y983177D01*
X884153Y983197D01*
X884161Y983216D01*
X884183Y983354D01*
X884209Y983490D01*
X884208Y983510D01*
X884211Y983530D01*
X884198Y983669D01*
X884189Y983807D01*
X884183Y983826D01*
X884181Y983846D01*
X884134Y983978D01*
X884091Y984109D01*
X884081Y984127D01*
X884074Y984146D01*
X883996Y984261D01*
X883921Y984378D01*
X883906Y984392D01*
X883895Y984409D01*
X883791Y984501D01*
X883690Y984596D01*
X883672Y984606D01*
X883657Y984619D01*
X883533Y984683D01*
X883411Y984750D01*
X883392Y984755D01*
X883373Y984764D01*
X883238Y984794D01*
X883103Y984829D01*
X883075Y984831D01*
X883063Y984834D01*
X883043Y984833D01*
X882942Y984839D01*
X869858Y984839D01*
X869720Y984822D01*
X869581Y984809D01*
X869562Y984802D01*
X869542Y984799D01*
X869413Y984748D01*
X869282Y984701D01*
X869265Y984690D01*
X869246Y984682D01*
X869134Y984601D01*
X869019Y984523D01*
X869005Y984507D01*
X868989Y984496D01*
X868900Y984388D01*
X868808Y984284D01*
X868799Y984266D01*
X868786Y984251D01*
X868727Y984125D01*
X868664Y984001D01*
X868659Y983981D01*
X868651Y983963D01*
X868625Y983827D01*
X868594Y983691D01*
X868595Y983670D01*
X868591Y983651D01*
X868599Y983512D01*
X868604Y983373D01*
X868609Y983353D01*
X868611Y983333D01*
X868653Y983201D01*
X868692Y983067D01*
X868702Y983050D01*
X868709Y983031D01*
X868783Y982913D01*
X868854Y982793D01*
X868872Y982772D01*
X868879Y982762D01*
X868894Y982748D01*
X868960Y982673D01*
X871453Y980180D01*
X872845Y976819D01*
X872845Y973181D01*
X871453Y969820D01*
X868880Y967247D01*
X865519Y965855D01*
X861881Y965855D01*
X858520Y967247D01*
X855947Y969820D01*
X854555Y973181D01*
X854555Y976819D01*
X855947Y980180D01*
X858440Y982673D01*
X858525Y982782D01*
X858614Y982889D01*
X858622Y982908D01*
X858635Y982924D01*
X858690Y983052D01*
X858749Y983177D01*
X858753Y983197D01*
X858761Y983216D01*
X858783Y983354D01*
X858809Y983490D01*
X858808Y983510D01*
X858811Y983530D01*
X858798Y983669D01*
X858789Y983807D01*
X858783Y983826D01*
X858781Y983846D01*
X858734Y983978D01*
X858691Y984109D01*
X858681Y984127D01*
X858674Y984146D01*
X858596Y984261D01*
X858521Y984378D01*
X858506Y984392D01*
X858495Y984409D01*
X858391Y984501D01*
X858290Y984596D01*
X858272Y984606D01*
X858257Y984619D01*
X858133Y984683D01*
X858011Y984750D01*
X857992Y984755D01*
X857973Y984764D01*
X857838Y984794D01*
X857703Y984829D01*
X857675Y984831D01*
X857663Y984834D01*
X857643Y984833D01*
X857542Y984839D01*
X844458Y984839D01*
X844320Y984822D01*
X844181Y984809D01*
X844162Y984802D01*
X844142Y984799D01*
X844013Y984748D01*
X843882Y984701D01*
X843865Y984690D01*
X843846Y984682D01*
X843734Y984601D01*
X843619Y984523D01*
X843605Y984507D01*
X843589Y984496D01*
X843500Y984388D01*
X843408Y984284D01*
X843399Y984266D01*
X843386Y984251D01*
X843327Y984125D01*
X843264Y984001D01*
X843259Y983981D01*
X843251Y983963D01*
X843225Y983827D01*
X843194Y983691D01*
X843195Y983670D01*
X843191Y983651D01*
X843199Y983512D01*
X843204Y983373D01*
X843209Y983353D01*
X843211Y983333D01*
X843253Y983201D01*
X843292Y983067D01*
X843302Y983050D01*
X843309Y983031D01*
X843383Y982913D01*
X843454Y982793D01*
X843472Y982772D01*
X843479Y982762D01*
X843494Y982748D01*
X843560Y982673D01*
X846053Y980180D01*
X847445Y976819D01*
X847445Y973181D01*
X846053Y969820D01*
X843480Y967247D01*
X840119Y965855D01*
X836481Y965855D01*
X833120Y967247D01*
X830547Y969820D01*
X829155Y973181D01*
X829155Y976819D01*
X830547Y980180D01*
X833040Y982673D01*
X833125Y982782D01*
X833214Y982889D01*
X833222Y982908D01*
X833235Y982924D01*
X833290Y983052D01*
X833349Y983177D01*
X833353Y983197D01*
X833361Y983216D01*
X833383Y983354D01*
X833409Y983490D01*
X833408Y983510D01*
X833411Y983530D01*
X833398Y983669D01*
X833389Y983807D01*
X833383Y983826D01*
X833381Y983846D01*
X833334Y983978D01*
X833291Y984109D01*
X833281Y984127D01*
X833274Y984146D01*
X833196Y984261D01*
X833121Y984378D01*
X833106Y984392D01*
X833095Y984409D01*
X832991Y984501D01*
X832890Y984596D01*
X832872Y984606D01*
X832857Y984619D01*
X832733Y984683D01*
X832611Y984750D01*
X832592Y984755D01*
X832573Y984764D01*
X832438Y984794D01*
X832303Y984829D01*
X832275Y984831D01*
X832263Y984834D01*
X832243Y984833D01*
X832142Y984839D01*
X819058Y984839D01*
X818920Y984822D01*
X818781Y984809D01*
X818762Y984802D01*
X818742Y984799D01*
X818613Y984748D01*
X818482Y984701D01*
X818465Y984690D01*
X818446Y984682D01*
X818334Y984601D01*
X818219Y984523D01*
X818205Y984507D01*
X818189Y984496D01*
X818100Y984388D01*
X818008Y984284D01*
X817999Y984266D01*
X817986Y984251D01*
X817927Y984125D01*
X817864Y984001D01*
X817859Y983981D01*
X817851Y983963D01*
X817825Y983827D01*
X817794Y983691D01*
X817795Y983670D01*
X817791Y983651D01*
X817799Y983512D01*
X817804Y983373D01*
X817809Y983353D01*
X817811Y983333D01*
X817853Y983201D01*
X817892Y983067D01*
X817902Y983050D01*
X817909Y983031D01*
X817983Y982913D01*
X818054Y982793D01*
X818072Y982772D01*
X818079Y982762D01*
X818094Y982748D01*
X818160Y982673D01*
X820653Y980180D01*
X822045Y976819D01*
X822045Y973181D01*
X820653Y969820D01*
X818080Y967247D01*
X814719Y965855D01*
X811081Y965855D01*
X807720Y967247D01*
X805147Y969820D01*
X803755Y973181D01*
X803755Y976819D01*
X805147Y980180D01*
X807640Y982673D01*
X807725Y982782D01*
X807814Y982889D01*
X807822Y982908D01*
X807835Y982924D01*
X807890Y983052D01*
X807949Y983177D01*
X807953Y983197D01*
X807961Y983216D01*
X807983Y983354D01*
X808009Y983490D01*
X808008Y983510D01*
X808011Y983530D01*
X807998Y983669D01*
X807989Y983807D01*
X807983Y983826D01*
X807981Y983846D01*
X807934Y983978D01*
X807891Y984109D01*
X807881Y984127D01*
X807874Y984146D01*
X807796Y984261D01*
X807721Y984378D01*
X807706Y984392D01*
X807695Y984409D01*
X807591Y984501D01*
X807490Y984596D01*
X807472Y984606D01*
X807457Y984619D01*
X807333Y984683D01*
X807211Y984750D01*
X807192Y984755D01*
X807173Y984764D01*
X807038Y984794D01*
X806903Y984829D01*
X806875Y984831D01*
X806863Y984834D01*
X806843Y984833D01*
X806742Y984839D01*
X793658Y984839D01*
X793520Y984822D01*
X793381Y984809D01*
X793362Y984802D01*
X793342Y984799D01*
X793213Y984748D01*
X793082Y984701D01*
X793065Y984690D01*
X793046Y984682D01*
X792934Y984601D01*
X792819Y984523D01*
X792805Y984507D01*
X792789Y984496D01*
X792700Y984388D01*
X792608Y984284D01*
X792599Y984266D01*
X792586Y984251D01*
X792527Y984125D01*
X792464Y984001D01*
X792459Y983981D01*
X792451Y983963D01*
X792425Y983827D01*
X792394Y983691D01*
X792395Y983670D01*
X792391Y983651D01*
X792399Y983512D01*
X792404Y983373D01*
X792409Y983353D01*
X792411Y983333D01*
X792453Y983201D01*
X792492Y983067D01*
X792502Y983050D01*
X792509Y983031D01*
X792583Y982913D01*
X792654Y982793D01*
X792672Y982772D01*
X792679Y982762D01*
X792694Y982748D01*
X792760Y982673D01*
X795253Y980180D01*
X796645Y976819D01*
X796645Y973181D01*
X795253Y969820D01*
X792680Y967247D01*
X789319Y965855D01*
X785681Y965855D01*
X782320Y967247D01*
X779747Y969820D01*
X778355Y973181D01*
X778355Y976819D01*
X779747Y980180D01*
X782240Y982673D01*
X782325Y982782D01*
X782414Y982889D01*
X782422Y982908D01*
X782435Y982924D01*
X782490Y983052D01*
X782549Y983177D01*
X782553Y983197D01*
X782561Y983216D01*
X782583Y983354D01*
X782609Y983490D01*
X782608Y983510D01*
X782611Y983530D01*
X782598Y983669D01*
X782589Y983807D01*
X782583Y983826D01*
X782581Y983846D01*
X782534Y983978D01*
X782491Y984109D01*
X782481Y984127D01*
X782474Y984146D01*
X782396Y984261D01*
X782321Y984378D01*
X782306Y984392D01*
X782295Y984409D01*
X782191Y984501D01*
X782090Y984596D01*
X782072Y984606D01*
X782057Y984619D01*
X781933Y984683D01*
X781811Y984750D01*
X781792Y984755D01*
X781773Y984764D01*
X781638Y984794D01*
X781503Y984829D01*
X781475Y984831D01*
X781463Y984834D01*
X781443Y984833D01*
X781342Y984839D01*
X768258Y984839D01*
X768120Y984822D01*
X767981Y984809D01*
X767962Y984802D01*
X767942Y984799D01*
X767813Y984748D01*
X767682Y984701D01*
X767665Y984690D01*
X767646Y984682D01*
X767534Y984601D01*
X767419Y984523D01*
X767405Y984507D01*
X767389Y984496D01*
X767300Y984388D01*
X767208Y984284D01*
X767199Y984266D01*
X767186Y984251D01*
X767127Y984125D01*
X767064Y984001D01*
X767059Y983981D01*
X767051Y983963D01*
X767025Y983827D01*
X766994Y983691D01*
X766995Y983670D01*
X766991Y983651D01*
X766999Y983512D01*
X767004Y983373D01*
X767009Y983353D01*
X767011Y983333D01*
X767053Y983201D01*
X767092Y983067D01*
X767102Y983050D01*
X767109Y983031D01*
X767183Y982913D01*
X767254Y982793D01*
X767272Y982772D01*
X767279Y982762D01*
X767294Y982748D01*
X767360Y982673D01*
X769853Y980180D01*
X771245Y976819D01*
X771245Y973181D01*
X769853Y969820D01*
X767280Y967247D01*
X763919Y965855D01*
X760281Y965855D01*
X756920Y967247D01*
X754347Y969820D01*
X752955Y973181D01*
X752955Y976819D01*
X754347Y980180D01*
X756840Y982673D01*
X756925Y982782D01*
X757014Y982889D01*
X757022Y982908D01*
X757035Y982924D01*
X757090Y983052D01*
X757149Y983177D01*
X757153Y983197D01*
X757161Y983216D01*
X757183Y983354D01*
X757209Y983490D01*
X757208Y983510D01*
X757211Y983530D01*
X757198Y983669D01*
X757189Y983807D01*
X757183Y983826D01*
X757181Y983846D01*
X757134Y983978D01*
X757091Y984109D01*
X757081Y984127D01*
X757074Y984146D01*
X756996Y984261D01*
X756921Y984378D01*
X756906Y984392D01*
X756895Y984409D01*
X756791Y984501D01*
X756690Y984596D01*
X756672Y984606D01*
X756657Y984619D01*
X756533Y984683D01*
X756411Y984750D01*
X756392Y984755D01*
X756373Y984764D01*
X756238Y984794D01*
X756103Y984829D01*
X756075Y984831D01*
X756063Y984834D01*
X756043Y984833D01*
X755942Y984839D01*
X52684Y984839D01*
X52553Y984823D01*
X52421Y984812D01*
X52395Y984803D01*
X52369Y984799D01*
X52246Y984751D01*
X52120Y984707D01*
X52098Y984692D01*
X52073Y984682D01*
X51966Y984605D01*
X51855Y984531D01*
X51837Y984511D01*
X51815Y984496D01*
X51731Y984393D01*
X51642Y984295D01*
X51630Y984271D01*
X51613Y984251D01*
X51556Y984131D01*
X51495Y984014D01*
X51489Y983987D01*
X51477Y983963D01*
X51452Y983833D01*
X51422Y983704D01*
X51422Y983677D01*
X51417Y983651D01*
X51426Y983518D01*
X51428Y983386D01*
X51435Y983360D01*
X51437Y983333D01*
X51478Y983207D01*
X51513Y983080D01*
X51530Y983045D01*
X51535Y983031D01*
X51547Y983012D01*
X51585Y982935D01*
X53446Y979712D01*
X55161Y973312D01*
X55161Y966688D01*
X53446Y960288D01*
X50134Y954551D01*
X45449Y949866D01*
X39712Y946554D01*
X33312Y944839D01*
X26688Y944839D01*
X20288Y946554D01*
X14551Y949866D01*
X12327Y952090D01*
X12218Y952175D01*
X12111Y952264D01*
X12092Y952272D01*
X12076Y952285D01*
X11948Y952340D01*
X11823Y952399D01*
X11803Y952403D01*
X11784Y952411D01*
X11646Y952433D01*
X11510Y952459D01*
X11490Y952458D01*
X11470Y952461D01*
X11331Y952448D01*
X11193Y952439D01*
X11174Y952433D01*
X11154Y952431D01*
X11022Y952384D01*
X10891Y952341D01*
X10873Y952330D01*
X10854Y952324D01*
X10739Y952246D01*
X10622Y952171D01*
X10608Y952156D01*
X10591Y952145D01*
X10499Y952041D01*
X10404Y951940D01*
X10394Y951922D01*
X10381Y951907D01*
X10317Y951782D01*
X10250Y951661D01*
X10245Y951641D01*
X10236Y951623D01*
X10206Y951488D01*
X10171Y951353D01*
X10169Y951325D01*
X10166Y951313D01*
X10167Y951293D01*
X10161Y951192D01*
X10161Y48808D01*
X10178Y48670D01*
X10191Y48531D01*
X10198Y48512D01*
X10201Y48492D01*
X10252Y48363D01*
X10299Y48232D01*
X10310Y48215D01*
X10318Y48196D01*
X10399Y48084D01*
X10477Y47969D01*
X10493Y47955D01*
X10504Y47939D01*
X10612Y47850D01*
X10716Y47758D01*
X10734Y47749D01*
X10749Y47736D01*
X10875Y47677D01*
X10999Y47614D01*
X11019Y47609D01*
X11037Y47601D01*
X11173Y47575D01*
X11309Y47544D01*
X11330Y47545D01*
X11349Y47541D01*
X11488Y47550D01*
X11627Y47554D01*
X11647Y47559D01*
X11667Y47561D01*
X11799Y47603D01*
X11933Y47642D01*
X11950Y47652D01*
X11969Y47659D01*
X12087Y47733D01*
X12207Y47804D01*
X12228Y47822D01*
X12238Y47829D01*
X12252Y47844D01*
X12327Y47910D01*
X14551Y50134D01*
X20288Y53446D01*
X26688Y55161D01*
X33312Y55161D01*
X39712Y53446D01*
X45449Y50134D01*
X50134Y45449D01*
X53446Y39712D01*
X55161Y33312D01*
X55161Y26688D01*
X53446Y20288D01*
X50134Y14551D01*
X47910Y12327D01*
X47825Y12218D01*
X47736Y12111D01*
X47728Y12092D01*
X47715Y12076D01*
X47660Y11948D01*
X47601Y11823D01*
X47597Y11803D01*
X47589Y11784D01*
X47567Y11646D01*
X47541Y11510D01*
X47542Y11490D01*
X47539Y11470D01*
X47552Y11331D01*
X47561Y11193D01*
X47567Y11174D01*
X47569Y11154D01*
X47616Y11022D01*
X47659Y10891D01*
X47670Y10873D01*
X47676Y10854D01*
X47754Y10739D01*
X47829Y10622D01*
X47844Y10608D01*
X47855Y10591D01*
X47959Y10499D01*
X48060Y10404D01*
X48078Y10394D01*
X48093Y10381D01*
X48218Y10317D01*
X48339Y10250D01*
X48359Y10245D01*
X48377Y10236D01*
X48512Y10206D01*
X48647Y10171D01*
X48675Y10169D01*
X48687Y10166D01*
X48707Y10167D01*
X48808Y10161D01*
X1711192Y10161D01*
X1711330Y10178D01*
G37*
%LPC*%
G36*
X589856Y876839D02*
X589856Y876839D01*
X583202Y878622D01*
X577237Y882066D01*
X572366Y886937D01*
X568922Y892902D01*
X567175Y899422D01*
X567132Y899527D01*
X567098Y899634D01*
X567073Y899674D01*
X567055Y899717D01*
X566988Y899807D01*
X566927Y899903D01*
X566893Y899935D01*
X566865Y899972D01*
X566778Y900043D01*
X566696Y900120D01*
X566655Y900143D01*
X566618Y900172D01*
X566516Y900219D01*
X566417Y900274D01*
X566372Y900285D01*
X566329Y900305D01*
X566218Y900325D01*
X566109Y900353D01*
X566062Y900353D01*
X566016Y900361D01*
X565904Y900353D01*
X565791Y900353D01*
X565746Y900342D01*
X565699Y900338D01*
X565592Y900302D01*
X565483Y900274D01*
X565442Y900252D01*
X565397Y900237D01*
X565303Y900176D01*
X565204Y900122D01*
X565170Y900090D01*
X565131Y900064D01*
X565054Y899981D01*
X564972Y899904D01*
X564947Y899865D01*
X564915Y899830D01*
X564862Y899731D01*
X564801Y899636D01*
X564775Y899569D01*
X564765Y899550D01*
X564760Y899532D01*
X564742Y899486D01*
X564616Y899100D01*
X563890Y897675D01*
X562950Y896381D01*
X561819Y895250D01*
X560525Y894310D01*
X559100Y893584D01*
X557739Y893141D01*
X557739Y901730D01*
X557724Y901848D01*
X557717Y901967D01*
X557704Y902005D01*
X557699Y902045D01*
X557656Y902156D01*
X557619Y902269D01*
X557597Y902303D01*
X557582Y902341D01*
X557512Y902437D01*
X557449Y902538D01*
X557419Y902566D01*
X557395Y902598D01*
X557304Y902674D01*
X557217Y902756D01*
X557182Y902775D01*
X557151Y902801D01*
X557043Y902852D01*
X556939Y902909D01*
X556899Y902920D01*
X556863Y902937D01*
X556746Y902959D01*
X556631Y902989D01*
X556570Y902993D01*
X556550Y902997D01*
X556530Y902995D01*
X556470Y902999D01*
X555199Y902999D01*
X555199Y903001D01*
X556470Y903001D01*
X556588Y903016D01*
X556707Y903023D01*
X556745Y903036D01*
X556785Y903041D01*
X556896Y903085D01*
X557009Y903121D01*
X557044Y903143D01*
X557081Y903158D01*
X557177Y903228D01*
X557278Y903291D01*
X557306Y903321D01*
X557339Y903345D01*
X557414Y903436D01*
X557496Y903523D01*
X557516Y903558D01*
X557541Y903590D01*
X557592Y903697D01*
X557650Y903802D01*
X557660Y903841D01*
X557677Y903877D01*
X557699Y903994D01*
X557729Y904109D01*
X557733Y904170D01*
X557737Y904190D01*
X557735Y904210D01*
X557739Y904270D01*
X557739Y912859D01*
X559100Y912416D01*
X560525Y911690D01*
X561819Y910750D01*
X562950Y909619D01*
X563890Y908325D01*
X564616Y906900D01*
X564742Y906514D01*
X564790Y906412D01*
X564830Y906307D01*
X564857Y906268D01*
X564877Y906226D01*
X564949Y906139D01*
X565014Y906047D01*
X565050Y906017D01*
X565080Y905981D01*
X565171Y905915D01*
X565257Y905842D01*
X565299Y905822D01*
X565337Y905794D01*
X565442Y905752D01*
X565543Y905703D01*
X565589Y905694D01*
X565633Y905677D01*
X565745Y905663D01*
X565855Y905640D01*
X565902Y905643D01*
X565948Y905637D01*
X566060Y905651D01*
X566173Y905657D01*
X566217Y905671D01*
X566264Y905676D01*
X566369Y905718D01*
X566476Y905751D01*
X566516Y905776D01*
X566560Y905793D01*
X566651Y905859D01*
X566747Y905919D01*
X566779Y905953D01*
X566817Y905980D01*
X566889Y906067D01*
X566967Y906148D01*
X566990Y906189D01*
X567020Y906225D01*
X567068Y906327D01*
X567124Y906425D01*
X567147Y906493D01*
X567156Y906512D01*
X567159Y906531D01*
X567175Y906578D01*
X568922Y913098D01*
X572366Y919063D01*
X577237Y923934D01*
X583202Y927378D01*
X589856Y929161D01*
X596744Y929161D01*
X603398Y927378D01*
X609363Y923934D01*
X614234Y919063D01*
X617678Y913098D01*
X619461Y906444D01*
X619461Y899556D01*
X617678Y892902D01*
X614234Y886937D01*
X609363Y882066D01*
X603398Y878622D01*
X596744Y876839D01*
X589856Y876839D01*
G37*
%LPD*%
%LPC*%
G36*
X526356Y394239D02*
X526356Y394239D01*
X519702Y396022D01*
X513737Y399466D01*
X508866Y404337D01*
X505422Y410302D01*
X503639Y416956D01*
X503639Y423844D01*
X505422Y430498D01*
X508064Y435074D01*
X508081Y435114D01*
X508105Y435150D01*
X508142Y435260D01*
X508188Y435367D01*
X508194Y435410D01*
X508208Y435450D01*
X508217Y435567D01*
X508234Y435682D01*
X508230Y435725D01*
X508233Y435768D01*
X508213Y435882D01*
X508201Y435998D01*
X508186Y436038D01*
X508179Y436081D01*
X508131Y436187D01*
X508090Y436296D01*
X508066Y436332D01*
X508048Y436371D01*
X507975Y436462D01*
X507909Y436558D01*
X507876Y436586D01*
X507849Y436619D01*
X507756Y436689D01*
X507668Y436766D01*
X507630Y436785D01*
X507595Y436811D01*
X507451Y436881D01*
X506022Y437473D01*
X504529Y438966D01*
X503721Y440917D01*
X503721Y443028D01*
X504529Y444978D01*
X506022Y446471D01*
X507972Y447279D01*
X510083Y447279D01*
X512034Y446471D01*
X513527Y444978D01*
X514232Y443276D01*
X514253Y443239D01*
X514267Y443198D01*
X514332Y443101D01*
X514389Y443000D01*
X514419Y442969D01*
X514443Y442933D01*
X514529Y442855D01*
X514610Y442772D01*
X514647Y442749D01*
X514679Y442720D01*
X514782Y442666D01*
X514881Y442605D01*
X514923Y442593D01*
X514961Y442573D01*
X515074Y442546D01*
X515185Y442512D01*
X515228Y442510D01*
X515270Y442500D01*
X515387Y442502D01*
X515503Y442497D01*
X515545Y442505D01*
X515588Y442506D01*
X515700Y442537D01*
X515815Y442561D01*
X515853Y442580D01*
X515895Y442591D01*
X516039Y442663D01*
X519702Y444778D01*
X526356Y446561D01*
X533244Y446561D01*
X539898Y444778D01*
X545863Y441334D01*
X550734Y436463D01*
X554178Y430498D01*
X555961Y423844D01*
X555961Y416956D01*
X554178Y410302D01*
X550734Y404337D01*
X545863Y399466D01*
X539898Y396022D01*
X533244Y394239D01*
X526356Y394239D01*
G37*
%LPD*%
%LPC*%
G36*
X1339156Y876839D02*
X1339156Y876839D01*
X1332502Y878622D01*
X1326537Y882066D01*
X1321666Y886937D01*
X1318222Y892902D01*
X1316439Y899556D01*
X1316439Y906444D01*
X1318222Y913098D01*
X1321666Y919063D01*
X1326537Y923934D01*
X1332502Y927378D01*
X1339156Y929161D01*
X1346044Y929161D01*
X1352698Y927378D01*
X1358663Y923934D01*
X1363534Y919063D01*
X1366978Y913098D01*
X1368761Y906444D01*
X1368761Y899556D01*
X1366978Y892902D01*
X1363534Y886937D01*
X1358663Y882066D01*
X1352698Y878622D01*
X1346044Y876839D01*
X1339156Y876839D01*
G37*
%LPD*%
%LPC*%
G36*
X1339156Y394239D02*
X1339156Y394239D01*
X1332502Y396022D01*
X1326537Y399466D01*
X1321666Y404337D01*
X1318222Y410302D01*
X1316439Y416956D01*
X1316439Y423844D01*
X1318222Y430498D01*
X1321666Y436463D01*
X1326537Y441334D01*
X1332502Y444778D01*
X1339156Y446561D01*
X1346044Y446561D01*
X1352698Y444778D01*
X1358663Y441334D01*
X1363534Y436463D01*
X1366978Y430498D01*
X1368761Y423844D01*
X1368761Y416956D01*
X1366978Y410302D01*
X1363534Y404337D01*
X1358663Y399466D01*
X1352698Y396022D01*
X1346044Y394239D01*
X1339156Y394239D01*
G37*
%LPD*%
%LPC*%
G36*
X1406084Y315339D02*
X1406084Y315339D01*
X1400695Y317571D01*
X1396571Y321695D01*
X1394339Y327084D01*
X1394339Y332916D01*
X1396571Y338305D01*
X1400695Y342429D01*
X1406084Y344661D01*
X1411916Y344661D01*
X1417305Y342429D01*
X1421429Y338305D01*
X1423661Y332916D01*
X1423661Y327084D01*
X1421429Y321695D01*
X1417305Y317571D01*
X1411916Y315339D01*
X1406084Y315339D01*
G37*
%LPD*%
%LPC*%
G36*
X1343084Y545339D02*
X1343084Y545339D01*
X1337695Y547571D01*
X1333571Y551695D01*
X1331339Y557084D01*
X1331339Y562916D01*
X1333571Y568305D01*
X1337695Y572429D01*
X1343084Y574661D01*
X1348916Y574661D01*
X1354305Y572429D01*
X1358429Y568305D01*
X1360661Y562916D01*
X1360661Y557084D01*
X1358429Y551695D01*
X1354305Y547571D01*
X1348916Y545339D01*
X1343084Y545339D01*
G37*
%LPD*%
%LPC*%
G36*
X401084Y905339D02*
X401084Y905339D01*
X395695Y907571D01*
X391571Y911695D01*
X389339Y917084D01*
X389339Y922916D01*
X391571Y928305D01*
X395695Y932429D01*
X401084Y934661D01*
X406916Y934661D01*
X412305Y932429D01*
X416429Y928305D01*
X418661Y922916D01*
X418661Y917084D01*
X416429Y911695D01*
X412305Y907571D01*
X406916Y905339D01*
X401084Y905339D01*
G37*
%LPD*%
%LPC*%
G36*
X333084Y905339D02*
X333084Y905339D01*
X327695Y907571D01*
X323571Y911695D01*
X321339Y917084D01*
X321339Y922916D01*
X323571Y928305D01*
X327695Y932429D01*
X333084Y934661D01*
X338916Y934661D01*
X344305Y932429D01*
X348429Y928305D01*
X350661Y922916D01*
X350661Y917084D01*
X348429Y911695D01*
X344305Y907571D01*
X338916Y905339D01*
X333084Y905339D01*
G37*
%LPD*%
%LPC*%
G36*
X406084Y675339D02*
X406084Y675339D01*
X400695Y677571D01*
X396571Y681695D01*
X394339Y687084D01*
X394339Y692916D01*
X396571Y698305D01*
X400695Y702429D01*
X406084Y704661D01*
X411916Y704661D01*
X417305Y702429D01*
X421429Y698305D01*
X423661Y692916D01*
X423661Y687084D01*
X421429Y681695D01*
X417305Y677571D01*
X411916Y675339D01*
X406084Y675339D01*
G37*
%LPD*%
%LPC*%
G36*
X996084Y595339D02*
X996084Y595339D01*
X990695Y597571D01*
X986571Y601695D01*
X984339Y607084D01*
X984339Y612916D01*
X986571Y618305D01*
X990695Y622429D01*
X996084Y624661D01*
X1001916Y624661D01*
X1007305Y622429D01*
X1011429Y618305D01*
X1013661Y612916D01*
X1013661Y607084D01*
X1011429Y601695D01*
X1007305Y597571D01*
X1001916Y595339D01*
X996084Y595339D01*
G37*
%LPD*%
%LPC*%
G36*
X338084Y675339D02*
X338084Y675339D01*
X332695Y677571D01*
X328571Y681695D01*
X326339Y687084D01*
X326339Y692916D01*
X328571Y698305D01*
X332695Y702429D01*
X338084Y704661D01*
X343916Y704661D01*
X349305Y702429D01*
X353429Y698305D01*
X355661Y692916D01*
X355661Y687084D01*
X353429Y681695D01*
X349305Y677571D01*
X343916Y675339D01*
X338084Y675339D01*
G37*
%LPD*%
%LPC*%
G36*
X1411084Y785339D02*
X1411084Y785339D01*
X1405695Y787571D01*
X1401571Y791695D01*
X1399339Y797084D01*
X1399339Y802916D01*
X1401571Y808305D01*
X1405695Y812429D01*
X1411084Y814661D01*
X1416916Y814661D01*
X1422305Y812429D01*
X1426429Y808305D01*
X1428661Y802916D01*
X1428661Y797084D01*
X1426429Y791695D01*
X1422305Y787571D01*
X1416916Y785339D01*
X1411084Y785339D01*
G37*
%LPD*%
%LPC*%
G36*
X1343084Y785339D02*
X1343084Y785339D01*
X1337695Y787571D01*
X1333571Y791695D01*
X1331339Y797084D01*
X1331339Y802916D01*
X1333571Y808305D01*
X1337695Y812429D01*
X1343084Y814661D01*
X1348916Y814661D01*
X1354305Y812429D01*
X1358429Y808305D01*
X1360661Y802916D01*
X1360661Y797084D01*
X1358429Y791695D01*
X1354305Y787571D01*
X1348916Y785339D01*
X1343084Y785339D01*
G37*
%LPD*%
%LPC*%
G36*
X338084Y440339D02*
X338084Y440339D01*
X332695Y442571D01*
X328571Y446695D01*
X326339Y452084D01*
X326339Y457916D01*
X328571Y463305D01*
X332695Y467429D01*
X338084Y469661D01*
X343916Y469661D01*
X349305Y467429D01*
X353429Y463305D01*
X355661Y457916D01*
X355661Y452084D01*
X353429Y446695D01*
X349305Y442571D01*
X343916Y440339D01*
X338084Y440339D01*
G37*
%LPD*%
%LPC*%
G36*
X1338084Y65339D02*
X1338084Y65339D01*
X1332695Y67571D01*
X1328571Y71695D01*
X1326339Y77084D01*
X1326339Y82916D01*
X1328571Y88305D01*
X1332695Y92429D01*
X1338084Y94661D01*
X1343916Y94661D01*
X1349305Y92429D01*
X1353429Y88305D01*
X1355661Y82916D01*
X1355661Y77084D01*
X1353429Y71695D01*
X1349305Y67571D01*
X1343916Y65339D01*
X1338084Y65339D01*
G37*
%LPD*%
%LPC*%
G36*
X1411084Y545339D02*
X1411084Y545339D01*
X1405695Y547571D01*
X1401571Y551695D01*
X1399339Y557084D01*
X1399339Y562916D01*
X1401571Y568305D01*
X1405695Y572429D01*
X1411084Y574661D01*
X1416916Y574661D01*
X1422305Y572429D01*
X1426429Y568305D01*
X1428661Y562916D01*
X1428661Y557084D01*
X1426429Y551695D01*
X1422305Y547571D01*
X1416916Y545339D01*
X1411084Y545339D01*
G37*
%LPD*%
%LPC*%
G36*
X928084Y595339D02*
X928084Y595339D01*
X922695Y597571D01*
X918571Y601695D01*
X916339Y607084D01*
X916339Y612916D01*
X918571Y618305D01*
X922695Y622429D01*
X928084Y624661D01*
X933916Y624661D01*
X939305Y622429D01*
X943429Y618305D01*
X945661Y612916D01*
X945661Y607084D01*
X943429Y601695D01*
X939305Y597571D01*
X933916Y595339D01*
X928084Y595339D01*
G37*
%LPD*%
%LPC*%
G36*
X1338084Y315339D02*
X1338084Y315339D01*
X1332695Y317571D01*
X1328571Y321695D01*
X1326339Y327084D01*
X1326339Y332916D01*
X1328571Y338305D01*
X1332695Y342429D01*
X1338084Y344661D01*
X1343916Y344661D01*
X1349305Y342429D01*
X1353429Y338305D01*
X1355661Y332916D01*
X1355661Y327084D01*
X1353429Y321695D01*
X1349305Y317571D01*
X1343916Y315339D01*
X1338084Y315339D01*
G37*
%LPD*%
%LPC*%
G36*
X406084Y205339D02*
X406084Y205339D01*
X400695Y207571D01*
X396571Y211695D01*
X394339Y217084D01*
X394339Y222916D01*
X396571Y228305D01*
X400695Y232429D01*
X406084Y234661D01*
X411916Y234661D01*
X417305Y232429D01*
X421429Y228305D01*
X423661Y222916D01*
X423661Y217084D01*
X421429Y211695D01*
X417305Y207571D01*
X411916Y205339D01*
X406084Y205339D01*
G37*
%LPD*%
%LPC*%
G36*
X1006084Y820339D02*
X1006084Y820339D01*
X1000695Y822571D01*
X996571Y826695D01*
X994339Y832084D01*
X994339Y837916D01*
X996571Y843305D01*
X1000695Y847429D01*
X1006084Y849661D01*
X1011916Y849661D01*
X1017305Y847429D01*
X1021429Y843305D01*
X1023661Y837916D01*
X1023661Y832084D01*
X1021429Y826695D01*
X1017305Y822571D01*
X1011916Y820339D01*
X1006084Y820339D01*
G37*
%LPD*%
%LPC*%
G36*
X938084Y820339D02*
X938084Y820339D01*
X932695Y822571D01*
X928571Y826695D01*
X926339Y832084D01*
X926339Y837916D01*
X928571Y843305D01*
X932695Y847429D01*
X938084Y849661D01*
X943916Y849661D01*
X949305Y847429D01*
X953429Y843305D01*
X955661Y837916D01*
X955661Y832084D01*
X953429Y826695D01*
X949305Y822571D01*
X943916Y820339D01*
X938084Y820339D01*
G37*
%LPD*%
%LPC*%
G36*
X338084Y205339D02*
X338084Y205339D01*
X332695Y207571D01*
X328571Y211695D01*
X326339Y217084D01*
X326339Y222916D01*
X328571Y228305D01*
X332695Y232429D01*
X338084Y234661D01*
X343916Y234661D01*
X349305Y232429D01*
X353429Y228305D01*
X355661Y222916D01*
X355661Y217084D01*
X353429Y211695D01*
X349305Y207571D01*
X343916Y205339D01*
X338084Y205339D01*
G37*
%LPD*%
%LPC*%
G36*
X406084Y440339D02*
X406084Y440339D01*
X400695Y442571D01*
X396571Y446695D01*
X394339Y452084D01*
X394339Y457916D01*
X396571Y463305D01*
X400695Y467429D01*
X406084Y469661D01*
X411916Y469661D01*
X417305Y467429D01*
X421429Y463305D01*
X423661Y457916D01*
X423661Y452084D01*
X421429Y446695D01*
X417305Y442571D01*
X411916Y440339D01*
X406084Y440339D01*
G37*
%LPD*%
%LPC*%
G36*
X1406084Y65339D02*
X1406084Y65339D01*
X1400695Y67571D01*
X1396571Y71695D01*
X1394339Y77084D01*
X1394339Y82916D01*
X1396571Y88305D01*
X1400695Y92429D01*
X1406084Y94661D01*
X1411916Y94661D01*
X1417305Y92429D01*
X1421429Y88305D01*
X1423661Y82916D01*
X1423661Y77084D01*
X1421429Y71695D01*
X1417305Y67571D01*
X1411916Y65339D01*
X1406084Y65339D01*
G37*
%LPD*%
%LPC*%
G36*
X242608Y357975D02*
X242608Y357975D01*
X238189Y359806D01*
X234806Y363189D01*
X232975Y367608D01*
X232975Y372392D01*
X234806Y376811D01*
X238189Y380194D01*
X242608Y382025D01*
X247392Y382025D01*
X251811Y380194D01*
X255194Y376811D01*
X257025Y372392D01*
X257025Y367608D01*
X255194Y363189D01*
X251811Y359806D01*
X247392Y357975D01*
X242608Y357975D01*
G37*
%LPD*%
%LPC*%
G36*
X1507608Y397975D02*
X1507608Y397975D01*
X1503189Y399806D01*
X1499806Y403189D01*
X1497975Y407608D01*
X1497975Y412392D01*
X1499806Y416811D01*
X1503189Y420194D01*
X1507608Y422025D01*
X1512392Y422025D01*
X1516811Y420194D01*
X1520194Y416811D01*
X1522025Y412392D01*
X1522025Y407608D01*
X1520194Y403189D01*
X1516811Y399806D01*
X1512392Y397975D01*
X1507608Y397975D01*
G37*
%LPD*%
%LPC*%
G36*
X837608Y742975D02*
X837608Y742975D01*
X833189Y744806D01*
X829806Y748189D01*
X827975Y752608D01*
X827975Y757392D01*
X829806Y761811D01*
X833189Y765194D01*
X837608Y767025D01*
X842392Y767025D01*
X846811Y765194D01*
X850194Y761811D01*
X852025Y757392D01*
X852025Y752608D01*
X850194Y748189D01*
X846811Y744806D01*
X842392Y742975D01*
X837608Y742975D01*
G37*
%LPD*%
%LPC*%
G36*
X1512608Y632975D02*
X1512608Y632975D01*
X1508189Y634806D01*
X1504806Y638189D01*
X1502975Y642608D01*
X1502975Y647392D01*
X1504806Y651811D01*
X1508189Y655194D01*
X1512608Y657025D01*
X1517392Y657025D01*
X1521811Y655194D01*
X1525194Y651811D01*
X1527025Y647392D01*
X1527025Y642608D01*
X1525194Y638189D01*
X1521811Y634806D01*
X1517392Y632975D01*
X1512608Y632975D01*
G37*
%LPD*%
%LPC*%
G36*
X242608Y592975D02*
X242608Y592975D01*
X238189Y594806D01*
X234806Y598189D01*
X232975Y602608D01*
X232975Y607392D01*
X234806Y611811D01*
X238189Y615194D01*
X242608Y617025D01*
X247392Y617025D01*
X251811Y615194D01*
X255194Y611811D01*
X257025Y607392D01*
X257025Y602608D01*
X255194Y598189D01*
X251811Y594806D01*
X247392Y592975D01*
X242608Y592975D01*
G37*
%LPD*%
%LPC*%
G36*
X827608Y517975D02*
X827608Y517975D01*
X823189Y519806D01*
X819806Y523189D01*
X817975Y527608D01*
X817975Y532392D01*
X819806Y536811D01*
X823189Y540194D01*
X827608Y542025D01*
X832392Y542025D01*
X836811Y540194D01*
X840194Y536811D01*
X842025Y532392D01*
X842025Y527608D01*
X840194Y523189D01*
X836811Y519806D01*
X832392Y517975D01*
X827608Y517975D01*
G37*
%LPD*%
%LPC*%
G36*
X242608Y822975D02*
X242608Y822975D01*
X238189Y824806D01*
X234806Y828189D01*
X232975Y832608D01*
X232975Y837392D01*
X234806Y841811D01*
X238189Y845194D01*
X242608Y847025D01*
X247392Y847025D01*
X251811Y845194D01*
X255194Y841811D01*
X257025Y837392D01*
X257025Y832608D01*
X255194Y828189D01*
X251811Y824806D01*
X247392Y822975D01*
X242608Y822975D01*
G37*
%LPD*%
%LPC*%
G36*
X1512608Y867975D02*
X1512608Y867975D01*
X1508189Y869806D01*
X1504806Y873189D01*
X1502975Y877608D01*
X1502975Y882392D01*
X1504806Y886811D01*
X1508189Y890194D01*
X1512608Y892025D01*
X1517392Y892025D01*
X1521811Y890194D01*
X1525194Y886811D01*
X1527025Y882392D01*
X1527025Y877608D01*
X1525194Y873189D01*
X1521811Y869806D01*
X1517392Y867975D01*
X1512608Y867975D01*
G37*
%LPD*%
%LPC*%
G36*
X1507608Y147975D02*
X1507608Y147975D01*
X1503189Y149806D01*
X1499806Y153189D01*
X1497975Y157608D01*
X1497975Y162392D01*
X1499806Y166811D01*
X1503189Y170194D01*
X1507608Y172025D01*
X1512392Y172025D01*
X1516811Y170194D01*
X1520194Y166811D01*
X1522025Y162392D01*
X1522025Y157608D01*
X1520194Y153189D01*
X1516811Y149806D01*
X1512392Y147975D01*
X1507608Y147975D01*
G37*
%LPD*%
%LPC*%
G36*
X242608Y122975D02*
X242608Y122975D01*
X238189Y124806D01*
X234806Y128189D01*
X232975Y132608D01*
X232975Y137392D01*
X234806Y141811D01*
X238189Y145194D01*
X242608Y147025D01*
X247392Y147025D01*
X251811Y145194D01*
X255194Y141811D01*
X257025Y137392D01*
X257025Y132608D01*
X255194Y128189D01*
X251811Y124806D01*
X247392Y122975D01*
X242608Y122975D01*
G37*
%LPD*%
%LPC*%
G36*
X218056Y335225D02*
X218056Y335225D01*
X214463Y336713D01*
X211713Y339463D01*
X210225Y343056D01*
X210225Y346944D01*
X211713Y350537D01*
X214463Y353287D01*
X218056Y354775D01*
X221944Y354775D01*
X225537Y353287D01*
X228287Y350537D01*
X229775Y346944D01*
X229775Y343056D01*
X228287Y339463D01*
X225537Y336713D01*
X221944Y335225D01*
X218056Y335225D01*
G37*
%LPD*%
%LPC*%
G36*
X1538056Y895225D02*
X1538056Y895225D01*
X1534463Y896713D01*
X1531713Y899463D01*
X1530225Y903056D01*
X1530225Y906944D01*
X1531713Y910537D01*
X1534463Y913287D01*
X1538056Y914775D01*
X1541944Y914775D01*
X1545537Y913287D01*
X1548287Y910537D01*
X1549775Y906944D01*
X1549775Y903056D01*
X1548287Y899463D01*
X1545537Y896713D01*
X1541944Y895225D01*
X1538056Y895225D01*
G37*
%LPD*%
%LPC*%
G36*
X1488056Y895225D02*
X1488056Y895225D01*
X1484463Y896713D01*
X1481713Y899463D01*
X1480225Y903056D01*
X1480225Y906944D01*
X1481713Y910537D01*
X1484463Y913287D01*
X1488056Y914775D01*
X1491944Y914775D01*
X1495537Y913287D01*
X1498287Y910537D01*
X1499775Y906944D01*
X1499775Y903056D01*
X1498287Y899463D01*
X1495537Y896713D01*
X1491944Y895225D01*
X1488056Y895225D01*
G37*
%LPD*%
%LPC*%
G36*
X268056Y335225D02*
X268056Y335225D01*
X264463Y336713D01*
X261713Y339463D01*
X260225Y343056D01*
X260225Y346944D01*
X261713Y350537D01*
X264463Y353287D01*
X268056Y354775D01*
X271944Y354775D01*
X275537Y353287D01*
X278287Y350537D01*
X279775Y346944D01*
X279775Y343056D01*
X278287Y339463D01*
X275537Y336713D01*
X271944Y335225D01*
X268056Y335225D01*
G37*
%LPD*%
%LPC*%
G36*
X853056Y495225D02*
X853056Y495225D01*
X849463Y496713D01*
X846713Y499463D01*
X845225Y503056D01*
X845225Y506944D01*
X846713Y510537D01*
X849463Y513287D01*
X853056Y514775D01*
X856944Y514775D01*
X860537Y513287D01*
X863287Y510537D01*
X864775Y506944D01*
X864775Y503056D01*
X863287Y499463D01*
X860537Y496713D01*
X856944Y495225D01*
X853056Y495225D01*
G37*
%LPD*%
%LPC*%
G36*
X268056Y570225D02*
X268056Y570225D01*
X264463Y571713D01*
X261713Y574463D01*
X260225Y578056D01*
X260225Y581944D01*
X261713Y585537D01*
X264463Y588287D01*
X268056Y589775D01*
X271944Y589775D01*
X275537Y588287D01*
X278287Y585537D01*
X279775Y581944D01*
X279775Y578056D01*
X278287Y574463D01*
X275537Y571713D01*
X271944Y570225D01*
X268056Y570225D01*
G37*
%LPD*%
%LPC*%
G36*
X863056Y720225D02*
X863056Y720225D01*
X859463Y721713D01*
X856713Y724463D01*
X855225Y728056D01*
X855225Y731944D01*
X856713Y735537D01*
X859463Y738287D01*
X863056Y739775D01*
X866944Y739775D01*
X870537Y738287D01*
X873287Y735537D01*
X874775Y731944D01*
X874775Y728056D01*
X873287Y724463D01*
X870537Y721713D01*
X866944Y720225D01*
X863056Y720225D01*
G37*
%LPD*%
%LPC*%
G36*
X813056Y720225D02*
X813056Y720225D01*
X809463Y721713D01*
X806713Y724463D01*
X805225Y728056D01*
X805225Y731944D01*
X806713Y735537D01*
X809463Y738287D01*
X813056Y739775D01*
X816944Y739775D01*
X820537Y738287D01*
X823287Y735537D01*
X824775Y731944D01*
X824775Y728056D01*
X823287Y724463D01*
X820537Y721713D01*
X816944Y720225D01*
X813056Y720225D01*
G37*
%LPD*%
%LPC*%
G36*
X1533056Y425225D02*
X1533056Y425225D01*
X1529463Y426713D01*
X1526713Y429463D01*
X1525225Y433056D01*
X1525225Y436944D01*
X1526713Y440537D01*
X1529463Y443287D01*
X1533056Y444775D01*
X1536944Y444775D01*
X1540537Y443287D01*
X1543287Y440537D01*
X1544775Y436944D01*
X1544775Y433056D01*
X1543287Y429463D01*
X1540537Y426713D01*
X1536944Y425225D01*
X1533056Y425225D01*
G37*
%LPD*%
%LPC*%
G36*
X268056Y800225D02*
X268056Y800225D01*
X264463Y801713D01*
X261713Y804463D01*
X260225Y808056D01*
X260225Y811944D01*
X261713Y815537D01*
X264463Y818287D01*
X268056Y819775D01*
X271944Y819775D01*
X275537Y818287D01*
X278287Y815537D01*
X279775Y811944D01*
X279775Y808056D01*
X278287Y804463D01*
X275537Y801713D01*
X271944Y800225D01*
X268056Y800225D01*
G37*
%LPD*%
%LPC*%
G36*
X218056Y570225D02*
X218056Y570225D01*
X214463Y571713D01*
X211713Y574463D01*
X210225Y578056D01*
X210225Y581944D01*
X211713Y585537D01*
X214463Y588287D01*
X218056Y589775D01*
X221944Y589775D01*
X225537Y588287D01*
X228287Y585537D01*
X229775Y581944D01*
X229775Y578056D01*
X228287Y574463D01*
X225537Y571713D01*
X221944Y570225D01*
X218056Y570225D01*
G37*
%LPD*%
%LPC*%
G36*
X218056Y800225D02*
X218056Y800225D01*
X214463Y801713D01*
X211713Y804463D01*
X210225Y808056D01*
X210225Y811944D01*
X211713Y815537D01*
X214463Y818287D01*
X218056Y819775D01*
X221944Y819775D01*
X225537Y818287D01*
X228287Y815537D01*
X229775Y811944D01*
X229775Y808056D01*
X228287Y804463D01*
X225537Y801713D01*
X221944Y800225D01*
X218056Y800225D01*
G37*
%LPD*%
%LPC*%
G36*
X1538056Y660225D02*
X1538056Y660225D01*
X1534463Y661713D01*
X1531713Y664463D01*
X1530225Y668056D01*
X1530225Y671944D01*
X1531713Y675537D01*
X1534463Y678287D01*
X1538056Y679775D01*
X1541944Y679775D01*
X1545537Y678287D01*
X1548287Y675537D01*
X1549775Y671944D01*
X1549775Y668056D01*
X1548287Y664463D01*
X1545537Y661713D01*
X1541944Y660225D01*
X1538056Y660225D01*
G37*
%LPD*%
%LPC*%
G36*
X803056Y495225D02*
X803056Y495225D01*
X799463Y496713D01*
X796713Y499463D01*
X795225Y503056D01*
X795225Y506944D01*
X796713Y510537D01*
X799463Y513287D01*
X803056Y514775D01*
X806944Y514775D01*
X810537Y513287D01*
X813287Y510537D01*
X814775Y506944D01*
X814775Y503056D01*
X813287Y499463D01*
X810537Y496713D01*
X806944Y495225D01*
X803056Y495225D01*
G37*
%LPD*%
%LPC*%
G36*
X1488056Y660225D02*
X1488056Y660225D01*
X1484463Y661713D01*
X1481713Y664463D01*
X1480225Y668056D01*
X1480225Y671944D01*
X1481713Y675537D01*
X1484463Y678287D01*
X1488056Y679775D01*
X1491944Y679775D01*
X1495537Y678287D01*
X1498287Y675537D01*
X1499775Y671944D01*
X1499775Y668056D01*
X1498287Y664463D01*
X1495537Y661713D01*
X1491944Y660225D01*
X1488056Y660225D01*
G37*
%LPD*%
%LPC*%
G36*
X1533056Y175225D02*
X1533056Y175225D01*
X1529463Y176713D01*
X1526713Y179463D01*
X1525225Y183056D01*
X1525225Y186944D01*
X1526713Y190537D01*
X1529463Y193287D01*
X1533056Y194775D01*
X1536944Y194775D01*
X1540537Y193287D01*
X1543287Y190537D01*
X1544775Y186944D01*
X1544775Y183056D01*
X1543287Y179463D01*
X1540537Y176713D01*
X1536944Y175225D01*
X1533056Y175225D01*
G37*
%LPD*%
%LPC*%
G36*
X268056Y100225D02*
X268056Y100225D01*
X264463Y101713D01*
X261713Y104463D01*
X260225Y108056D01*
X260225Y111944D01*
X261713Y115537D01*
X264463Y118287D01*
X268056Y119775D01*
X271944Y119775D01*
X275537Y118287D01*
X278287Y115537D01*
X279775Y111944D01*
X279775Y108056D01*
X278287Y104463D01*
X275537Y101713D01*
X271944Y100225D01*
X268056Y100225D01*
G37*
%LPD*%
%LPC*%
G36*
X218056Y100225D02*
X218056Y100225D01*
X214463Y101713D01*
X211713Y104463D01*
X210225Y108056D01*
X210225Y111944D01*
X211713Y115537D01*
X214463Y118287D01*
X218056Y119775D01*
X221944Y119775D01*
X225537Y118287D01*
X228287Y115537D01*
X229775Y111944D01*
X229775Y108056D01*
X228287Y104463D01*
X225537Y101713D01*
X221944Y100225D01*
X218056Y100225D01*
G37*
%LPD*%
%LPC*%
G36*
X1483056Y425225D02*
X1483056Y425225D01*
X1479463Y426713D01*
X1476713Y429463D01*
X1475225Y433056D01*
X1475225Y436944D01*
X1476713Y440537D01*
X1479463Y443287D01*
X1483056Y444775D01*
X1486944Y444775D01*
X1490537Y443287D01*
X1493287Y440537D01*
X1494775Y436944D01*
X1494775Y433056D01*
X1493287Y429463D01*
X1490537Y426713D01*
X1486944Y425225D01*
X1483056Y425225D01*
G37*
%LPD*%
%LPC*%
G36*
X1483056Y175225D02*
X1483056Y175225D01*
X1479463Y176713D01*
X1476713Y179463D01*
X1475225Y183056D01*
X1475225Y186944D01*
X1476713Y190537D01*
X1479463Y193287D01*
X1483056Y194775D01*
X1486944Y194775D01*
X1490537Y193287D01*
X1493287Y190537D01*
X1494775Y186944D01*
X1494775Y183056D01*
X1493287Y179463D01*
X1490537Y176713D01*
X1486944Y175225D01*
X1483056Y175225D01*
G37*
%LPD*%
%LPC*%
G36*
X781981Y893855D02*
X781981Y893855D01*
X778620Y895247D01*
X776047Y897820D01*
X774655Y901181D01*
X774655Y904819D01*
X776047Y908180D01*
X778620Y910753D01*
X781981Y912145D01*
X785619Y912145D01*
X788980Y910753D01*
X791553Y908180D01*
X792945Y904819D01*
X792945Y901181D01*
X791553Y897820D01*
X788980Y895247D01*
X785619Y893855D01*
X781981Y893855D01*
G37*
%LPD*%
%LPC*%
G36*
X756581Y893855D02*
X756581Y893855D01*
X753220Y895247D01*
X750647Y897820D01*
X749255Y901181D01*
X749255Y904819D01*
X750647Y908180D01*
X753220Y910753D01*
X756581Y912145D01*
X760219Y912145D01*
X763580Y910753D01*
X766153Y908180D01*
X767545Y904819D01*
X767545Y901181D01*
X766153Y897820D01*
X763580Y895247D01*
X760219Y893855D01*
X756581Y893855D01*
G37*
%LPD*%
%LPC*%
G36*
X731181Y893855D02*
X731181Y893855D01*
X727820Y895247D01*
X725247Y897820D01*
X723855Y901181D01*
X723855Y904819D01*
X725247Y908180D01*
X727820Y910753D01*
X731181Y912145D01*
X734819Y912145D01*
X738180Y910753D01*
X740753Y908180D01*
X742145Y904819D01*
X742145Y901181D01*
X740753Y897820D01*
X738180Y895247D01*
X734819Y893855D01*
X731181Y893855D01*
G37*
%LPD*%
%LPC*%
G36*
X705781Y893855D02*
X705781Y893855D01*
X702420Y895247D01*
X699847Y897820D01*
X698455Y901181D01*
X698455Y904819D01*
X699847Y908180D01*
X702420Y910753D01*
X705781Y912145D01*
X709419Y912145D01*
X712780Y910753D01*
X715353Y908180D01*
X716745Y904819D01*
X716745Y901181D01*
X715353Y897820D01*
X712780Y895247D01*
X709419Y893855D01*
X705781Y893855D01*
G37*
%LPD*%
%LPC*%
G36*
X654981Y893855D02*
X654981Y893855D01*
X651620Y895247D01*
X649047Y897820D01*
X647655Y901181D01*
X647655Y904819D01*
X649047Y908180D01*
X651620Y910753D01*
X654981Y912145D01*
X658619Y912145D01*
X661980Y910753D01*
X664553Y908180D01*
X665945Y904819D01*
X665945Y901181D01*
X664553Y897820D01*
X661980Y895247D01*
X658619Y893855D01*
X654981Y893855D01*
G37*
%LPD*%
%LPC*%
G36*
X629581Y893855D02*
X629581Y893855D01*
X626220Y895247D01*
X623647Y897820D01*
X622255Y901181D01*
X622255Y904819D01*
X623647Y908180D01*
X626220Y910753D01*
X629581Y912145D01*
X633219Y912145D01*
X636580Y910753D01*
X639153Y908180D01*
X640545Y904819D01*
X640545Y901181D01*
X639153Y897820D01*
X636580Y895247D01*
X633219Y893855D01*
X629581Y893855D01*
G37*
%LPD*%
%LPC*%
G36*
X1251881Y893855D02*
X1251881Y893855D01*
X1248520Y895247D01*
X1245947Y897820D01*
X1244555Y901181D01*
X1244555Y904819D01*
X1245947Y908180D01*
X1248520Y910753D01*
X1251881Y912145D01*
X1255519Y912145D01*
X1258880Y910753D01*
X1261453Y908180D01*
X1262845Y904819D01*
X1262845Y901181D01*
X1261453Y897820D01*
X1258880Y895247D01*
X1255519Y893855D01*
X1251881Y893855D01*
G37*
%LPD*%
%LPC*%
G36*
X1226481Y893855D02*
X1226481Y893855D01*
X1223120Y895247D01*
X1220547Y897820D01*
X1219155Y901181D01*
X1219155Y904819D01*
X1220547Y908180D01*
X1223120Y910753D01*
X1226481Y912145D01*
X1230119Y912145D01*
X1233480Y910753D01*
X1236053Y908180D01*
X1237445Y904819D01*
X1237445Y901181D01*
X1236053Y897820D01*
X1233480Y895247D01*
X1230119Y893855D01*
X1226481Y893855D01*
G37*
%LPD*%
%LPC*%
G36*
X1201081Y893855D02*
X1201081Y893855D01*
X1197720Y895247D01*
X1195147Y897820D01*
X1193755Y901181D01*
X1193755Y904819D01*
X1195147Y908180D01*
X1197720Y910753D01*
X1201081Y912145D01*
X1204719Y912145D01*
X1208080Y910753D01*
X1210653Y908180D01*
X1212045Y904819D01*
X1212045Y901181D01*
X1210653Y897820D01*
X1208080Y895247D01*
X1204719Y893855D01*
X1201081Y893855D01*
G37*
%LPD*%
%LPC*%
G36*
X1175681Y893855D02*
X1175681Y893855D01*
X1172320Y895247D01*
X1169747Y897820D01*
X1168355Y901181D01*
X1168355Y904819D01*
X1169747Y908180D01*
X1172320Y910753D01*
X1175681Y912145D01*
X1179319Y912145D01*
X1182680Y910753D01*
X1185253Y908180D01*
X1186645Y904819D01*
X1186645Y901181D01*
X1185253Y897820D01*
X1182680Y895247D01*
X1179319Y893855D01*
X1175681Y893855D01*
G37*
%LPD*%
%LPC*%
G36*
X1150281Y893855D02*
X1150281Y893855D01*
X1146920Y895247D01*
X1144347Y897820D01*
X1142955Y901181D01*
X1142955Y904819D01*
X1144347Y908180D01*
X1146920Y910753D01*
X1150281Y912145D01*
X1153919Y912145D01*
X1157280Y910753D01*
X1159853Y908180D01*
X1161245Y904819D01*
X1161245Y901181D01*
X1159853Y897820D01*
X1157280Y895247D01*
X1153919Y893855D01*
X1150281Y893855D01*
G37*
%LPD*%
%LPC*%
G36*
X1124881Y893855D02*
X1124881Y893855D01*
X1121520Y895247D01*
X1118947Y897820D01*
X1117555Y901181D01*
X1117555Y904819D01*
X1118947Y908180D01*
X1121520Y910753D01*
X1124881Y912145D01*
X1128519Y912145D01*
X1131880Y910753D01*
X1134453Y908180D01*
X1135845Y904819D01*
X1135845Y901181D01*
X1134453Y897820D01*
X1131880Y895247D01*
X1128519Y893855D01*
X1124881Y893855D01*
G37*
%LPD*%
%LPC*%
G36*
X23181Y891255D02*
X23181Y891255D01*
X19820Y892647D01*
X17247Y895220D01*
X15855Y898581D01*
X15855Y902219D01*
X17247Y905580D01*
X19820Y908153D01*
X23181Y909545D01*
X26819Y909545D01*
X30180Y908153D01*
X32753Y905580D01*
X34145Y902219D01*
X34145Y898581D01*
X32753Y895220D01*
X30180Y892647D01*
X26819Y891255D01*
X23181Y891255D01*
G37*
%LPD*%
%LPC*%
G36*
X553381Y868455D02*
X553381Y868455D01*
X550020Y869847D01*
X547447Y872420D01*
X546055Y875781D01*
X546055Y879419D01*
X547447Y882780D01*
X550020Y885353D01*
X553381Y886745D01*
X557019Y886745D01*
X560380Y885353D01*
X562953Y882780D01*
X564345Y879419D01*
X564345Y875781D01*
X562953Y872420D01*
X560380Y869847D01*
X557019Y868455D01*
X553381Y868455D01*
G37*
%LPD*%
%LPC*%
G36*
X527981Y868455D02*
X527981Y868455D01*
X524620Y869847D01*
X522047Y872420D01*
X520655Y875781D01*
X520655Y879419D01*
X522047Y882780D01*
X524620Y885353D01*
X527981Y886745D01*
X531619Y886745D01*
X534980Y885353D01*
X537553Y882780D01*
X538945Y879419D01*
X538945Y875781D01*
X537553Y872420D01*
X534980Y869847D01*
X531619Y868455D01*
X527981Y868455D01*
G37*
%LPD*%
%LPC*%
G36*
X23181Y865855D02*
X23181Y865855D01*
X19820Y867247D01*
X17247Y869820D01*
X15855Y873181D01*
X15855Y876819D01*
X17247Y880180D01*
X19820Y882753D01*
X23181Y884145D01*
X26819Y884145D01*
X30180Y882753D01*
X32753Y880180D01*
X34145Y876819D01*
X34145Y873181D01*
X32753Y869820D01*
X30180Y867247D01*
X26819Y865855D01*
X23181Y865855D01*
G37*
%LPD*%
%LPC*%
G36*
X1733181Y856255D02*
X1733181Y856255D01*
X1729820Y857647D01*
X1727247Y860220D01*
X1725855Y863581D01*
X1725855Y867219D01*
X1727247Y870580D01*
X1729820Y873153D01*
X1733181Y874545D01*
X1736819Y874545D01*
X1740180Y873153D01*
X1742753Y870580D01*
X1744145Y867219D01*
X1744145Y863581D01*
X1742753Y860220D01*
X1740180Y857647D01*
X1736819Y856255D01*
X1733181Y856255D01*
G37*
%LPD*%
%LPC*%
G36*
X553381Y843055D02*
X553381Y843055D01*
X550020Y844447D01*
X547447Y847020D01*
X546055Y850381D01*
X546055Y854019D01*
X547447Y857380D01*
X550020Y859953D01*
X553381Y861345D01*
X557019Y861345D01*
X560380Y859953D01*
X562953Y857380D01*
X564345Y854019D01*
X564345Y850381D01*
X562953Y847020D01*
X560380Y844447D01*
X557019Y843055D01*
X553381Y843055D01*
G37*
%LPD*%
%LPC*%
G36*
X527981Y843055D02*
X527981Y843055D01*
X524620Y844447D01*
X522047Y847020D01*
X520655Y850381D01*
X520655Y854019D01*
X522047Y857380D01*
X524620Y859953D01*
X527981Y861345D01*
X531619Y861345D01*
X534980Y859953D01*
X537553Y857380D01*
X538945Y854019D01*
X538945Y850381D01*
X537553Y847020D01*
X534980Y844447D01*
X531619Y843055D01*
X527981Y843055D01*
G37*
%LPD*%
%LPC*%
G36*
X23181Y840455D02*
X23181Y840455D01*
X19820Y841847D01*
X17247Y844420D01*
X15855Y847781D01*
X15855Y851419D01*
X17247Y854780D01*
X19820Y857353D01*
X23181Y858745D01*
X26819Y858745D01*
X30180Y857353D01*
X32753Y854780D01*
X34145Y851419D01*
X34145Y847781D01*
X32753Y844420D01*
X30180Y841847D01*
X26819Y840455D01*
X23181Y840455D01*
G37*
%LPD*%
%LPC*%
G36*
X1733181Y830855D02*
X1733181Y830855D01*
X1729820Y832247D01*
X1727247Y834820D01*
X1725855Y838181D01*
X1725855Y841819D01*
X1727247Y845180D01*
X1729820Y847753D01*
X1733181Y849145D01*
X1736819Y849145D01*
X1740180Y847753D01*
X1742753Y845180D01*
X1744145Y841819D01*
X1744145Y838181D01*
X1742753Y834820D01*
X1740180Y832247D01*
X1736819Y830855D01*
X1733181Y830855D01*
G37*
%LPD*%
%LPC*%
G36*
X680381Y893855D02*
X680381Y893855D01*
X677020Y895247D01*
X674447Y897820D01*
X673055Y901181D01*
X673055Y904819D01*
X674447Y908180D01*
X677020Y910753D01*
X680381Y912145D01*
X684019Y912145D01*
X687380Y910753D01*
X689953Y908180D01*
X691345Y904819D01*
X691345Y901181D01*
X689953Y897820D01*
X687380Y895247D01*
X684019Y893855D01*
X680381Y893855D01*
G37*
%LPD*%
%LPC*%
G36*
X553381Y817655D02*
X553381Y817655D01*
X550020Y819047D01*
X547447Y821620D01*
X546055Y824981D01*
X546055Y828619D01*
X547447Y831980D01*
X550020Y834553D01*
X553381Y835945D01*
X557019Y835945D01*
X560380Y834553D01*
X562953Y831980D01*
X564345Y828619D01*
X564345Y824981D01*
X562953Y821620D01*
X560380Y819047D01*
X557019Y817655D01*
X553381Y817655D01*
G37*
%LPD*%
%LPC*%
G36*
X527981Y817655D02*
X527981Y817655D01*
X524620Y819047D01*
X522047Y821620D01*
X520655Y824981D01*
X520655Y828619D01*
X522047Y831980D01*
X524620Y834553D01*
X527981Y835945D01*
X531619Y835945D01*
X534980Y834553D01*
X537553Y831980D01*
X538945Y828619D01*
X538945Y824981D01*
X537553Y821620D01*
X534980Y819047D01*
X531619Y817655D01*
X527981Y817655D01*
G37*
%LPD*%
%LPC*%
G36*
X1733181Y805455D02*
X1733181Y805455D01*
X1729820Y806847D01*
X1727247Y809420D01*
X1725855Y812781D01*
X1725855Y816419D01*
X1727247Y819780D01*
X1729820Y822353D01*
X1733181Y823745D01*
X1736819Y823745D01*
X1740180Y822353D01*
X1742753Y819780D01*
X1744145Y816419D01*
X1744145Y812781D01*
X1742753Y809420D01*
X1740180Y806847D01*
X1736819Y805455D01*
X1733181Y805455D01*
G37*
%LPD*%
%LPC*%
G36*
X618181Y801255D02*
X618181Y801255D01*
X614820Y802647D01*
X612247Y805220D01*
X610855Y808581D01*
X610855Y812219D01*
X612247Y815580D01*
X614820Y818153D01*
X618181Y819545D01*
X621819Y819545D01*
X625180Y818153D01*
X627753Y815580D01*
X629145Y812219D01*
X629145Y808581D01*
X627753Y805220D01*
X625180Y802647D01*
X621819Y801255D01*
X618181Y801255D01*
G37*
%LPD*%
%LPC*%
G36*
X553381Y792255D02*
X553381Y792255D01*
X550020Y793647D01*
X547447Y796220D01*
X546055Y799581D01*
X546055Y803219D01*
X547447Y806580D01*
X550020Y809153D01*
X553381Y810545D01*
X557019Y810545D01*
X560380Y809153D01*
X562953Y806580D01*
X564345Y803219D01*
X564345Y799581D01*
X562953Y796220D01*
X560380Y793647D01*
X557019Y792255D01*
X553381Y792255D01*
G37*
%LPD*%
%LPC*%
G36*
X527981Y792255D02*
X527981Y792255D01*
X524620Y793647D01*
X522047Y796220D01*
X520655Y799581D01*
X520655Y803219D01*
X522047Y806580D01*
X524620Y809153D01*
X527981Y810545D01*
X531619Y810545D01*
X534980Y809153D01*
X537553Y806580D01*
X538945Y803219D01*
X538945Y799581D01*
X537553Y796220D01*
X534980Y793647D01*
X531619Y792255D01*
X527981Y792255D01*
G37*
%LPD*%
%LPC*%
G36*
X618181Y775855D02*
X618181Y775855D01*
X614820Y777247D01*
X612247Y779820D01*
X610855Y783181D01*
X610855Y786819D01*
X612247Y790180D01*
X614820Y792753D01*
X618181Y794145D01*
X621819Y794145D01*
X625180Y792753D01*
X627753Y790180D01*
X629145Y786819D01*
X629145Y783181D01*
X627753Y779820D01*
X625180Y777247D01*
X621819Y775855D01*
X618181Y775855D01*
G37*
%LPD*%
%LPC*%
G36*
X553381Y766855D02*
X553381Y766855D01*
X550020Y768247D01*
X547447Y770820D01*
X546055Y774181D01*
X546055Y777819D01*
X547447Y781180D01*
X550020Y783753D01*
X553381Y785145D01*
X557019Y785145D01*
X560380Y783753D01*
X562953Y781180D01*
X564345Y777819D01*
X564345Y774181D01*
X562953Y770820D01*
X560380Y768247D01*
X557019Y766855D01*
X553381Y766855D01*
G37*
%LPD*%
%LPC*%
G36*
X527981Y766855D02*
X527981Y766855D01*
X524620Y768247D01*
X522047Y770820D01*
X520655Y774181D01*
X520655Y777819D01*
X522047Y781180D01*
X524620Y783753D01*
X527981Y785145D01*
X531619Y785145D01*
X534980Y783753D01*
X537553Y781180D01*
X538945Y777819D01*
X538945Y774181D01*
X537553Y770820D01*
X534980Y768247D01*
X531619Y766855D01*
X527981Y766855D01*
G37*
%LPD*%
%LPC*%
G36*
X618181Y750455D02*
X618181Y750455D01*
X614820Y751847D01*
X612247Y754420D01*
X610855Y757781D01*
X610855Y761419D01*
X612247Y764780D01*
X614820Y767353D01*
X618181Y768745D01*
X621819Y768745D01*
X625180Y767353D01*
X627753Y764780D01*
X629145Y761419D01*
X629145Y757781D01*
X627753Y754420D01*
X625180Y751847D01*
X621819Y750455D01*
X618181Y750455D01*
G37*
%LPD*%
%LPC*%
G36*
X553381Y741455D02*
X553381Y741455D01*
X550020Y742847D01*
X547447Y745420D01*
X546055Y748781D01*
X546055Y752419D01*
X547447Y755780D01*
X550020Y758353D01*
X553381Y759745D01*
X557019Y759745D01*
X560380Y758353D01*
X562953Y755780D01*
X564345Y752419D01*
X564345Y748781D01*
X562953Y745420D01*
X560380Y742847D01*
X557019Y741455D01*
X553381Y741455D01*
G37*
%LPD*%
%LPC*%
G36*
X527981Y741455D02*
X527981Y741455D01*
X524620Y742847D01*
X522047Y745420D01*
X520655Y748781D01*
X520655Y752419D01*
X522047Y755780D01*
X524620Y758353D01*
X527981Y759745D01*
X531619Y759745D01*
X534980Y758353D01*
X537553Y755780D01*
X538945Y752419D01*
X538945Y748781D01*
X537553Y745420D01*
X534980Y742847D01*
X531619Y741455D01*
X527981Y741455D01*
G37*
%LPD*%
%LPC*%
G36*
X553381Y716055D02*
X553381Y716055D01*
X550020Y717447D01*
X547447Y720020D01*
X546055Y723381D01*
X546055Y727019D01*
X547447Y730380D01*
X550020Y732953D01*
X553381Y734345D01*
X557019Y734345D01*
X560380Y732953D01*
X562953Y730380D01*
X564345Y727019D01*
X564345Y723381D01*
X562953Y720020D01*
X560380Y717447D01*
X557019Y716055D01*
X553381Y716055D01*
G37*
%LPD*%
%LPC*%
G36*
X527981Y716055D02*
X527981Y716055D01*
X524620Y717447D01*
X522047Y720020D01*
X520655Y723381D01*
X520655Y727019D01*
X522047Y730380D01*
X524620Y732953D01*
X527981Y734345D01*
X531619Y734345D01*
X534980Y732953D01*
X537553Y730380D01*
X538945Y727019D01*
X538945Y723381D01*
X537553Y720020D01*
X534980Y717447D01*
X531619Y716055D01*
X527981Y716055D01*
G37*
%LPD*%
%LPC*%
G36*
X553381Y690655D02*
X553381Y690655D01*
X550020Y692047D01*
X547447Y694620D01*
X546055Y697981D01*
X546055Y701619D01*
X547447Y704980D01*
X550020Y707553D01*
X553381Y708945D01*
X557019Y708945D01*
X560380Y707553D01*
X562953Y704980D01*
X564345Y701619D01*
X564345Y697981D01*
X562953Y694620D01*
X560380Y692047D01*
X557019Y690655D01*
X553381Y690655D01*
G37*
%LPD*%
%LPC*%
G36*
X527981Y690655D02*
X527981Y690655D01*
X524620Y692047D01*
X522047Y694620D01*
X520655Y697981D01*
X520655Y701619D01*
X522047Y704980D01*
X524620Y707553D01*
X527981Y708945D01*
X531619Y708945D01*
X534980Y707553D01*
X537553Y704980D01*
X538945Y701619D01*
X538945Y697981D01*
X537553Y694620D01*
X534980Y692047D01*
X531619Y690655D01*
X527981Y690655D01*
G37*
%LPD*%
%LPC*%
G36*
X553381Y665255D02*
X553381Y665255D01*
X550020Y666647D01*
X547447Y669220D01*
X546055Y672581D01*
X546055Y676219D01*
X547447Y679580D01*
X550020Y682153D01*
X553381Y683545D01*
X557019Y683545D01*
X560380Y682153D01*
X562953Y679580D01*
X564345Y676219D01*
X564345Y672581D01*
X562953Y669220D01*
X560380Y666647D01*
X557019Y665255D01*
X553381Y665255D01*
G37*
%LPD*%
%LPC*%
G36*
X527981Y665255D02*
X527981Y665255D01*
X524620Y666647D01*
X522047Y669220D01*
X520655Y672581D01*
X520655Y676219D01*
X522047Y679580D01*
X524620Y682153D01*
X527981Y683545D01*
X531619Y683545D01*
X534980Y682153D01*
X537553Y679580D01*
X538945Y676219D01*
X538945Y672581D01*
X537553Y669220D01*
X534980Y666647D01*
X531619Y665255D01*
X527981Y665255D01*
G37*
%LPD*%
%LPC*%
G36*
X23181Y651255D02*
X23181Y651255D01*
X19820Y652647D01*
X17247Y655220D01*
X15855Y658581D01*
X15855Y662219D01*
X17247Y665580D01*
X19820Y668153D01*
X23181Y669545D01*
X26819Y669545D01*
X30180Y668153D01*
X32753Y665580D01*
X34145Y662219D01*
X34145Y658581D01*
X32753Y655220D01*
X30180Y652647D01*
X26819Y651255D01*
X23181Y651255D01*
G37*
%LPD*%
%LPC*%
G36*
X553381Y639855D02*
X553381Y639855D01*
X550020Y641247D01*
X547447Y643820D01*
X546055Y647181D01*
X546055Y650819D01*
X547447Y654180D01*
X550020Y656753D01*
X553381Y658145D01*
X557019Y658145D01*
X560380Y656753D01*
X562953Y654180D01*
X564345Y650819D01*
X564345Y647181D01*
X562953Y643820D01*
X560380Y641247D01*
X557019Y639855D01*
X553381Y639855D01*
G37*
%LPD*%
%LPC*%
G36*
X527981Y639855D02*
X527981Y639855D01*
X524620Y641247D01*
X522047Y643820D01*
X520655Y647181D01*
X520655Y650819D01*
X522047Y654180D01*
X524620Y656753D01*
X527981Y658145D01*
X531619Y658145D01*
X534980Y656753D01*
X537553Y654180D01*
X538945Y650819D01*
X538945Y647181D01*
X537553Y643820D01*
X534980Y641247D01*
X531619Y639855D01*
X527981Y639855D01*
G37*
%LPD*%
%LPC*%
G36*
X1733181Y631255D02*
X1733181Y631255D01*
X1729820Y632647D01*
X1727247Y635220D01*
X1725855Y638581D01*
X1725855Y642219D01*
X1727247Y645580D01*
X1729820Y648153D01*
X1733181Y649545D01*
X1736819Y649545D01*
X1740180Y648153D01*
X1742753Y645580D01*
X1744145Y642219D01*
X1744145Y638581D01*
X1742753Y635220D01*
X1740180Y632647D01*
X1736819Y631255D01*
X1733181Y631255D01*
G37*
%LPD*%
%LPC*%
G36*
X23181Y625855D02*
X23181Y625855D01*
X19820Y627247D01*
X17247Y629820D01*
X15855Y633181D01*
X15855Y636819D01*
X17247Y640180D01*
X19820Y642753D01*
X23181Y644145D01*
X26819Y644145D01*
X30180Y642753D01*
X32753Y640180D01*
X34145Y636819D01*
X34145Y633181D01*
X32753Y629820D01*
X30180Y627247D01*
X26819Y625855D01*
X23181Y625855D01*
G37*
%LPD*%
%LPC*%
G36*
X553381Y614455D02*
X553381Y614455D01*
X550020Y615847D01*
X547447Y618420D01*
X546055Y621781D01*
X546055Y625419D01*
X547447Y628780D01*
X550020Y631353D01*
X553381Y632745D01*
X557019Y632745D01*
X560380Y631353D01*
X562953Y628780D01*
X564345Y625419D01*
X564345Y621781D01*
X562953Y618420D01*
X560380Y615847D01*
X557019Y614455D01*
X553381Y614455D01*
G37*
%LPD*%
%LPC*%
G36*
X527981Y614455D02*
X527981Y614455D01*
X524620Y615847D01*
X522047Y618420D01*
X520655Y621781D01*
X520655Y625419D01*
X522047Y628780D01*
X524620Y631353D01*
X527981Y632745D01*
X531619Y632745D01*
X534980Y631353D01*
X537553Y628780D01*
X538945Y625419D01*
X538945Y621781D01*
X537553Y618420D01*
X534980Y615847D01*
X531619Y614455D01*
X527981Y614455D01*
G37*
%LPD*%
%LPC*%
G36*
X1733181Y605855D02*
X1733181Y605855D01*
X1729820Y607247D01*
X1727247Y609820D01*
X1725855Y613181D01*
X1725855Y616819D01*
X1727247Y620180D01*
X1729820Y622753D01*
X1733181Y624145D01*
X1736819Y624145D01*
X1740180Y622753D01*
X1742753Y620180D01*
X1744145Y616819D01*
X1744145Y613181D01*
X1742753Y609820D01*
X1740180Y607247D01*
X1736819Y605855D01*
X1733181Y605855D01*
G37*
%LPD*%
%LPC*%
G36*
X23181Y600455D02*
X23181Y600455D01*
X19820Y601847D01*
X17247Y604420D01*
X15855Y607781D01*
X15855Y611419D01*
X17247Y614780D01*
X19820Y617353D01*
X23181Y618745D01*
X26819Y618745D01*
X30180Y617353D01*
X32753Y614780D01*
X34145Y611419D01*
X34145Y607781D01*
X32753Y604420D01*
X30180Y601847D01*
X26819Y600455D01*
X23181Y600455D01*
G37*
%LPD*%
%LPC*%
G36*
X553381Y589055D02*
X553381Y589055D01*
X550020Y590447D01*
X547447Y593020D01*
X546055Y596381D01*
X546055Y600019D01*
X547447Y603380D01*
X550020Y605953D01*
X553381Y607345D01*
X557019Y607345D01*
X560380Y605953D01*
X562953Y603380D01*
X564345Y600019D01*
X564345Y596381D01*
X562953Y593020D01*
X560380Y590447D01*
X557019Y589055D01*
X553381Y589055D01*
G37*
%LPD*%
%LPC*%
G36*
X527981Y589055D02*
X527981Y589055D01*
X524620Y590447D01*
X522047Y593020D01*
X520655Y596381D01*
X520655Y600019D01*
X522047Y603380D01*
X524620Y605953D01*
X527981Y607345D01*
X531619Y607345D01*
X534980Y605953D01*
X537553Y603380D01*
X538945Y600019D01*
X538945Y596381D01*
X537553Y593020D01*
X534980Y590447D01*
X531619Y589055D01*
X527981Y589055D01*
G37*
%LPD*%
%LPC*%
G36*
X1733181Y580455D02*
X1733181Y580455D01*
X1729820Y581847D01*
X1727247Y584420D01*
X1725855Y587781D01*
X1725855Y591419D01*
X1727247Y594780D01*
X1729820Y597353D01*
X1733181Y598745D01*
X1736819Y598745D01*
X1740180Y597353D01*
X1742753Y594780D01*
X1744145Y591419D01*
X1744145Y587781D01*
X1742753Y584420D01*
X1740180Y581847D01*
X1736819Y580455D01*
X1733181Y580455D01*
G37*
%LPD*%
%LPC*%
G36*
X608181Y576255D02*
X608181Y576255D01*
X604820Y577647D01*
X602247Y580220D01*
X600855Y583581D01*
X600855Y587219D01*
X602247Y590580D01*
X604820Y593153D01*
X608181Y594545D01*
X611819Y594545D01*
X615180Y593153D01*
X617753Y590580D01*
X619145Y587219D01*
X619145Y583581D01*
X617753Y580220D01*
X615180Y577647D01*
X611819Y576255D01*
X608181Y576255D01*
G37*
%LPD*%
%LPC*%
G36*
X553381Y563655D02*
X553381Y563655D01*
X550020Y565047D01*
X547447Y567620D01*
X546055Y570981D01*
X546055Y574619D01*
X547447Y577980D01*
X550020Y580553D01*
X553381Y581945D01*
X557019Y581945D01*
X560380Y580553D01*
X562953Y577980D01*
X564345Y574619D01*
X564345Y570981D01*
X562953Y567620D01*
X560380Y565047D01*
X557019Y563655D01*
X553381Y563655D01*
G37*
%LPD*%
%LPC*%
G36*
X527981Y563655D02*
X527981Y563655D01*
X524620Y565047D01*
X522047Y567620D01*
X520655Y570981D01*
X520655Y574619D01*
X522047Y577980D01*
X524620Y580553D01*
X527981Y581945D01*
X531619Y581945D01*
X534980Y580553D01*
X537553Y577980D01*
X538945Y574619D01*
X538945Y570981D01*
X537553Y567620D01*
X534980Y565047D01*
X531619Y563655D01*
X527981Y563655D01*
G37*
%LPD*%
%LPC*%
G36*
X608181Y550855D02*
X608181Y550855D01*
X604820Y552247D01*
X602247Y554820D01*
X600855Y558181D01*
X600855Y561819D01*
X602247Y565180D01*
X604820Y567753D01*
X608181Y569145D01*
X611819Y569145D01*
X615180Y567753D01*
X617753Y565180D01*
X619145Y561819D01*
X619145Y558181D01*
X617753Y554820D01*
X615180Y552247D01*
X611819Y550855D01*
X608181Y550855D01*
G37*
%LPD*%
%LPC*%
G36*
X959781Y411255D02*
X959781Y411255D01*
X956420Y412647D01*
X953847Y415220D01*
X952455Y418581D01*
X952455Y422219D01*
X953847Y425580D01*
X956420Y428153D01*
X959781Y429545D01*
X963419Y429545D01*
X966780Y428153D01*
X969353Y425580D01*
X970745Y422219D01*
X970745Y418581D01*
X969353Y415220D01*
X966780Y412647D01*
X963419Y411255D01*
X959781Y411255D01*
G37*
%LPD*%
%LPC*%
G36*
X553381Y538255D02*
X553381Y538255D01*
X550020Y539647D01*
X547447Y542220D01*
X546055Y545581D01*
X546055Y549219D01*
X547447Y552580D01*
X550020Y555153D01*
X553381Y556545D01*
X557019Y556545D01*
X560380Y555153D01*
X562953Y552580D01*
X564345Y549219D01*
X564345Y545581D01*
X562953Y542220D01*
X560380Y539647D01*
X557019Y538255D01*
X553381Y538255D01*
G37*
%LPD*%
%LPC*%
G36*
X527981Y538255D02*
X527981Y538255D01*
X524620Y539647D01*
X522047Y542220D01*
X520655Y545581D01*
X520655Y549219D01*
X522047Y552580D01*
X524620Y555153D01*
X527981Y556545D01*
X531619Y556545D01*
X534980Y555153D01*
X537553Y552580D01*
X538945Y549219D01*
X538945Y545581D01*
X537553Y542220D01*
X534980Y539647D01*
X531619Y538255D01*
X527981Y538255D01*
G37*
%LPD*%
%LPC*%
G36*
X608181Y525455D02*
X608181Y525455D01*
X604820Y526847D01*
X602247Y529420D01*
X600855Y532781D01*
X600855Y536419D01*
X602247Y539780D01*
X604820Y542353D01*
X608181Y543745D01*
X611819Y543745D01*
X615180Y542353D01*
X617753Y539780D01*
X619145Y536419D01*
X619145Y532781D01*
X617753Y529420D01*
X615180Y526847D01*
X611819Y525455D01*
X608181Y525455D01*
G37*
%LPD*%
%LPC*%
G36*
X553381Y512855D02*
X553381Y512855D01*
X550020Y514247D01*
X547447Y516820D01*
X546055Y520181D01*
X546055Y523819D01*
X547447Y527180D01*
X550020Y529753D01*
X553381Y531145D01*
X557019Y531145D01*
X560380Y529753D01*
X562953Y527180D01*
X564345Y523819D01*
X564345Y520181D01*
X562953Y516820D01*
X560380Y514247D01*
X557019Y512855D01*
X553381Y512855D01*
G37*
%LPD*%
%LPC*%
G36*
X527981Y512855D02*
X527981Y512855D01*
X524620Y514247D01*
X522047Y516820D01*
X520655Y520181D01*
X520655Y523819D01*
X522047Y527180D01*
X524620Y529753D01*
X527981Y531145D01*
X531619Y531145D01*
X534980Y529753D01*
X537553Y527180D01*
X538945Y523819D01*
X538945Y520181D01*
X537553Y516820D01*
X534980Y514247D01*
X531619Y512855D01*
X527981Y512855D01*
G37*
%LPD*%
%LPC*%
G36*
X553381Y487455D02*
X553381Y487455D01*
X550020Y488847D01*
X547447Y491420D01*
X546055Y494781D01*
X546055Y498419D01*
X547447Y501780D01*
X550020Y504353D01*
X553381Y505745D01*
X557019Y505745D01*
X560380Y504353D01*
X562953Y501780D01*
X564345Y498419D01*
X564345Y494781D01*
X562953Y491420D01*
X560380Y488847D01*
X557019Y487455D01*
X553381Y487455D01*
G37*
%LPD*%
%LPC*%
G36*
X527981Y487455D02*
X527981Y487455D01*
X524620Y488847D01*
X522047Y491420D01*
X520655Y494781D01*
X520655Y498419D01*
X522047Y501780D01*
X524620Y504353D01*
X527981Y505745D01*
X531619Y505745D01*
X534980Y504353D01*
X537553Y501780D01*
X538945Y498419D01*
X538945Y494781D01*
X537553Y491420D01*
X534980Y488847D01*
X531619Y487455D01*
X527981Y487455D01*
G37*
%LPD*%
%LPC*%
G36*
X553381Y462055D02*
X553381Y462055D01*
X550020Y463447D01*
X547447Y466020D01*
X546055Y469381D01*
X546055Y473019D01*
X547447Y476380D01*
X550020Y478953D01*
X553381Y480345D01*
X557019Y480345D01*
X560380Y478953D01*
X562953Y476380D01*
X564345Y473019D01*
X564345Y469381D01*
X562953Y466020D01*
X560380Y463447D01*
X557019Y462055D01*
X553381Y462055D01*
G37*
%LPD*%
%LPC*%
G36*
X527981Y462055D02*
X527981Y462055D01*
X524620Y463447D01*
X522047Y466020D01*
X520655Y469381D01*
X520655Y473019D01*
X522047Y476380D01*
X524620Y478953D01*
X527981Y480345D01*
X531619Y480345D01*
X534980Y478953D01*
X537553Y476380D01*
X538945Y473019D01*
X538945Y469381D01*
X537553Y466020D01*
X534980Y463447D01*
X531619Y462055D01*
X527981Y462055D01*
G37*
%LPD*%
%LPC*%
G36*
X23181Y416255D02*
X23181Y416255D01*
X19820Y417647D01*
X17247Y420220D01*
X15855Y423581D01*
X15855Y427219D01*
X17247Y430580D01*
X19820Y433153D01*
X23181Y434545D01*
X26819Y434545D01*
X30180Y433153D01*
X32753Y430580D01*
X34145Y427219D01*
X34145Y423581D01*
X32753Y420220D01*
X30180Y417647D01*
X26819Y416255D01*
X23181Y416255D01*
G37*
%LPD*%
%LPC*%
G36*
X1035981Y411255D02*
X1035981Y411255D01*
X1032620Y412647D01*
X1030047Y415220D01*
X1028655Y418581D01*
X1028655Y422219D01*
X1030047Y425580D01*
X1032620Y428153D01*
X1035981Y429545D01*
X1039619Y429545D01*
X1042980Y428153D01*
X1045553Y425580D01*
X1046945Y422219D01*
X1046945Y418581D01*
X1045553Y415220D01*
X1042980Y412647D01*
X1039619Y411255D01*
X1035981Y411255D01*
G37*
%LPD*%
%LPC*%
G36*
X908981Y411255D02*
X908981Y411255D01*
X905620Y412647D01*
X903047Y415220D01*
X901655Y418581D01*
X901655Y422219D01*
X903047Y425580D01*
X905620Y428153D01*
X908981Y429545D01*
X912619Y429545D01*
X915980Y428153D01*
X918553Y425580D01*
X919945Y422219D01*
X919945Y418581D01*
X918553Y415220D01*
X915980Y412647D01*
X912619Y411255D01*
X908981Y411255D01*
G37*
%LPD*%
%LPC*%
G36*
X934381Y411255D02*
X934381Y411255D01*
X931020Y412647D01*
X928447Y415220D01*
X927055Y418581D01*
X927055Y422219D01*
X928447Y425580D01*
X931020Y428153D01*
X934381Y429545D01*
X938019Y429545D01*
X941380Y428153D01*
X943953Y425580D01*
X945345Y422219D01*
X945345Y418581D01*
X943953Y415220D01*
X941380Y412647D01*
X938019Y411255D01*
X934381Y411255D01*
G37*
%LPD*%
%LPC*%
G36*
X985181Y411255D02*
X985181Y411255D01*
X981820Y412647D01*
X979247Y415220D01*
X977855Y418581D01*
X977855Y422219D01*
X979247Y425580D01*
X981820Y428153D01*
X985181Y429545D01*
X988819Y429545D01*
X992180Y428153D01*
X994753Y425580D01*
X996145Y422219D01*
X996145Y418581D01*
X994753Y415220D01*
X992180Y412647D01*
X988819Y411255D01*
X985181Y411255D01*
G37*
%LPD*%
%LPC*%
G36*
X883581Y411255D02*
X883581Y411255D01*
X880220Y412647D01*
X877647Y415220D01*
X876255Y418581D01*
X876255Y422219D01*
X877647Y425580D01*
X880220Y428153D01*
X883581Y429545D01*
X887219Y429545D01*
X890580Y428153D01*
X893153Y425580D01*
X894545Y422219D01*
X894545Y418581D01*
X893153Y415220D01*
X890580Y412647D01*
X887219Y411255D01*
X883581Y411255D01*
G37*
%LPD*%
%LPC*%
G36*
X756581Y411255D02*
X756581Y411255D01*
X753220Y412647D01*
X750647Y415220D01*
X749255Y418581D01*
X749255Y422219D01*
X750647Y425580D01*
X753220Y428153D01*
X756581Y429545D01*
X760219Y429545D01*
X763580Y428153D01*
X766153Y425580D01*
X767545Y422219D01*
X767545Y418581D01*
X766153Y415220D01*
X763580Y412647D01*
X760219Y411255D01*
X756581Y411255D01*
G37*
%LPD*%
%LPC*%
G36*
X807381Y411255D02*
X807381Y411255D01*
X804020Y412647D01*
X801447Y415220D01*
X800055Y418581D01*
X800055Y422219D01*
X801447Y425580D01*
X804020Y428153D01*
X807381Y429545D01*
X811019Y429545D01*
X814380Y428153D01*
X816953Y425580D01*
X818345Y422219D01*
X818345Y418581D01*
X816953Y415220D01*
X814380Y412647D01*
X811019Y411255D01*
X807381Y411255D01*
G37*
%LPD*%
%LPC*%
G36*
X832781Y411255D02*
X832781Y411255D01*
X829420Y412647D01*
X826847Y415220D01*
X825455Y418581D01*
X825455Y422219D01*
X826847Y425580D01*
X829420Y428153D01*
X832781Y429545D01*
X836419Y429545D01*
X839780Y428153D01*
X842353Y425580D01*
X843745Y422219D01*
X843745Y418581D01*
X842353Y415220D01*
X839780Y412647D01*
X836419Y411255D01*
X832781Y411255D01*
G37*
%LPD*%
%LPC*%
G36*
X858181Y411255D02*
X858181Y411255D01*
X854820Y412647D01*
X852247Y415220D01*
X850855Y418581D01*
X850855Y422219D01*
X852247Y425580D01*
X854820Y428153D01*
X858181Y429545D01*
X861819Y429545D01*
X865180Y428153D01*
X867753Y425580D01*
X869145Y422219D01*
X869145Y418581D01*
X867753Y415220D01*
X865180Y412647D01*
X861819Y411255D01*
X858181Y411255D01*
G37*
%LPD*%
%LPC*%
G36*
X1162981Y411255D02*
X1162981Y411255D01*
X1159620Y412647D01*
X1157047Y415220D01*
X1155655Y418581D01*
X1155655Y422219D01*
X1157047Y425580D01*
X1159620Y428153D01*
X1162981Y429545D01*
X1166619Y429545D01*
X1169980Y428153D01*
X1172553Y425580D01*
X1173945Y422219D01*
X1173945Y418581D01*
X1172553Y415220D01*
X1169980Y412647D01*
X1166619Y411255D01*
X1162981Y411255D01*
G37*
%LPD*%
%LPC*%
G36*
X1137581Y411255D02*
X1137581Y411255D01*
X1134220Y412647D01*
X1131647Y415220D01*
X1130255Y418581D01*
X1130255Y422219D01*
X1131647Y425580D01*
X1134220Y428153D01*
X1137581Y429545D01*
X1141219Y429545D01*
X1144580Y428153D01*
X1147153Y425580D01*
X1148545Y422219D01*
X1148545Y418581D01*
X1147153Y415220D01*
X1144580Y412647D01*
X1141219Y411255D01*
X1137581Y411255D01*
G37*
%LPD*%
%LPC*%
G36*
X1086781Y411255D02*
X1086781Y411255D01*
X1083420Y412647D01*
X1080847Y415220D01*
X1079455Y418581D01*
X1079455Y422219D01*
X1080847Y425580D01*
X1083420Y428153D01*
X1086781Y429545D01*
X1090419Y429545D01*
X1093780Y428153D01*
X1096353Y425580D01*
X1097745Y422219D01*
X1097745Y418581D01*
X1096353Y415220D01*
X1093780Y412647D01*
X1090419Y411255D01*
X1086781Y411255D01*
G37*
%LPD*%
%LPC*%
G36*
X1061381Y411255D02*
X1061381Y411255D01*
X1058020Y412647D01*
X1055447Y415220D01*
X1054055Y418581D01*
X1054055Y422219D01*
X1055447Y425580D01*
X1058020Y428153D01*
X1061381Y429545D01*
X1065019Y429545D01*
X1068380Y428153D01*
X1070953Y425580D01*
X1072345Y422219D01*
X1072345Y418581D01*
X1070953Y415220D01*
X1068380Y412647D01*
X1065019Y411255D01*
X1061381Y411255D01*
G37*
%LPD*%
%LPC*%
G36*
X731181Y411255D02*
X731181Y411255D01*
X727820Y412647D01*
X725247Y415220D01*
X723855Y418581D01*
X723855Y422219D01*
X725247Y425580D01*
X727820Y428153D01*
X731181Y429545D01*
X734819Y429545D01*
X738180Y428153D01*
X740753Y425580D01*
X742145Y422219D01*
X742145Y418581D01*
X740753Y415220D01*
X738180Y412647D01*
X734819Y411255D01*
X731181Y411255D01*
G37*
%LPD*%
%LPC*%
G36*
X705781Y411255D02*
X705781Y411255D01*
X702420Y412647D01*
X699847Y415220D01*
X698455Y418581D01*
X698455Y422219D01*
X699847Y425580D01*
X702420Y428153D01*
X705781Y429545D01*
X709419Y429545D01*
X712780Y428153D01*
X715353Y425580D01*
X716745Y422219D01*
X716745Y418581D01*
X715353Y415220D01*
X712780Y412647D01*
X709419Y411255D01*
X705781Y411255D01*
G37*
%LPD*%
%LPC*%
G36*
X680381Y411255D02*
X680381Y411255D01*
X677020Y412647D01*
X674447Y415220D01*
X673055Y418581D01*
X673055Y422219D01*
X674447Y425580D01*
X677020Y428153D01*
X680381Y429545D01*
X684019Y429545D01*
X687380Y428153D01*
X689953Y425580D01*
X691345Y422219D01*
X691345Y418581D01*
X689953Y415220D01*
X687380Y412647D01*
X684019Y411255D01*
X680381Y411255D01*
G37*
%LPD*%
%LPC*%
G36*
X654981Y411255D02*
X654981Y411255D01*
X651620Y412647D01*
X649047Y415220D01*
X647655Y418581D01*
X647655Y422219D01*
X649047Y425580D01*
X651620Y428153D01*
X654981Y429545D01*
X658619Y429545D01*
X661980Y428153D01*
X664553Y425580D01*
X665945Y422219D01*
X665945Y418581D01*
X664553Y415220D01*
X661980Y412647D01*
X658619Y411255D01*
X654981Y411255D01*
G37*
%LPD*%
%LPC*%
G36*
X629581Y411255D02*
X629581Y411255D01*
X626220Y412647D01*
X623647Y415220D01*
X622255Y418581D01*
X622255Y422219D01*
X623647Y425580D01*
X626220Y428153D01*
X629581Y429545D01*
X633219Y429545D01*
X636580Y428153D01*
X639153Y425580D01*
X640545Y422219D01*
X640545Y418581D01*
X639153Y415220D01*
X636580Y412647D01*
X633219Y411255D01*
X629581Y411255D01*
G37*
%LPD*%
%LPC*%
G36*
X604181Y411255D02*
X604181Y411255D01*
X600820Y412647D01*
X598247Y415220D01*
X596855Y418581D01*
X596855Y422219D01*
X598247Y425580D01*
X600820Y428153D01*
X604181Y429545D01*
X607819Y429545D01*
X611180Y428153D01*
X613753Y425580D01*
X615145Y422219D01*
X615145Y418581D01*
X613753Y415220D01*
X611180Y412647D01*
X607819Y411255D01*
X604181Y411255D01*
G37*
%LPD*%
%LPC*%
G36*
X578781Y411255D02*
X578781Y411255D01*
X575420Y412647D01*
X572847Y415220D01*
X571455Y418581D01*
X571455Y422219D01*
X572847Y425580D01*
X575420Y428153D01*
X578781Y429545D01*
X582419Y429545D01*
X585780Y428153D01*
X588353Y425580D01*
X589745Y422219D01*
X589745Y418581D01*
X588353Y415220D01*
X585780Y412647D01*
X582419Y411255D01*
X578781Y411255D01*
G37*
%LPD*%
%LPC*%
G36*
X1733181Y401255D02*
X1733181Y401255D01*
X1729820Y402647D01*
X1727247Y405220D01*
X1725855Y408581D01*
X1725855Y412219D01*
X1727247Y415580D01*
X1729820Y418153D01*
X1733181Y419545D01*
X1736819Y419545D01*
X1740180Y418153D01*
X1742753Y415580D01*
X1744145Y412219D01*
X1744145Y408581D01*
X1742753Y405220D01*
X1740180Y402647D01*
X1736819Y401255D01*
X1733181Y401255D01*
G37*
%LPD*%
%LPC*%
G36*
X23181Y390855D02*
X23181Y390855D01*
X19820Y392247D01*
X17247Y394820D01*
X15855Y398181D01*
X15855Y401819D01*
X17247Y405180D01*
X19820Y407753D01*
X23181Y409145D01*
X26819Y409145D01*
X30180Y407753D01*
X32753Y405180D01*
X34145Y401819D01*
X34145Y398181D01*
X32753Y394820D01*
X30180Y392247D01*
X26819Y390855D01*
X23181Y390855D01*
G37*
%LPD*%
%LPC*%
G36*
X1733181Y375855D02*
X1733181Y375855D01*
X1729820Y377247D01*
X1727247Y379820D01*
X1725855Y383181D01*
X1725855Y386819D01*
X1727247Y390180D01*
X1729820Y392753D01*
X1733181Y394145D01*
X1736819Y394145D01*
X1740180Y392753D01*
X1742753Y390180D01*
X1744145Y386819D01*
X1744145Y383181D01*
X1742753Y379820D01*
X1740180Y377247D01*
X1736819Y375855D01*
X1733181Y375855D01*
G37*
%LPD*%
%LPC*%
G36*
X23181Y365455D02*
X23181Y365455D01*
X19820Y366847D01*
X17247Y369420D01*
X15855Y372781D01*
X15855Y376419D01*
X17247Y379780D01*
X19820Y382353D01*
X23181Y383745D01*
X26819Y383745D01*
X30180Y382353D01*
X32753Y379780D01*
X34145Y376419D01*
X34145Y372781D01*
X32753Y369420D01*
X30180Y366847D01*
X26819Y365455D01*
X23181Y365455D01*
G37*
%LPD*%
%LPC*%
G36*
X1733181Y350455D02*
X1733181Y350455D01*
X1729820Y351847D01*
X1727247Y354420D01*
X1725855Y357781D01*
X1725855Y361419D01*
X1727247Y364780D01*
X1729820Y367353D01*
X1733181Y368745D01*
X1736819Y368745D01*
X1740180Y367353D01*
X1742753Y364780D01*
X1744145Y361419D01*
X1744145Y357781D01*
X1742753Y354420D01*
X1740180Y351847D01*
X1736819Y350455D01*
X1733181Y350455D01*
G37*
%LPD*%
%LPC*%
G36*
X1099481Y893855D02*
X1099481Y893855D01*
X1096120Y895247D01*
X1093547Y897820D01*
X1092155Y901181D01*
X1092155Y904819D01*
X1093547Y908180D01*
X1096120Y910753D01*
X1099481Y912145D01*
X1103119Y912145D01*
X1106480Y910753D01*
X1109053Y908180D01*
X1110445Y904819D01*
X1110445Y901181D01*
X1109053Y897820D01*
X1106480Y895247D01*
X1103119Y893855D01*
X1099481Y893855D01*
G37*
%LPD*%
%LPC*%
G36*
X1074081Y893855D02*
X1074081Y893855D01*
X1070720Y895247D01*
X1068147Y897820D01*
X1066755Y901181D01*
X1066755Y904819D01*
X1068147Y908180D01*
X1070720Y910753D01*
X1074081Y912145D01*
X1077719Y912145D01*
X1081080Y910753D01*
X1083653Y908180D01*
X1085045Y904819D01*
X1085045Y901181D01*
X1083653Y897820D01*
X1081080Y895247D01*
X1077719Y893855D01*
X1074081Y893855D01*
G37*
%LPD*%
%LPC*%
G36*
X1035981Y893855D02*
X1035981Y893855D01*
X1032620Y895247D01*
X1030047Y897820D01*
X1028655Y901181D01*
X1028655Y904819D01*
X1030047Y908180D01*
X1032620Y910753D01*
X1035981Y912145D01*
X1039619Y912145D01*
X1042980Y910753D01*
X1045553Y908180D01*
X1046945Y904819D01*
X1046945Y901181D01*
X1045553Y897820D01*
X1042980Y895247D01*
X1039619Y893855D01*
X1035981Y893855D01*
G37*
%LPD*%
%LPC*%
G36*
X23181Y181255D02*
X23181Y181255D01*
X19820Y182647D01*
X17247Y185220D01*
X15855Y188581D01*
X15855Y192219D01*
X17247Y195580D01*
X19820Y198153D01*
X23181Y199545D01*
X26819Y199545D01*
X30180Y198153D01*
X32753Y195580D01*
X34145Y192219D01*
X34145Y188581D01*
X32753Y185220D01*
X30180Y182647D01*
X26819Y181255D01*
X23181Y181255D01*
G37*
%LPD*%
%LPC*%
G36*
X1010581Y893855D02*
X1010581Y893855D01*
X1007220Y895247D01*
X1004647Y897820D01*
X1003255Y901181D01*
X1003255Y904819D01*
X1004647Y908180D01*
X1007220Y910753D01*
X1010581Y912145D01*
X1014219Y912145D01*
X1017580Y910753D01*
X1020153Y908180D01*
X1021545Y904819D01*
X1021545Y901181D01*
X1020153Y897820D01*
X1017580Y895247D01*
X1014219Y893855D01*
X1010581Y893855D01*
G37*
%LPD*%
%LPC*%
G36*
X985181Y893855D02*
X985181Y893855D01*
X981820Y895247D01*
X979247Y897820D01*
X977855Y901181D01*
X977855Y904819D01*
X979247Y908180D01*
X981820Y910753D01*
X985181Y912145D01*
X988819Y912145D01*
X992180Y910753D01*
X994753Y908180D01*
X996145Y904819D01*
X996145Y901181D01*
X994753Y897820D01*
X992180Y895247D01*
X988819Y893855D01*
X985181Y893855D01*
G37*
%LPD*%
%LPC*%
G36*
X23181Y155855D02*
X23181Y155855D01*
X19820Y157247D01*
X17247Y159820D01*
X15855Y163181D01*
X15855Y166819D01*
X17247Y170180D01*
X19820Y172753D01*
X23181Y174145D01*
X26819Y174145D01*
X30180Y172753D01*
X32753Y170180D01*
X34145Y166819D01*
X34145Y163181D01*
X32753Y159820D01*
X30180Y157247D01*
X26819Y155855D01*
X23181Y155855D01*
G37*
%LPD*%
%LPC*%
G36*
X959781Y893855D02*
X959781Y893855D01*
X956420Y895247D01*
X953847Y897820D01*
X952455Y901181D01*
X952455Y904819D01*
X953847Y908180D01*
X956420Y910753D01*
X959781Y912145D01*
X963419Y912145D01*
X966780Y910753D01*
X969353Y908180D01*
X970745Y904819D01*
X970745Y901181D01*
X969353Y897820D01*
X966780Y895247D01*
X963419Y893855D01*
X959781Y893855D01*
G37*
%LPD*%
%LPC*%
G36*
X1733181Y141255D02*
X1733181Y141255D01*
X1729820Y142647D01*
X1727247Y145220D01*
X1725855Y148581D01*
X1725855Y152219D01*
X1727247Y155580D01*
X1729820Y158153D01*
X1733181Y159545D01*
X1736819Y159545D01*
X1740180Y158153D01*
X1742753Y155580D01*
X1744145Y152219D01*
X1744145Y148581D01*
X1742753Y145220D01*
X1740180Y142647D01*
X1736819Y141255D01*
X1733181Y141255D01*
G37*
%LPD*%
%LPC*%
G36*
X23181Y130455D02*
X23181Y130455D01*
X19820Y131847D01*
X17247Y134420D01*
X15855Y137781D01*
X15855Y141419D01*
X17247Y144780D01*
X19820Y147353D01*
X23181Y148745D01*
X26819Y148745D01*
X30180Y147353D01*
X32753Y144780D01*
X34145Y141419D01*
X34145Y137781D01*
X32753Y134420D01*
X30180Y131847D01*
X26819Y130455D01*
X23181Y130455D01*
G37*
%LPD*%
%LPC*%
G36*
X934381Y893855D02*
X934381Y893855D01*
X931020Y895247D01*
X928447Y897820D01*
X927055Y901181D01*
X927055Y904819D01*
X928447Y908180D01*
X931020Y910753D01*
X934381Y912145D01*
X938019Y912145D01*
X941380Y910753D01*
X943953Y908180D01*
X945345Y904819D01*
X945345Y901181D01*
X943953Y897820D01*
X941380Y895247D01*
X938019Y893855D01*
X934381Y893855D01*
G37*
%LPD*%
%LPC*%
G36*
X1733181Y115855D02*
X1733181Y115855D01*
X1729820Y117247D01*
X1727247Y119820D01*
X1725855Y123181D01*
X1725855Y126819D01*
X1727247Y130180D01*
X1729820Y132753D01*
X1733181Y134145D01*
X1736819Y134145D01*
X1740180Y132753D01*
X1742753Y130180D01*
X1744145Y126819D01*
X1744145Y123181D01*
X1742753Y119820D01*
X1740180Y117247D01*
X1736819Y115855D01*
X1733181Y115855D01*
G37*
%LPD*%
%LPC*%
G36*
X908981Y893855D02*
X908981Y893855D01*
X905620Y895247D01*
X903047Y897820D01*
X901655Y901181D01*
X901655Y904819D01*
X903047Y908180D01*
X905620Y910753D01*
X908981Y912145D01*
X912619Y912145D01*
X915980Y910753D01*
X918553Y908180D01*
X919945Y904819D01*
X919945Y901181D01*
X918553Y897820D01*
X915980Y895247D01*
X912619Y893855D01*
X908981Y893855D01*
G37*
%LPD*%
%LPC*%
G36*
X883581Y893855D02*
X883581Y893855D01*
X880220Y895247D01*
X877647Y897820D01*
X876255Y901181D01*
X876255Y904819D01*
X877647Y908180D01*
X880220Y910753D01*
X883581Y912145D01*
X887219Y912145D01*
X890580Y910753D01*
X893153Y908180D01*
X894545Y904819D01*
X894545Y901181D01*
X893153Y897820D01*
X890580Y895247D01*
X887219Y893855D01*
X883581Y893855D01*
G37*
%LPD*%
%LPC*%
G36*
X1733181Y90455D02*
X1733181Y90455D01*
X1729820Y91847D01*
X1727247Y94420D01*
X1725855Y97781D01*
X1725855Y101419D01*
X1727247Y104780D01*
X1729820Y107353D01*
X1733181Y108745D01*
X1736819Y108745D01*
X1740180Y107353D01*
X1742753Y104780D01*
X1744145Y101419D01*
X1744145Y97781D01*
X1742753Y94420D01*
X1740180Y91847D01*
X1736819Y90455D01*
X1733181Y90455D01*
G37*
%LPD*%
%LPC*%
G36*
X858181Y893855D02*
X858181Y893855D01*
X854820Y895247D01*
X852247Y897820D01*
X850855Y901181D01*
X850855Y904819D01*
X852247Y908180D01*
X854820Y910753D01*
X858181Y912145D01*
X861819Y912145D01*
X865180Y910753D01*
X867753Y908180D01*
X869145Y904819D01*
X869145Y901181D01*
X867753Y897820D01*
X865180Y895247D01*
X861819Y893855D01*
X858181Y893855D01*
G37*
%LPD*%
%LPC*%
G36*
X807381Y893855D02*
X807381Y893855D01*
X804020Y895247D01*
X801447Y897820D01*
X800055Y901181D01*
X800055Y904819D01*
X801447Y908180D01*
X804020Y910753D01*
X807381Y912145D01*
X811019Y912145D01*
X814380Y910753D01*
X816953Y908180D01*
X818345Y904819D01*
X818345Y901181D01*
X816953Y897820D01*
X814380Y895247D01*
X811019Y893855D01*
X807381Y893855D01*
G37*
%LPD*%
%LPC*%
G36*
X677944Y64693D02*
X677944Y64693D01*
X675994Y65501D01*
X674501Y66994D01*
X673693Y68944D01*
X673693Y71056D01*
X674501Y73006D01*
X675774Y74279D01*
X675804Y74318D01*
X675841Y74351D01*
X675901Y74443D01*
X675969Y74530D01*
X675988Y74575D01*
X676016Y74617D01*
X676051Y74721D01*
X676095Y74822D01*
X676103Y74871D01*
X676119Y74918D01*
X676128Y75027D01*
X676145Y75136D01*
X676140Y75185D01*
X676144Y75235D01*
X676125Y75343D01*
X676115Y75452D01*
X676098Y75499D01*
X676090Y75548D01*
X676045Y75648D01*
X676007Y75752D01*
X675980Y75793D01*
X675959Y75838D01*
X675891Y75924D01*
X675829Y76015D01*
X675792Y76048D01*
X675761Y76087D01*
X675673Y76153D01*
X675590Y76225D01*
X675546Y76248D01*
X675506Y76278D01*
X675362Y76349D01*
X674994Y76501D01*
X673501Y77994D01*
X672693Y79944D01*
X672693Y82056D01*
X673501Y84006D01*
X674994Y85499D01*
X676944Y86307D01*
X679056Y86307D01*
X681006Y85499D01*
X682499Y84006D01*
X683307Y82056D01*
X683307Y79944D01*
X682499Y77994D01*
X681226Y76721D01*
X681196Y76682D01*
X681159Y76649D01*
X681099Y76557D01*
X681031Y76470D01*
X681012Y76425D01*
X680984Y76383D01*
X680949Y76279D01*
X680905Y76178D01*
X680897Y76129D01*
X680881Y76082D01*
X680872Y75973D01*
X680855Y75864D01*
X680860Y75815D01*
X680856Y75765D01*
X680875Y75657D01*
X680885Y75548D01*
X680902Y75501D01*
X680910Y75452D01*
X680955Y75352D01*
X680993Y75248D01*
X681020Y75207D01*
X681041Y75162D01*
X681109Y75076D01*
X681171Y74985D01*
X681208Y74952D01*
X681239Y74913D01*
X681327Y74847D01*
X681410Y74775D01*
X681454Y74752D01*
X681494Y74722D01*
X681638Y74651D01*
X682006Y74499D01*
X683499Y73006D01*
X684307Y71056D01*
X684307Y68944D01*
X683499Y66994D01*
X682006Y65501D01*
X680056Y64693D01*
X677944Y64693D01*
G37*
%LPD*%
%LPC*%
G36*
X793944Y130693D02*
X793944Y130693D01*
X791994Y131501D01*
X790501Y132994D01*
X789693Y134944D01*
X789693Y137056D01*
X790501Y139006D01*
X791994Y140499D01*
X793944Y141307D01*
X796056Y141307D01*
X798006Y140499D01*
X799499Y139006D01*
X800327Y137006D01*
X800396Y136885D01*
X800461Y136762D01*
X800475Y136747D01*
X800485Y136729D01*
X800582Y136630D01*
X800675Y136527D01*
X800692Y136516D01*
X800706Y136501D01*
X800825Y136428D01*
X800941Y136352D01*
X800960Y136345D01*
X800977Y136335D01*
X801110Y136294D01*
X801242Y136249D01*
X801262Y136247D01*
X801281Y136241D01*
X801420Y136235D01*
X801559Y136224D01*
X801579Y136227D01*
X801599Y136226D01*
X801735Y136254D01*
X801872Y136278D01*
X801891Y136286D01*
X801910Y136290D01*
X802036Y136352D01*
X802162Y136409D01*
X802178Y136421D01*
X802196Y136430D01*
X802302Y136520D01*
X802410Y136607D01*
X802423Y136623D01*
X802438Y136636D01*
X802518Y136750D01*
X802602Y136861D01*
X802614Y136886D01*
X802621Y136896D01*
X802628Y136916D01*
X802673Y137006D01*
X803501Y139006D01*
X804994Y140499D01*
X806944Y141307D01*
X809056Y141307D01*
X811006Y140499D01*
X812499Y139006D01*
X813307Y137056D01*
X813307Y134944D01*
X812499Y132994D01*
X811006Y131501D01*
X809056Y130693D01*
X806944Y130693D01*
X804994Y131501D01*
X803501Y132994D01*
X802673Y134994D01*
X802604Y135115D01*
X802539Y135238D01*
X802525Y135253D01*
X802515Y135271D01*
X802418Y135370D01*
X802325Y135473D01*
X802308Y135484D01*
X802294Y135499D01*
X802176Y135571D01*
X802059Y135648D01*
X802040Y135655D01*
X802023Y135665D01*
X801890Y135706D01*
X801758Y135751D01*
X801738Y135753D01*
X801719Y135759D01*
X801580Y135765D01*
X801441Y135776D01*
X801421Y135773D01*
X801401Y135774D01*
X801265Y135746D01*
X801128Y135722D01*
X801109Y135714D01*
X801090Y135710D01*
X800965Y135649D01*
X800838Y135591D01*
X800822Y135579D01*
X800804Y135570D01*
X800698Y135480D01*
X800590Y135393D01*
X800577Y135377D01*
X800562Y135364D01*
X800482Y135250D01*
X800398Y135139D01*
X800386Y135114D01*
X800379Y135104D01*
X800372Y135084D01*
X800327Y134994D01*
X799499Y132994D01*
X798006Y131501D01*
X796056Y130693D01*
X793944Y130693D01*
G37*
%LPD*%
%LPC*%
G36*
X963944Y127693D02*
X963944Y127693D01*
X961994Y128501D01*
X960501Y129994D01*
X959693Y131944D01*
X959693Y134056D01*
X960501Y136006D01*
X961994Y137499D01*
X963944Y138307D01*
X966056Y138307D01*
X968006Y137499D01*
X969499Y136006D01*
X970327Y134006D01*
X970396Y133885D01*
X970461Y133762D01*
X970475Y133747D01*
X970485Y133729D01*
X970582Y133630D01*
X970675Y133527D01*
X970692Y133516D01*
X970706Y133501D01*
X970825Y133428D01*
X970941Y133352D01*
X970960Y133345D01*
X970977Y133335D01*
X971110Y133294D01*
X971242Y133249D01*
X971262Y133247D01*
X971281Y133241D01*
X971420Y133235D01*
X971559Y133224D01*
X971579Y133227D01*
X971599Y133226D01*
X971735Y133254D01*
X971872Y133278D01*
X971891Y133286D01*
X971910Y133290D01*
X972036Y133352D01*
X972162Y133409D01*
X972178Y133421D01*
X972196Y133430D01*
X972302Y133520D01*
X972410Y133607D01*
X972423Y133623D01*
X972438Y133636D01*
X972518Y133750D01*
X972602Y133861D01*
X972614Y133886D01*
X972621Y133896D01*
X972628Y133916D01*
X972673Y134006D01*
X973501Y136006D01*
X974994Y137499D01*
X976944Y138307D01*
X979056Y138307D01*
X981006Y137499D01*
X982499Y136006D01*
X983307Y134056D01*
X983307Y131944D01*
X982499Y129994D01*
X981006Y128501D01*
X979056Y127693D01*
X976944Y127693D01*
X974994Y128501D01*
X973501Y129994D01*
X972673Y131994D01*
X972604Y132115D01*
X972539Y132238D01*
X972525Y132253D01*
X972515Y132271D01*
X972418Y132370D01*
X972325Y132473D01*
X972308Y132484D01*
X972294Y132499D01*
X972176Y132571D01*
X972059Y132648D01*
X972040Y132655D01*
X972023Y132665D01*
X971890Y132706D01*
X971758Y132751D01*
X971738Y132753D01*
X971719Y132759D01*
X971580Y132765D01*
X971441Y132776D01*
X971421Y132773D01*
X971401Y132774D01*
X971265Y132746D01*
X971128Y132722D01*
X971109Y132714D01*
X971090Y132710D01*
X970965Y132649D01*
X970838Y132591D01*
X970822Y132579D01*
X970804Y132570D01*
X970698Y132480D01*
X970590Y132393D01*
X970577Y132377D01*
X970562Y132364D01*
X970482Y132250D01*
X970398Y132139D01*
X970386Y132114D01*
X970379Y132104D01*
X970372Y132084D01*
X970327Y131994D01*
X969499Y129994D01*
X968006Y128501D01*
X966056Y127693D01*
X963944Y127693D01*
G37*
%LPD*%
%LPC*%
G36*
X793944Y208693D02*
X793944Y208693D01*
X791994Y209501D01*
X790501Y210994D01*
X789693Y212944D01*
X789693Y215056D01*
X790501Y217006D01*
X791994Y218499D01*
X793944Y219307D01*
X796056Y219307D01*
X798006Y218499D01*
X799499Y217006D01*
X800327Y215006D01*
X800396Y214885D01*
X800461Y214762D01*
X800475Y214747D01*
X800485Y214729D01*
X800582Y214630D01*
X800675Y214527D01*
X800692Y214516D01*
X800706Y214501D01*
X800825Y214428D01*
X800941Y214352D01*
X800960Y214345D01*
X800977Y214335D01*
X801110Y214294D01*
X801242Y214249D01*
X801262Y214247D01*
X801281Y214241D01*
X801420Y214235D01*
X801559Y214224D01*
X801579Y214227D01*
X801599Y214226D01*
X801735Y214254D01*
X801872Y214278D01*
X801891Y214286D01*
X801910Y214290D01*
X802036Y214352D01*
X802162Y214409D01*
X802178Y214421D01*
X802196Y214430D01*
X802302Y214520D01*
X802410Y214607D01*
X802423Y214623D01*
X802438Y214636D01*
X802518Y214750D01*
X802602Y214861D01*
X802614Y214886D01*
X802621Y214896D01*
X802628Y214916D01*
X802673Y215006D01*
X803501Y217006D01*
X804994Y218499D01*
X806944Y219307D01*
X809056Y219307D01*
X811006Y218499D01*
X812499Y217006D01*
X813307Y215056D01*
X813307Y212944D01*
X812499Y210994D01*
X811006Y209501D01*
X809056Y208693D01*
X806944Y208693D01*
X804994Y209501D01*
X803501Y210994D01*
X802673Y212994D01*
X802604Y213115D01*
X802539Y213238D01*
X802525Y213253D01*
X802515Y213271D01*
X802418Y213370D01*
X802325Y213473D01*
X802308Y213484D01*
X802294Y213499D01*
X802176Y213571D01*
X802059Y213648D01*
X802040Y213655D01*
X802023Y213665D01*
X801890Y213706D01*
X801758Y213751D01*
X801738Y213753D01*
X801719Y213759D01*
X801580Y213765D01*
X801441Y213776D01*
X801421Y213773D01*
X801401Y213774D01*
X801265Y213746D01*
X801128Y213722D01*
X801109Y213714D01*
X801090Y213710D01*
X800965Y213649D01*
X800838Y213591D01*
X800822Y213579D01*
X800804Y213570D01*
X800698Y213480D01*
X800590Y213393D01*
X800577Y213377D01*
X800562Y213364D01*
X800482Y213250D01*
X800398Y213139D01*
X800386Y213114D01*
X800379Y213104D01*
X800372Y213084D01*
X800327Y212994D01*
X799499Y210994D01*
X798006Y209501D01*
X796056Y208693D01*
X793944Y208693D01*
G37*
%LPD*%
%LPC*%
G36*
X1137944Y188693D02*
X1137944Y188693D01*
X1135994Y189501D01*
X1134397Y191098D01*
X1134303Y191171D01*
X1134214Y191249D01*
X1134178Y191268D01*
X1134146Y191293D01*
X1134037Y191340D01*
X1133931Y191394D01*
X1133892Y191403D01*
X1133854Y191419D01*
X1133737Y191438D01*
X1133621Y191464D01*
X1133580Y191462D01*
X1133540Y191469D01*
X1133422Y191458D01*
X1133303Y191454D01*
X1133264Y191443D01*
X1133224Y191439D01*
X1133112Y191399D01*
X1132997Y191366D01*
X1132962Y191345D01*
X1132924Y191331D01*
X1132826Y191265D01*
X1132723Y191204D01*
X1132678Y191164D01*
X1132661Y191153D01*
X1132648Y191137D01*
X1132602Y191098D01*
X1132006Y190501D01*
X1130056Y189693D01*
X1127944Y189693D01*
X1125994Y190501D01*
X1124501Y191994D01*
X1123693Y193944D01*
X1123693Y196056D01*
X1124501Y198006D01*
X1125994Y199499D01*
X1127944Y200307D01*
X1130056Y200307D01*
X1132006Y199499D01*
X1133602Y197902D01*
X1133697Y197829D01*
X1133786Y197751D01*
X1133822Y197732D01*
X1133854Y197707D01*
X1133963Y197660D01*
X1134069Y197606D01*
X1134108Y197597D01*
X1134146Y197581D01*
X1134263Y197562D01*
X1134379Y197536D01*
X1134420Y197538D01*
X1134460Y197531D01*
X1134578Y197542D01*
X1134697Y197546D01*
X1134736Y197557D01*
X1134776Y197561D01*
X1134889Y197601D01*
X1135003Y197634D01*
X1135037Y197655D01*
X1135076Y197669D01*
X1135174Y197735D01*
X1135277Y197796D01*
X1135322Y197836D01*
X1135339Y197847D01*
X1135352Y197862D01*
X1135397Y197902D01*
X1135994Y198499D01*
X1137944Y199307D01*
X1140056Y199307D01*
X1142006Y198499D01*
X1143499Y197006D01*
X1144307Y195056D01*
X1144307Y192944D01*
X1143499Y190994D01*
X1142006Y189501D01*
X1140056Y188693D01*
X1137944Y188693D01*
G37*
%LPD*%
%LPC*%
G36*
X1105944Y128693D02*
X1105944Y128693D01*
X1103994Y129501D01*
X1102501Y130994D01*
X1101693Y132944D01*
X1101693Y135056D01*
X1102501Y137006D01*
X1103994Y138499D01*
X1105944Y139307D01*
X1108056Y139307D01*
X1110006Y138499D01*
X1111499Y137006D01*
X1112251Y135189D01*
X1112286Y135128D01*
X1112312Y135064D01*
X1112364Y134991D01*
X1112409Y134913D01*
X1112457Y134863D01*
X1112498Y134806D01*
X1112568Y134749D01*
X1112630Y134685D01*
X1112690Y134648D01*
X1112743Y134604D01*
X1112825Y134565D01*
X1112901Y134518D01*
X1112968Y134498D01*
X1113029Y134469D01*
X1112961Y134426D01*
X1112880Y134386D01*
X1112827Y134341D01*
X1112768Y134304D01*
X1112706Y134238D01*
X1112638Y134180D01*
X1112598Y134123D01*
X1112550Y134072D01*
X1112507Y133994D01*
X1112455Y133920D01*
X1112430Y133855D01*
X1112396Y133794D01*
X1112374Y133707D01*
X1112342Y133623D01*
X1112334Y133553D01*
X1112317Y133486D01*
X1112307Y133325D01*
X1112307Y132944D01*
X1111499Y130994D01*
X1110006Y129501D01*
X1108056Y128693D01*
X1105944Y128693D01*
G37*
%LPD*%
%LPC*%
G36*
X1118944Y129693D02*
X1118944Y129693D01*
X1116994Y130501D01*
X1115501Y131994D01*
X1114749Y133811D01*
X1114714Y133872D01*
X1114688Y133936D01*
X1114636Y134009D01*
X1114591Y134087D01*
X1114543Y134137D01*
X1114502Y134194D01*
X1114432Y134251D01*
X1114370Y134315D01*
X1114310Y134352D01*
X1114257Y134396D01*
X1114175Y134435D01*
X1114099Y134482D01*
X1114032Y134502D01*
X1113971Y134531D01*
X1114039Y134574D01*
X1114120Y134614D01*
X1114173Y134659D01*
X1114232Y134696D01*
X1114294Y134762D01*
X1114362Y134820D01*
X1114402Y134877D01*
X1114450Y134928D01*
X1114493Y135006D01*
X1114545Y135080D01*
X1114570Y135145D01*
X1114604Y135206D01*
X1114626Y135293D01*
X1114658Y135377D01*
X1114666Y135447D01*
X1114683Y135514D01*
X1114693Y135675D01*
X1114693Y136056D01*
X1115501Y138006D01*
X1116994Y139499D01*
X1118944Y140307D01*
X1121056Y140307D01*
X1123006Y139499D01*
X1124499Y138006D01*
X1125307Y136056D01*
X1125307Y133944D01*
X1124499Y131994D01*
X1123006Y130501D01*
X1121056Y129693D01*
X1118944Y129693D01*
G37*
%LPD*%
%LPC*%
G36*
X1007944Y237693D02*
X1007944Y237693D01*
X1005994Y238501D01*
X1004501Y239994D01*
X1003693Y241944D01*
X1003693Y244056D01*
X1004501Y246006D01*
X1005994Y247499D01*
X1007944Y248307D01*
X1010056Y248307D01*
X1012006Y247499D01*
X1013499Y246006D01*
X1014307Y244056D01*
X1014307Y241944D01*
X1013499Y239994D01*
X1012006Y238501D01*
X1010056Y237693D01*
X1007944Y237693D01*
G37*
%LPD*%
%LPC*%
G36*
X696944Y74693D02*
X696944Y74693D01*
X694994Y75501D01*
X693501Y76994D01*
X692693Y78944D01*
X692693Y81056D01*
X693501Y83006D01*
X694994Y84499D01*
X696944Y85307D01*
X699056Y85307D01*
X701006Y84499D01*
X702499Y83006D01*
X703307Y81056D01*
X703307Y78944D01*
X702499Y76994D01*
X701006Y75501D01*
X699056Y74693D01*
X696944Y74693D01*
G37*
%LPD*%
%LPC*%
G36*
X1145944Y366693D02*
X1145944Y366693D01*
X1143994Y367501D01*
X1142501Y368994D01*
X1141693Y370944D01*
X1141693Y373056D01*
X1142501Y375006D01*
X1143994Y376499D01*
X1145944Y377307D01*
X1148056Y377307D01*
X1150006Y376499D01*
X1151499Y375006D01*
X1152307Y373056D01*
X1152307Y370944D01*
X1151499Y368994D01*
X1150006Y367501D01*
X1148056Y366693D01*
X1145944Y366693D01*
G37*
%LPD*%
%LPC*%
G36*
X1249944Y775693D02*
X1249944Y775693D01*
X1247994Y776501D01*
X1246501Y777994D01*
X1245693Y779944D01*
X1245693Y782056D01*
X1246501Y784006D01*
X1247994Y785499D01*
X1249944Y786307D01*
X1252056Y786307D01*
X1254006Y785499D01*
X1255499Y784006D01*
X1256307Y782056D01*
X1256307Y779944D01*
X1255499Y777994D01*
X1254006Y776501D01*
X1252056Y775693D01*
X1249944Y775693D01*
G37*
%LPD*%
%LPC*%
G36*
X1271944Y355613D02*
X1271944Y355613D01*
X1269994Y356421D01*
X1268501Y357914D01*
X1267693Y359864D01*
X1267693Y361976D01*
X1268501Y363926D01*
X1269994Y365419D01*
X1271944Y366227D01*
X1274056Y366227D01*
X1276006Y365419D01*
X1277499Y363926D01*
X1278307Y361976D01*
X1278307Y359864D01*
X1277499Y357914D01*
X1276006Y356421D01*
X1274056Y355613D01*
X1271944Y355613D01*
G37*
%LPD*%
%LPC*%
G36*
X483944Y349693D02*
X483944Y349693D01*
X481994Y350501D01*
X480501Y351994D01*
X479693Y353944D01*
X479693Y356056D01*
X480501Y358006D01*
X481994Y359499D01*
X483944Y360307D01*
X486056Y360307D01*
X488006Y359499D01*
X489499Y358006D01*
X490307Y356056D01*
X490307Y353944D01*
X489499Y351994D01*
X488006Y350501D01*
X486056Y349693D01*
X483944Y349693D01*
G37*
%LPD*%
%LPC*%
G36*
X1163250Y531693D02*
X1163250Y531693D01*
X1161300Y532501D01*
X1159807Y533994D01*
X1158999Y535944D01*
X1158999Y538056D01*
X1159807Y540006D01*
X1161300Y541499D01*
X1163250Y542307D01*
X1165362Y542307D01*
X1167312Y541499D01*
X1168805Y540006D01*
X1169613Y538056D01*
X1169613Y535944D01*
X1168805Y533994D01*
X1167312Y532501D01*
X1165362Y531693D01*
X1163250Y531693D01*
G37*
%LPD*%
%LPC*%
G36*
X1147944Y240693D02*
X1147944Y240693D01*
X1145994Y241501D01*
X1144501Y242994D01*
X1143693Y244944D01*
X1143693Y247056D01*
X1144501Y249006D01*
X1145994Y250499D01*
X1147944Y251307D01*
X1150056Y251307D01*
X1152006Y250499D01*
X1153499Y249006D01*
X1154307Y247056D01*
X1154307Y244944D01*
X1153499Y242994D01*
X1152006Y241501D01*
X1150056Y240693D01*
X1147944Y240693D01*
G37*
%LPD*%
%LPC*%
G36*
X1081944Y238693D02*
X1081944Y238693D01*
X1079994Y239501D01*
X1078501Y240994D01*
X1077693Y242944D01*
X1077693Y245056D01*
X1078501Y247006D01*
X1079994Y248499D01*
X1081944Y249307D01*
X1084056Y249307D01*
X1086006Y248499D01*
X1087499Y247006D01*
X1088307Y245056D01*
X1088307Y242944D01*
X1087499Y240994D01*
X1086006Y239501D01*
X1084056Y238693D01*
X1081944Y238693D01*
G37*
%LPD*%
%LPC*%
G36*
X936944Y238693D02*
X936944Y238693D01*
X934994Y239501D01*
X933501Y240994D01*
X932693Y242944D01*
X932693Y245056D01*
X933501Y247006D01*
X934994Y248499D01*
X936944Y249307D01*
X939056Y249307D01*
X941006Y248499D01*
X942499Y247006D01*
X943307Y245056D01*
X943307Y242944D01*
X942499Y240994D01*
X941006Y239501D01*
X939056Y238693D01*
X936944Y238693D01*
G37*
%LPD*%
%LPC*%
G36*
X831944Y238693D02*
X831944Y238693D01*
X829994Y239501D01*
X828501Y240994D01*
X827693Y242944D01*
X827693Y245056D01*
X828501Y247006D01*
X829994Y248499D01*
X831944Y249307D01*
X834056Y249307D01*
X836006Y248499D01*
X837499Y247006D01*
X838307Y245056D01*
X838307Y242944D01*
X837499Y240994D01*
X836006Y239501D01*
X834056Y238693D01*
X831944Y238693D01*
G37*
%LPD*%
%LPC*%
G36*
X666944Y237693D02*
X666944Y237693D01*
X664994Y238501D01*
X663501Y239994D01*
X662693Y241944D01*
X662693Y244056D01*
X663501Y246006D01*
X664994Y247499D01*
X666944Y248307D01*
X669056Y248307D01*
X671006Y247499D01*
X672499Y246006D01*
X673307Y244056D01*
X673307Y241944D01*
X672499Y239994D01*
X671006Y238501D01*
X669056Y237693D01*
X666944Y237693D01*
G37*
%LPD*%
%LPC*%
G36*
X766870Y237619D02*
X766870Y237619D01*
X764920Y238427D01*
X763427Y239920D01*
X762619Y241870D01*
X762619Y243981D01*
X763427Y245932D01*
X764920Y247425D01*
X766870Y248232D01*
X768981Y248232D01*
X770932Y247425D01*
X772425Y245932D01*
X773232Y243981D01*
X773232Y241870D01*
X772425Y239920D01*
X770932Y238427D01*
X768981Y237619D01*
X766870Y237619D01*
G37*
%LPD*%
%LPC*%
G36*
X1281944Y558693D02*
X1281944Y558693D01*
X1279994Y559501D01*
X1278501Y560994D01*
X1277693Y562944D01*
X1277693Y565056D01*
X1278501Y567006D01*
X1279994Y568499D01*
X1281944Y569307D01*
X1284056Y569307D01*
X1286006Y568499D01*
X1287499Y567006D01*
X1288307Y565056D01*
X1288307Y562944D01*
X1287499Y560994D01*
X1286006Y559501D01*
X1284056Y558693D01*
X1281944Y558693D01*
G37*
%LPD*%
%LPC*%
G36*
X1102944Y206693D02*
X1102944Y206693D01*
X1100994Y207501D01*
X1099501Y208994D01*
X1098693Y210944D01*
X1098693Y213056D01*
X1099501Y215006D01*
X1100994Y216499D01*
X1102944Y217307D01*
X1105056Y217307D01*
X1107006Y216499D01*
X1108499Y215006D01*
X1109307Y213056D01*
X1109307Y210944D01*
X1108499Y208994D01*
X1107006Y207501D01*
X1105056Y206693D01*
X1102944Y206693D01*
G37*
%LPD*%
%LPC*%
G36*
X975914Y205614D02*
X975914Y205614D01*
X973964Y206422D01*
X972471Y207915D01*
X971663Y209866D01*
X971663Y211977D01*
X972471Y213927D01*
X973964Y215420D01*
X975914Y216228D01*
X978026Y216228D01*
X979976Y215420D01*
X981469Y213927D01*
X982277Y211977D01*
X982277Y209866D01*
X981469Y207915D01*
X979976Y206422D01*
X978026Y205614D01*
X975914Y205614D01*
G37*
%LPD*%
%LPC*%
G36*
X624762Y203860D02*
X624762Y203860D01*
X622812Y204668D01*
X621319Y206161D01*
X620511Y208111D01*
X620511Y210222D01*
X621319Y212173D01*
X622812Y213666D01*
X624762Y214474D01*
X626874Y214474D01*
X628824Y213666D01*
X630317Y212173D01*
X631125Y210222D01*
X631125Y208111D01*
X630317Y206161D01*
X628824Y204668D01*
X626874Y203860D01*
X624762Y203860D01*
G37*
%LPD*%
%LPC*%
G36*
X1118120Y201518D02*
X1118120Y201518D01*
X1116170Y202326D01*
X1114677Y203818D01*
X1113869Y205769D01*
X1113869Y207880D01*
X1114677Y209830D01*
X1116170Y211323D01*
X1118120Y212131D01*
X1120231Y212131D01*
X1122182Y211323D01*
X1123674Y209830D01*
X1124482Y207880D01*
X1124482Y205769D01*
X1123674Y203818D01*
X1122182Y202326D01*
X1120231Y201518D01*
X1118120Y201518D01*
G37*
%LPD*%
%LPC*%
G36*
X637462Y197860D02*
X637462Y197860D01*
X635512Y198668D01*
X634019Y200161D01*
X633211Y202111D01*
X633211Y204222D01*
X634019Y206173D01*
X635512Y207666D01*
X637462Y208474D01*
X639574Y208474D01*
X641524Y207666D01*
X643017Y206173D01*
X643825Y204222D01*
X643825Y202111D01*
X643017Y200161D01*
X641524Y198668D01*
X639574Y197860D01*
X637462Y197860D01*
G37*
%LPD*%
%LPC*%
G36*
X962762Y193263D02*
X962762Y193263D01*
X960812Y194071D01*
X959319Y195563D01*
X958511Y197514D01*
X958511Y199625D01*
X959319Y201575D01*
X960812Y203068D01*
X962762Y203876D01*
X964874Y203876D01*
X966824Y203068D01*
X968317Y201575D01*
X969125Y199625D01*
X969125Y197514D01*
X968317Y195563D01*
X966824Y194071D01*
X964874Y193263D01*
X962762Y193263D01*
G37*
%LPD*%
%LPC*%
G36*
X583294Y191343D02*
X583294Y191343D01*
X581344Y192151D01*
X579851Y193644D01*
X579043Y195594D01*
X579043Y197706D01*
X579851Y199656D01*
X581344Y201149D01*
X583294Y201957D01*
X585406Y201957D01*
X587356Y201149D01*
X588849Y199656D01*
X589657Y197706D01*
X589657Y195594D01*
X588849Y193644D01*
X587356Y192151D01*
X585406Y191343D01*
X583294Y191343D01*
G37*
%LPD*%
%LPC*%
G36*
X1204638Y532693D02*
X1204638Y532693D01*
X1202688Y533501D01*
X1201195Y534994D01*
X1200387Y536944D01*
X1200387Y539056D01*
X1201195Y541006D01*
X1202688Y542499D01*
X1204638Y543307D01*
X1206750Y543307D01*
X1208700Y542499D01*
X1210193Y541006D01*
X1211001Y539056D01*
X1211001Y536944D01*
X1210193Y534994D01*
X1208700Y533501D01*
X1206750Y532693D01*
X1204638Y532693D01*
G37*
%LPD*%
%LPC*%
G36*
X991820Y64569D02*
X991820Y64569D01*
X989870Y65377D01*
X988377Y66870D01*
X987569Y68820D01*
X987569Y70931D01*
X988377Y72882D01*
X989870Y74374D01*
X991820Y75182D01*
X993931Y75182D01*
X995882Y74374D01*
X997374Y72882D01*
X998182Y70931D01*
X998182Y68820D01*
X997374Y66870D01*
X995882Y65377D01*
X993931Y64569D01*
X991820Y64569D01*
G37*
%LPD*%
%LPC*%
G36*
X143944Y554693D02*
X143944Y554693D01*
X141994Y555501D01*
X140501Y556994D01*
X139693Y558944D01*
X139693Y561056D01*
X140501Y563006D01*
X141994Y564499D01*
X143944Y565307D01*
X146056Y565307D01*
X148006Y564499D01*
X149499Y563006D01*
X150307Y561056D01*
X150307Y558944D01*
X149499Y556994D01*
X148006Y555501D01*
X146056Y554693D01*
X143944Y554693D01*
G37*
%LPD*%
%LPC*%
G36*
X503944Y176693D02*
X503944Y176693D01*
X501994Y177501D01*
X500501Y178994D01*
X499693Y180944D01*
X499693Y183056D01*
X500501Y185006D01*
X501994Y186499D01*
X503944Y187307D01*
X506056Y187307D01*
X508006Y186499D01*
X509499Y185006D01*
X510307Y183056D01*
X510307Y180944D01*
X509499Y178994D01*
X508006Y177501D01*
X506056Y176693D01*
X503944Y176693D01*
G37*
%LPD*%
%LPC*%
G36*
X506944Y656693D02*
X506944Y656693D01*
X504994Y657501D01*
X503501Y658994D01*
X502693Y660944D01*
X502693Y663056D01*
X503501Y665006D01*
X504994Y666499D01*
X506944Y667307D01*
X509056Y667307D01*
X511006Y666499D01*
X512499Y665006D01*
X513307Y663056D01*
X513307Y660944D01*
X512499Y658994D01*
X511006Y657501D01*
X509056Y656693D01*
X506944Y656693D01*
G37*
%LPD*%
%LPC*%
G36*
X1295944Y837693D02*
X1295944Y837693D01*
X1293994Y838501D01*
X1292501Y839994D01*
X1291693Y841944D01*
X1291693Y844056D01*
X1292501Y846006D01*
X1293994Y847499D01*
X1295944Y848307D01*
X1298056Y848307D01*
X1300006Y847499D01*
X1301499Y846006D01*
X1302307Y844056D01*
X1302307Y841944D01*
X1301499Y839994D01*
X1300006Y838501D01*
X1298056Y837693D01*
X1295944Y837693D01*
G37*
%LPD*%
%LPC*%
G36*
X495944Y887693D02*
X495944Y887693D01*
X493994Y888501D01*
X492501Y889994D01*
X491693Y891944D01*
X491693Y894056D01*
X492501Y896006D01*
X493994Y897499D01*
X495944Y898307D01*
X498056Y898307D01*
X500006Y897499D01*
X501499Y896006D01*
X502307Y894056D01*
X502307Y891944D01*
X501499Y889994D01*
X500006Y888501D01*
X498056Y887693D01*
X495944Y887693D01*
G37*
%LPD*%
%LPC*%
G36*
X599944Y130693D02*
X599944Y130693D01*
X597994Y131501D01*
X596501Y132994D01*
X595693Y134944D01*
X595693Y137056D01*
X596501Y139006D01*
X597994Y140499D01*
X599944Y141307D01*
X602056Y141307D01*
X604006Y140499D01*
X605499Y139006D01*
X606307Y137056D01*
X606307Y134944D01*
X605499Y132994D01*
X604006Y131501D01*
X602056Y130693D01*
X599944Y130693D01*
G37*
%LPD*%
%LPC*%
G36*
X637944Y129693D02*
X637944Y129693D01*
X635994Y130501D01*
X634501Y131994D01*
X633693Y133944D01*
X633693Y136056D01*
X634501Y138006D01*
X635994Y139499D01*
X637944Y140307D01*
X640056Y140307D01*
X642006Y139499D01*
X643499Y138006D01*
X644307Y136056D01*
X644307Y133944D01*
X643499Y131994D01*
X642006Y130501D01*
X640056Y129693D01*
X637944Y129693D01*
G37*
%LPD*%
%LPC*%
G36*
X623944Y129693D02*
X623944Y129693D01*
X621994Y130501D01*
X620501Y131994D01*
X619693Y133944D01*
X619693Y136056D01*
X620501Y138006D01*
X621994Y139499D01*
X623944Y140307D01*
X626056Y140307D01*
X628006Y139499D01*
X629499Y138006D01*
X630307Y136056D01*
X630307Y133944D01*
X629499Y131994D01*
X628006Y130501D01*
X626056Y129693D01*
X623944Y129693D01*
G37*
%LPD*%
%LPC*%
G36*
X1276944Y96693D02*
X1276944Y96693D01*
X1274994Y97501D01*
X1273501Y98994D01*
X1272693Y100944D01*
X1272693Y103056D01*
X1273501Y105006D01*
X1274994Y106499D01*
X1276944Y107307D01*
X1279056Y107307D01*
X1281006Y106499D01*
X1282499Y105006D01*
X1283307Y103056D01*
X1283307Y100944D01*
X1282499Y98994D01*
X1281006Y97501D01*
X1279056Y96693D01*
X1276944Y96693D01*
G37*
%LPD*%
%LPC*%
G36*
X581620Y114369D02*
X581620Y114369D01*
X579670Y115177D01*
X578177Y116670D01*
X577369Y118620D01*
X577369Y120731D01*
X578177Y122682D01*
X579670Y124175D01*
X581620Y124982D01*
X583731Y124982D01*
X585682Y124175D01*
X587175Y122682D01*
X587982Y120731D01*
X587982Y118620D01*
X587175Y116670D01*
X585682Y115177D01*
X583731Y114369D01*
X581620Y114369D01*
G37*
%LPD*%
%LPC*%
G36*
X1563944Y399693D02*
X1563944Y399693D01*
X1561994Y400501D01*
X1560501Y401994D01*
X1559693Y403944D01*
X1559693Y406056D01*
X1560501Y408006D01*
X1561994Y409499D01*
X1563944Y410307D01*
X1566056Y410307D01*
X1568006Y409499D01*
X1569499Y408006D01*
X1570307Y406056D01*
X1570307Y403944D01*
X1569499Y401994D01*
X1568006Y400501D01*
X1566056Y399693D01*
X1563944Y399693D01*
G37*
%LPD*%
%LPC*%
G36*
X734320Y90069D02*
X734320Y90069D01*
X732370Y90877D01*
X730877Y92370D01*
X730069Y94320D01*
X730069Y96431D01*
X730877Y98382D01*
X732370Y99874D01*
X734320Y100682D01*
X736431Y100682D01*
X738382Y99874D01*
X739874Y98382D01*
X740682Y96431D01*
X740682Y94320D01*
X739874Y92370D01*
X738382Y90877D01*
X736431Y90069D01*
X734320Y90069D01*
G37*
%LPD*%
%LPC*%
G36*
X1132518Y75267D02*
X1132518Y75267D01*
X1130568Y76075D01*
X1129075Y77568D01*
X1128267Y79518D01*
X1128267Y81629D01*
X1129075Y83580D01*
X1130568Y85073D01*
X1132518Y85881D01*
X1134629Y85881D01*
X1136580Y85073D01*
X1138073Y83580D01*
X1138881Y81629D01*
X1138881Y79518D01*
X1138073Y77568D01*
X1136580Y76075D01*
X1134629Y75267D01*
X1132518Y75267D01*
G37*
%LPD*%
%LPC*%
G36*
X1454874Y111223D02*
X1454874Y111223D01*
X1453016Y111993D01*
X1451593Y113416D01*
X1450823Y115274D01*
X1450823Y117286D01*
X1451593Y119144D01*
X1453016Y120567D01*
X1454874Y121337D01*
X1456886Y121337D01*
X1458744Y120567D01*
X1460167Y119144D01*
X1460937Y117286D01*
X1460937Y115274D01*
X1460167Y113416D01*
X1458744Y111993D01*
X1456886Y111223D01*
X1454874Y111223D01*
G37*
%LPD*%
%LPC*%
G36*
X1425410Y111223D02*
X1425410Y111223D01*
X1423552Y111993D01*
X1422129Y113416D01*
X1421359Y115274D01*
X1421359Y117286D01*
X1422129Y119144D01*
X1423552Y120567D01*
X1425410Y121337D01*
X1427422Y121337D01*
X1429280Y120567D01*
X1430703Y119144D01*
X1431473Y117286D01*
X1431473Y115274D01*
X1430703Y113416D01*
X1429280Y111993D01*
X1427422Y111223D01*
X1425410Y111223D01*
G37*
%LPD*%
%LPC*%
G36*
X532339Y905539D02*
X532339Y905539D01*
X532339Y912859D01*
X533700Y912416D01*
X535125Y911690D01*
X536419Y910750D01*
X537550Y909619D01*
X538490Y908325D01*
X539216Y906900D01*
X539659Y905539D01*
X532339Y905539D01*
G37*
%LPD*%
%LPC*%
G36*
X1116539Y422939D02*
X1116539Y422939D01*
X1116539Y430259D01*
X1117900Y429816D01*
X1119325Y429090D01*
X1120619Y428150D01*
X1121750Y427019D01*
X1122690Y425725D01*
X1123416Y424300D01*
X1123859Y422939D01*
X1116539Y422939D01*
G37*
%LPD*%
%LPC*%
G36*
X519941Y905539D02*
X519941Y905539D01*
X520384Y906900D01*
X521110Y908325D01*
X522050Y909619D01*
X523181Y910750D01*
X524475Y911690D01*
X525900Y912416D01*
X527261Y912859D01*
X527261Y905539D01*
X519941Y905539D01*
G37*
%LPD*%
%LPC*%
G36*
X1104141Y422939D02*
X1104141Y422939D01*
X1104584Y424300D01*
X1105310Y425725D01*
X1106250Y427019D01*
X1107381Y428150D01*
X1108675Y429090D01*
X1110100Y429816D01*
X1111461Y430259D01*
X1111461Y422939D01*
X1104141Y422939D01*
G37*
%LPD*%
%LPC*%
G36*
X1116539Y417861D02*
X1116539Y417861D01*
X1123859Y417861D01*
X1123416Y416500D01*
X1122690Y415075D01*
X1121750Y413781D01*
X1120619Y412650D01*
X1119325Y411710D01*
X1117900Y410984D01*
X1116539Y410541D01*
X1116539Y417861D01*
G37*
%LPD*%
%LPC*%
G36*
X532339Y900461D02*
X532339Y900461D01*
X539659Y900461D01*
X539216Y899100D01*
X538490Y897675D01*
X537550Y896381D01*
X536419Y895250D01*
X535125Y894310D01*
X533700Y893584D01*
X532339Y893141D01*
X532339Y900461D01*
G37*
%LPD*%
%LPC*%
G36*
X545341Y905539D02*
X545341Y905539D01*
X545784Y906900D01*
X546510Y908325D01*
X547450Y909619D01*
X548581Y910750D01*
X549875Y911690D01*
X551300Y912416D01*
X552661Y912859D01*
X552661Y905539D01*
X545341Y905539D01*
G37*
%LPD*%
%LPC*%
G36*
X917039Y972461D02*
X917039Y972461D01*
X924359Y972461D01*
X923916Y971100D01*
X923190Y969675D01*
X922250Y968381D01*
X921119Y967250D01*
X919825Y966310D01*
X918400Y965584D01*
X917039Y965141D01*
X917039Y972461D01*
G37*
%LPD*%
%LPC*%
G36*
X1110100Y410984D02*
X1110100Y410984D01*
X1108675Y411710D01*
X1107381Y412650D01*
X1106250Y413781D01*
X1105310Y415075D01*
X1104584Y416500D01*
X1104141Y417861D01*
X1111461Y417861D01*
X1111461Y410541D01*
X1110100Y410984D01*
G37*
%LPD*%
%LPC*%
G36*
X910600Y965584D02*
X910600Y965584D01*
X909175Y966310D01*
X907881Y967250D01*
X906750Y968381D01*
X905810Y969675D01*
X905084Y971100D01*
X904641Y972461D01*
X911961Y972461D01*
X911961Y965141D01*
X910600Y965584D01*
G37*
%LPD*%
%LPC*%
G36*
X551300Y893584D02*
X551300Y893584D01*
X549875Y894310D01*
X548581Y895250D01*
X547450Y896381D01*
X546510Y897675D01*
X545784Y899100D01*
X545341Y900461D01*
X552661Y900461D01*
X552661Y893141D01*
X551300Y893584D01*
G37*
%LPD*%
%LPC*%
G36*
X525900Y893584D02*
X525900Y893584D01*
X524475Y894310D01*
X523181Y895250D01*
X522050Y896381D01*
X521110Y897675D01*
X520384Y899100D01*
X519941Y900461D01*
X527261Y900461D01*
X527261Y893141D01*
X525900Y893584D01*
G37*
%LPD*%
%LPC*%
G36*
X529799Y902999D02*
X529799Y902999D01*
X529799Y903001D01*
X529801Y903001D01*
X529801Y902999D01*
X529799Y902999D01*
G37*
%LPD*%
%LPC*%
G36*
X1113999Y420399D02*
X1113999Y420399D01*
X1113999Y420401D01*
X1114001Y420401D01*
X1114001Y420399D01*
X1113999Y420399D01*
G37*
%LPD*%
D10*
X220000Y810000D03*
D11*
X245000Y835000D03*
D10*
X270000Y810000D03*
X220000Y580000D03*
D11*
X245000Y605000D03*
D10*
X270000Y580000D03*
X220000Y345000D03*
D11*
X245000Y370000D03*
D10*
X270000Y345000D03*
D12*
X25000Y900400D03*
X25000Y875000D03*
X25000Y849600D03*
X25000Y660400D03*
X25000Y635000D03*
X25000Y609600D03*
X25000Y425400D03*
X25000Y400000D03*
X25000Y374600D03*
D10*
X220000Y110000D03*
D11*
X245000Y135000D03*
D10*
X270000Y110000D03*
D12*
X25000Y190400D03*
X25000Y165000D03*
X25000Y139600D03*
D10*
X805000Y505000D03*
D11*
X830000Y530000D03*
D10*
X855000Y505000D03*
D12*
X610000Y585400D03*
X610000Y560000D03*
X610000Y534600D03*
D10*
X815000Y730000D03*
D11*
X840000Y755000D03*
D10*
X865000Y730000D03*
D12*
X620000Y810400D03*
X620000Y785000D03*
X620000Y759600D03*
D10*
X1540000Y905000D03*
D11*
X1515000Y880000D03*
D10*
X1490000Y905000D03*
D12*
X1735000Y814600D03*
X1735000Y840000D03*
X1735000Y865400D03*
D10*
X1540000Y670000D03*
D11*
X1515000Y645000D03*
D10*
X1490000Y670000D03*
D12*
X1735000Y589600D03*
X1735000Y615000D03*
X1735000Y640400D03*
D10*
X1535000Y435000D03*
D11*
X1510000Y410000D03*
D10*
X1485000Y435000D03*
D12*
X1735000Y359600D03*
X1735000Y385000D03*
X1735000Y410400D03*
D10*
X1535000Y185000D03*
D11*
X1510000Y160000D03*
D10*
X1485000Y185000D03*
D12*
X1735000Y99600D03*
X1735000Y125000D03*
X1735000Y150400D03*
X762100Y975000D03*
X787500Y975000D03*
X812900Y975000D03*
X838300Y975000D03*
X863700Y975000D03*
X889100Y975000D03*
X914500Y975000D03*
X939900Y975000D03*
X1164800Y420400D03*
X1139400Y420400D03*
X1114000Y420400D03*
X1088600Y420400D03*
X1063200Y420400D03*
X1037800Y420400D03*
X987000Y420400D03*
X961600Y420400D03*
X936200Y420400D03*
X910800Y420400D03*
X885400Y420400D03*
X860000Y420400D03*
X834600Y420400D03*
X809200Y420400D03*
X758400Y420400D03*
X733000Y420400D03*
X707600Y420400D03*
X682200Y420400D03*
X656800Y420400D03*
X631400Y420400D03*
X606000Y420400D03*
X580600Y420400D03*
X631400Y903000D03*
X656800Y903000D03*
X682200Y903000D03*
X707600Y903000D03*
X733000Y903000D03*
X758400Y903000D03*
X783800Y903000D03*
X809200Y903000D03*
X860000Y903000D03*
X885400Y903000D03*
X910800Y903000D03*
X936200Y903000D03*
X961600Y903000D03*
X987000Y903000D03*
X1012400Y903000D03*
X1037800Y903000D03*
X1075900Y903000D03*
X1101300Y903000D03*
X1126700Y903000D03*
X1152100Y903000D03*
X1177500Y903000D03*
X1202900Y903000D03*
X1228300Y903000D03*
X1253700Y903000D03*
X555200Y903000D03*
X529800Y903000D03*
X555200Y877600D03*
X529800Y877600D03*
X555200Y852200D03*
X529800Y852200D03*
X555200Y826800D03*
X529800Y826800D03*
X555200Y801400D03*
X529800Y801400D03*
X555200Y776000D03*
X529800Y776000D03*
X555200Y750600D03*
X529800Y750600D03*
X555200Y725200D03*
X529800Y725200D03*
X555200Y699800D03*
X529800Y699800D03*
X555200Y674400D03*
X529800Y674400D03*
X555200Y649000D03*
X529800Y649000D03*
X555200Y623600D03*
X529800Y623600D03*
X555200Y598200D03*
X529800Y598200D03*
X555200Y572800D03*
X529800Y572800D03*
X555200Y547400D03*
X529800Y547400D03*
X555200Y522000D03*
X529800Y522000D03*
X555200Y496600D03*
X529800Y496600D03*
X555200Y471200D03*
X529800Y471200D03*
D13*
X160000Y890000D03*
X235000Y895000D03*
D14*
X165000Y895000D01*
X160000Y890000D01*
D13*
X435000Y930000D03*
D14*
X429930Y924930D01*
X429930Y903402D01*
X418264Y891736D01*
X416528Y890000D01*
X410000Y890000D01*
X410000Y895000D02*
X315000Y895000D01*
X235000Y895000D01*
D13*
X435000Y895000D03*
D14*
X431736Y891736D01*
X418264Y891736D01*
D13*
X485000Y810000D03*
D14*
X410000Y885000D01*
X410000Y890000D01*
X410000Y895000D01*
D13*
X410000Y620000D03*
D14*
X410000Y660000D01*
X440000Y690000D01*
D13*
X440000Y690000D03*
D14*
X410000Y620000D02*
X406576Y616576D01*
D13*
X130000Y675000D03*
X125000Y436576D03*
X410000Y355000D03*
X437825Y457825D03*
X285470Y865000D03*
D14*
X315000Y894530D01*
X315000Y895000D01*
X303424Y616576D02*
X406576Y616576D01*
X303424Y616576D02*
X290000Y630000D01*
D13*
X290000Y630000D03*
D14*
X235000Y630000D01*
D13*
X235000Y630000D03*
D14*
X162724Y646576D02*
X158424Y646576D01*
X179300Y630000D02*
X235000Y630000D01*
X179300Y630000D02*
X162724Y646576D01*
X158424Y646576D02*
X130000Y675000D01*
D13*
X319182Y394182D03*
D14*
X294941Y418424D01*
X143152Y418424D01*
X125000Y436576D01*
X319182Y394182D02*
X374182Y394182D01*
X410000Y430000D01*
X437825Y457825D01*
X410000Y430000D02*
X410000Y355000D01*
D13*
X412500Y126250D03*
X315000Y162500D03*
X245000Y196250D03*
X140000Y170000D03*
X402500Y136250D03*
X830000Y555000D03*
D14*
X770000Y555000D01*
X744223Y580777D02*
X720777Y580777D01*
D13*
X720777Y580777D03*
D14*
X744223Y580777D02*
X770000Y555000D01*
D13*
X881674Y556674D03*
D14*
X831674Y556674D01*
X830000Y555000D01*
D13*
X1000000Y495000D03*
D14*
X943349Y495000D01*
X884174Y554174D01*
X881674Y556674D01*
D13*
X1030000Y585000D03*
D14*
X1020000Y575000D01*
X905000Y575000D02*
X884174Y554174D01*
X905000Y575000D02*
X1020000Y575000D01*
D15*
X894040Y773544D03*
X894040Y791832D03*
X1303480Y783984D03*
X1460960Y861200D03*
X844256Y815200D03*
X1510744Y819544D03*
X1312624Y826656D03*
X734528Y798944D03*
X1620472Y835800D03*
X1015960Y749160D03*
X1435000Y845000D03*
X1349200Y655488D03*
X1459944Y616880D03*
X1509728Y614848D03*
X1299416Y563032D03*
X1622504Y607736D03*
X1458928Y377800D03*
D13*
X1620000Y315000D03*
X1500000Y135000D03*
X1630000Y105000D03*
X1320000Y110000D03*
X988000Y346000D03*
X1133000Y134000D03*
X1137000Y213000D03*
D14*
X1137000Y212000D01*
X1137000Y205300D01*
X1145576Y196724D01*
X1145576Y146576D01*
X1133000Y134000D01*
D13*
X989424Y198775D03*
X994000Y117000D03*
D14*
X989424Y121576D01*
X989424Y198775D01*
D13*
X821000Y212000D03*
X821000Y135576D03*
D14*
X821000Y212000D01*
D13*
X652000Y212000D03*
X652000Y132000D03*
D14*
X652000Y212000D01*
D13*
X554000Y234000D03*
X555000Y144000D03*
X724000Y223000D03*
X724000Y144000D03*
X893000Y224000D03*
X886424Y148000D03*
D14*
X886424Y217424D01*
X893000Y224000D01*
D13*
X1036000Y223000D03*
X1036000Y144000D03*
D14*
X1036000Y206000D01*
X1036000Y223000D01*
X554000Y234000D02*
X554000Y145000D01*
X555000Y144000D01*
X628542Y215743D02*
X632285Y212000D01*
X652000Y212000D01*
X572257Y215743D02*
X554000Y234000D01*
X572257Y215743D02*
X628542Y215743D01*
X652000Y212000D02*
X713000Y212000D01*
X724000Y223000D01*
X810000Y223000D01*
X821000Y212000D01*
X881000Y212000D01*
X893000Y224000D01*
X983546Y204653D02*
X989424Y198775D01*
X983546Y204653D02*
X983546Y213645D01*
X973191Y224000D02*
X893000Y224000D01*
X973191Y224000D02*
X983546Y213645D01*
X989424Y198775D02*
X1028775Y198775D01*
X1036000Y206000D01*
X1123300Y212000D02*
X1137000Y212000D01*
X1040424Y218576D02*
X1036000Y223000D01*
X1040424Y218576D02*
X1116724Y218576D01*
X1123300Y212000D01*
D13*
X1221000Y571000D03*
D14*
X1218000Y481000D02*
X1219000Y480000D01*
D13*
X1218000Y481000D03*
X1221000Y850000D03*
X1220000Y618000D03*
D14*
X1220000Y733000D01*
X1220000Y849000D01*
X1221000Y850000D01*
D13*
X1220000Y733000D03*
X934000Y940000D03*
X1345000Y389000D03*
X1312624Y346304D03*
X1305072Y304072D03*
X1485355Y351029D03*
X1627094Y356094D03*
X1309000Y937000D03*
X1040000Y849000D03*
X1223000Y470000D03*
X145000Y560000D03*
X485000Y355000D03*
X497000Y893000D03*
X508000Y662000D03*
X509028Y441972D03*
X505000Y182000D03*
X1297000Y843000D03*
X1283000Y564000D03*
X1565000Y405000D03*
X1273000Y360920D03*
X1147000Y372000D03*
D15*
X1426416Y116280D03*
X1455880Y116280D03*
D13*
X1278000Y102000D03*
X668000Y243000D03*
X767926Y242926D03*
X833000Y244000D03*
X938000Y244000D03*
X1009000Y243000D03*
X1083000Y244000D03*
X584350Y196650D03*
X1251000Y781000D03*
X679000Y70000D03*
X1129000Y195000D03*
X678000Y81000D03*
X1139000Y194000D03*
X638518Y203167D03*
X639000Y135000D03*
X808000Y214000D03*
X808000Y136000D03*
X976970Y210921D03*
X978000Y133000D03*
X1119176Y206824D03*
X1120000Y135000D03*
X582676Y119676D03*
X735376Y95376D03*
X698000Y80000D03*
X1133574Y80574D03*
X992876Y69876D03*
X625818Y209167D03*
X625000Y135000D03*
X795000Y214000D03*
X795000Y136000D03*
X963818Y198569D03*
X965000Y133000D03*
X1104000Y212000D03*
X1107000Y134000D03*
X1149000Y246000D03*
X601000Y136000D03*
X1164306Y537000D03*
X1205694Y538000D03*
M02*
