G04 EAGLE Gerber RS-274X export*
G75*
%MOMM*%
%FSLAX34Y34*%
%LPD*%
%INSilkscreen Bottom*%
%IPPOS*%
%AMOC8*
5,1,8,0,0,1.08239X$1,22.5*%
G01*
%ADD10C,0.152400*%


D10*
X1044150Y433100D02*
X1031450Y433100D01*
X1025100Y426750D01*
X1025100Y414050D02*
X1031450Y407700D01*
X1069550Y433100D02*
X1075900Y426750D01*
X1069550Y433100D02*
X1056850Y433100D01*
X1050500Y426750D01*
X1050500Y414050D01*
X1056850Y407700D01*
X1069550Y407700D01*
X1075900Y414050D01*
X1050500Y426750D02*
X1044150Y433100D01*
X1050500Y414050D02*
X1044150Y407700D01*
X1031450Y407700D01*
X1107650Y433100D02*
X1120350Y433100D01*
X1107650Y433100D02*
X1101300Y426750D01*
X1101300Y414050D01*
X1107650Y407700D01*
X1101300Y426750D02*
X1094950Y433100D01*
X1082250Y433100D01*
X1075900Y426750D01*
X1075900Y414050D01*
X1082250Y407700D01*
X1094950Y407700D01*
X1101300Y414050D01*
X1145750Y433100D02*
X1152100Y426750D01*
X1145750Y433100D02*
X1133050Y433100D01*
X1126700Y426750D01*
X1126700Y414050D01*
X1133050Y407700D01*
X1145750Y407700D01*
X1152100Y414050D01*
X1126700Y426750D02*
X1120350Y433100D01*
X1126700Y414050D02*
X1120350Y407700D01*
X1107650Y407700D01*
X1177500Y414050D02*
X1177500Y426750D01*
X1171150Y433100D01*
X1158450Y433100D01*
X1152100Y426750D01*
X1152100Y414050D01*
X1158450Y407700D01*
X1171150Y407700D01*
X1177500Y414050D01*
X866350Y433100D02*
X853650Y433100D01*
X847300Y426750D01*
X847300Y414050D01*
X853650Y407700D01*
X891750Y433100D02*
X898100Y426750D01*
X891750Y433100D02*
X879050Y433100D01*
X872700Y426750D01*
X872700Y414050D01*
X879050Y407700D01*
X891750Y407700D01*
X898100Y414050D01*
X872700Y426750D02*
X866350Y433100D01*
X872700Y414050D02*
X866350Y407700D01*
X853650Y407700D01*
X929850Y433100D02*
X942550Y433100D01*
X929850Y433100D02*
X923500Y426750D01*
X923500Y414050D01*
X929850Y407700D01*
X923500Y426750D02*
X917150Y433100D01*
X904450Y433100D01*
X898100Y426750D01*
X898100Y414050D01*
X904450Y407700D01*
X917150Y407700D01*
X923500Y414050D01*
X967950Y433100D02*
X974300Y426750D01*
X967950Y433100D02*
X955250Y433100D01*
X948900Y426750D01*
X948900Y414050D01*
X955250Y407700D01*
X967950Y407700D01*
X974300Y414050D01*
X948900Y426750D02*
X942550Y433100D01*
X948900Y414050D02*
X942550Y407700D01*
X929850Y407700D01*
X999700Y414050D02*
X999700Y426750D01*
X993350Y433100D01*
X980650Y433100D01*
X974300Y426750D01*
X974300Y414050D01*
X980650Y407700D01*
X993350Y407700D01*
X999700Y414050D01*
X1025100Y414050D02*
X1025100Y426750D01*
X815550Y433100D02*
X802850Y433100D01*
X796500Y426750D01*
X796500Y414050D01*
X802850Y407700D01*
X840950Y433100D02*
X847300Y426750D01*
X840950Y433100D02*
X828250Y433100D01*
X821900Y426750D01*
X821900Y414050D01*
X828250Y407700D01*
X840950Y407700D01*
X847300Y414050D01*
X821900Y426750D02*
X815550Y433100D01*
X821900Y414050D02*
X815550Y407700D01*
X802850Y407700D01*
X637750Y433100D02*
X625050Y433100D01*
X618700Y426750D01*
X618700Y414050D01*
X625050Y407700D01*
X663150Y433100D02*
X669500Y426750D01*
X663150Y433100D02*
X650450Y433100D01*
X644100Y426750D01*
X644100Y414050D01*
X650450Y407700D01*
X663150Y407700D01*
X669500Y414050D01*
X644100Y426750D02*
X637750Y433100D01*
X644100Y414050D02*
X637750Y407700D01*
X625050Y407700D01*
X701250Y433100D02*
X713950Y433100D01*
X701250Y433100D02*
X694900Y426750D01*
X694900Y414050D01*
X701250Y407700D01*
X694900Y426750D02*
X688550Y433100D01*
X675850Y433100D01*
X669500Y426750D01*
X669500Y414050D01*
X675850Y407700D01*
X688550Y407700D01*
X694900Y414050D01*
X739350Y433100D02*
X745700Y426750D01*
X739350Y433100D02*
X726650Y433100D01*
X720300Y426750D01*
X720300Y414050D01*
X726650Y407700D01*
X739350Y407700D01*
X745700Y414050D01*
X720300Y426750D02*
X713950Y433100D01*
X720300Y414050D02*
X713950Y407700D01*
X701250Y407700D01*
X771100Y414050D02*
X771100Y426750D01*
X764750Y433100D01*
X752050Y433100D01*
X745700Y426750D01*
X745700Y414050D01*
X752050Y407700D01*
X764750Y407700D01*
X771100Y414050D01*
X586950Y433100D02*
X574250Y433100D01*
X567900Y426750D01*
X567900Y414050D02*
X574250Y407700D01*
X612350Y433100D02*
X618700Y426750D01*
X612350Y433100D02*
X599650Y433100D01*
X593300Y426750D01*
X593300Y414050D01*
X599650Y407700D01*
X612350Y407700D01*
X618700Y414050D01*
X593300Y426750D02*
X586950Y433100D01*
X593300Y414050D02*
X586950Y407700D01*
X574250Y407700D01*
X752050Y890300D02*
X764750Y890300D01*
X771100Y896650D01*
X771100Y909350D01*
X764750Y915700D01*
X726650Y890300D02*
X720300Y896650D01*
X726650Y890300D02*
X739350Y890300D01*
X745700Y896650D01*
X745700Y909350D01*
X739350Y915700D01*
X726650Y915700D01*
X720300Y909350D01*
X745700Y896650D02*
X752050Y890300D01*
X745700Y909350D02*
X752050Y915700D01*
X764750Y915700D01*
X688550Y890300D02*
X675850Y890300D01*
X688550Y890300D02*
X694900Y896650D01*
X694900Y909350D01*
X688550Y915700D01*
X694900Y896650D02*
X701250Y890300D01*
X713950Y890300D01*
X720300Y896650D01*
X720300Y909350D01*
X713950Y915700D01*
X701250Y915700D01*
X694900Y909350D01*
X650450Y890300D02*
X644100Y896650D01*
X650450Y890300D02*
X663150Y890300D01*
X669500Y896650D01*
X669500Y909350D01*
X663150Y915700D01*
X650450Y915700D01*
X644100Y909350D01*
X669500Y896650D02*
X675850Y890300D01*
X669500Y909350D02*
X675850Y915700D01*
X688550Y915700D01*
X618700Y909350D02*
X618700Y896650D01*
X625050Y890300D01*
X637750Y890300D01*
X644100Y896650D01*
X644100Y909350D01*
X637750Y915700D01*
X625050Y915700D01*
X618700Y909350D01*
X802850Y890300D02*
X815550Y890300D01*
X821900Y896650D01*
X821900Y909350D01*
X815550Y915700D01*
X777450Y890300D02*
X771100Y896650D01*
X777450Y890300D02*
X790150Y890300D01*
X796500Y896650D01*
X796500Y909350D01*
X790150Y915700D01*
X777450Y915700D01*
X771100Y909350D01*
X796500Y896650D02*
X802850Y890300D01*
X796500Y909350D02*
X802850Y915700D01*
X815550Y915700D01*
X980650Y890300D02*
X993350Y890300D01*
X999700Y896650D01*
X999700Y909350D01*
X993350Y915700D01*
X955250Y890300D02*
X948900Y896650D01*
X955250Y890300D02*
X967950Y890300D01*
X974300Y896650D01*
X974300Y909350D01*
X967950Y915700D01*
X955250Y915700D01*
X948900Y909350D01*
X974300Y896650D02*
X980650Y890300D01*
X974300Y909350D02*
X980650Y915700D01*
X993350Y915700D01*
X917150Y890300D02*
X904450Y890300D01*
X917150Y890300D02*
X923500Y896650D01*
X923500Y909350D01*
X917150Y915700D01*
X923500Y896650D02*
X929850Y890300D01*
X942550Y890300D01*
X948900Y896650D01*
X948900Y909350D01*
X942550Y915700D01*
X929850Y915700D01*
X923500Y909350D01*
X879050Y890300D02*
X872700Y896650D01*
X879050Y890300D02*
X891750Y890300D01*
X898100Y896650D01*
X898100Y909350D01*
X891750Y915700D01*
X879050Y915700D01*
X872700Y909350D01*
X898100Y896650D02*
X904450Y890300D01*
X898100Y909350D02*
X904450Y915700D01*
X917150Y915700D01*
X847300Y909350D02*
X847300Y896650D01*
X853650Y890300D01*
X866350Y890300D01*
X872700Y896650D01*
X872700Y909350D01*
X866350Y915700D01*
X853650Y915700D01*
X847300Y909350D01*
X1031450Y890300D02*
X1044150Y890300D01*
X1050500Y896650D01*
X1050500Y909350D01*
X1044150Y915700D01*
X1006050Y890300D02*
X999700Y896650D01*
X1006050Y890300D02*
X1018750Y890300D01*
X1025100Y896650D01*
X1025100Y909350D01*
X1018750Y915700D01*
X1006050Y915700D01*
X999700Y909350D01*
X1025100Y896650D02*
X1031450Y890300D01*
X1025100Y909350D02*
X1031450Y915700D01*
X1044150Y915700D01*
X1196550Y890300D02*
X1209250Y890300D01*
X1215600Y896650D01*
X1215600Y909350D01*
X1209250Y915700D01*
X1171150Y890300D02*
X1164800Y896650D01*
X1171150Y890300D02*
X1183850Y890300D01*
X1190200Y896650D01*
X1190200Y909350D01*
X1183850Y915700D01*
X1171150Y915700D01*
X1164800Y909350D01*
X1190200Y896650D02*
X1196550Y890300D01*
X1190200Y909350D02*
X1196550Y915700D01*
X1209250Y915700D01*
X1133050Y890300D02*
X1120350Y890300D01*
X1133050Y890300D02*
X1139400Y896650D01*
X1139400Y909350D01*
X1133050Y915700D01*
X1139400Y896650D02*
X1145750Y890300D01*
X1158450Y890300D01*
X1164800Y896650D01*
X1164800Y909350D01*
X1158450Y915700D01*
X1145750Y915700D01*
X1139400Y909350D01*
X1094950Y890300D02*
X1088600Y896650D01*
X1094950Y890300D02*
X1107650Y890300D01*
X1114000Y896650D01*
X1114000Y909350D01*
X1107650Y915700D01*
X1094950Y915700D01*
X1088600Y909350D01*
X1114000Y896650D02*
X1120350Y890300D01*
X1114000Y909350D02*
X1120350Y915700D01*
X1133050Y915700D01*
X1063200Y909350D02*
X1063200Y896650D01*
X1069550Y890300D01*
X1082250Y890300D01*
X1088600Y896650D01*
X1088600Y909350D01*
X1082250Y915700D01*
X1069550Y915700D01*
X1063200Y909350D01*
X1247350Y890300D02*
X1260050Y890300D01*
X1266400Y896650D01*
X1266400Y909350D01*
X1260050Y915700D01*
X1221950Y890300D02*
X1215600Y896650D01*
X1221950Y890300D02*
X1234650Y890300D01*
X1241000Y896650D01*
X1241000Y909350D01*
X1234650Y915700D01*
X1221950Y915700D01*
X1215600Y909350D01*
X1241000Y896650D02*
X1247350Y890300D01*
X1241000Y909350D02*
X1247350Y915700D01*
X1260050Y915700D01*
X567900Y909350D02*
X561550Y915700D01*
X567900Y909350D02*
X567900Y896650D01*
X561550Y890300D01*
X567900Y883950D01*
X567900Y871250D01*
X561550Y864900D01*
X567900Y858550D01*
X567900Y845850D01*
X561550Y839500D01*
X567900Y833150D01*
X567900Y820450D01*
X561550Y814100D01*
X567900Y807750D01*
X567900Y795050D01*
X561550Y788700D01*
X567900Y782350D01*
X567900Y769650D01*
X561550Y763300D01*
X561550Y915700D02*
X523450Y915700D01*
X517100Y909350D01*
X517100Y896650D01*
X523450Y890300D01*
X517100Y883950D01*
X517100Y871250D01*
X523450Y864900D01*
X517100Y858550D01*
X517100Y845850D01*
X523450Y839500D01*
X517100Y833150D01*
X517100Y820450D01*
X523450Y814100D01*
X517100Y807750D01*
X517100Y795050D01*
X523450Y788700D01*
X517100Y782350D01*
X517100Y769650D01*
X523450Y763300D01*
X517100Y756950D01*
X517100Y744250D01*
X523450Y737900D01*
X517100Y731550D01*
X517100Y718850D01*
X523450Y712500D01*
X517100Y706150D01*
X517100Y693450D01*
X523450Y687100D01*
X517100Y680750D01*
X517100Y668050D01*
X523450Y661700D01*
X517100Y655350D01*
X517100Y642650D01*
X523450Y636300D01*
X517100Y629950D01*
X517100Y617250D01*
X523450Y610900D01*
X517100Y604550D01*
X517100Y591850D01*
X523450Y585500D01*
X517100Y579150D01*
X517100Y566450D01*
X523450Y560100D01*
X517100Y553750D01*
X517100Y541050D01*
X523450Y534700D01*
X517100Y528350D01*
X517100Y515650D01*
X523450Y509300D01*
X517100Y502950D01*
X517100Y490250D01*
X523450Y483900D01*
X517100Y477550D01*
X517100Y464850D01*
X523450Y458500D01*
X561550Y458500D02*
X567900Y464850D01*
X567900Y477550D01*
X561550Y483900D01*
X567900Y490250D01*
X567900Y502950D01*
X561550Y509300D01*
X567900Y515650D01*
X567900Y528350D01*
X561550Y534700D01*
X567900Y541050D01*
X567900Y553750D01*
X561550Y560100D01*
X567900Y566450D01*
X567900Y579150D01*
X561550Y585500D01*
X567900Y591850D01*
X567900Y604550D01*
X561550Y610900D01*
X567900Y617250D01*
X567900Y629950D01*
X561550Y636300D01*
X567900Y642650D01*
X567900Y655350D01*
X561550Y661700D01*
X567900Y668050D01*
X567900Y680750D01*
X561550Y687100D01*
X567900Y693450D01*
X567900Y706150D01*
X561550Y712500D01*
X567900Y718850D01*
X567900Y731550D01*
X561550Y737900D01*
X567900Y744250D01*
X567900Y756950D01*
X561550Y763300D01*
X561550Y890300D02*
X523450Y890300D01*
X523450Y864900D02*
X561550Y864900D01*
X561550Y839500D02*
X523450Y839500D01*
X523450Y814100D02*
X561550Y814100D01*
X561550Y788700D02*
X523450Y788700D01*
X523450Y763300D02*
X561550Y763300D01*
X561550Y737900D02*
X523450Y737900D01*
X523450Y712500D02*
X561550Y712500D01*
X561550Y687100D02*
X523450Y687100D01*
X523450Y661700D02*
X561550Y661700D01*
X561550Y636300D02*
X523450Y636300D01*
X523450Y610900D02*
X561550Y610900D01*
X561550Y585500D02*
X523450Y585500D01*
X523450Y560100D02*
X561550Y560100D01*
X561550Y534700D02*
X523450Y534700D01*
X523450Y509300D02*
X561550Y509300D01*
X561550Y483900D02*
X523450Y483900D01*
X523450Y458500D02*
X561550Y458500D01*
X567900Y426750D02*
X567900Y414050D01*
M02*
