G04 EAGLE Gerber RS-274X export*
G75*
%MOMM*%
%FSLAX34Y34*%
%LPD*%
%INSoldermask Bottom*%
%IPPOS*%
%AMOC8*
5,1,8,0,0,1.08239X$1,22.5*%
G01*
%ADD10C,3.203200*%
%ADD11C,1.103200*%
%ADD12R,1.853200X1.853200*%
%ADD13C,2.303200*%
%ADD14C,1.853200*%
%ADD15C,1.727200*%
%ADD16P,2.144431X8X112.500000*%
%ADD17C,1.727200*%
%ADD18P,1.869504X8X292.500000*%
%ADD19C,3.403200*%
%ADD20C,0.959600*%
%ADD21C,0.909600*%


D10*
X30000Y970000D03*
X30000Y30000D03*
X1730000Y30000D03*
X1730000Y970000D03*
D11*
X404000Y920000D03*
X336000Y920000D03*
X409000Y690000D03*
X341000Y690000D03*
X409000Y455000D03*
X341000Y455000D03*
D12*
X220000Y810000D03*
D13*
X245000Y835000D03*
D14*
X270000Y810000D03*
D12*
X220000Y580000D03*
D13*
X245000Y605000D03*
D14*
X270000Y580000D03*
D12*
X220000Y345000D03*
D13*
X245000Y370000D03*
D14*
X270000Y345000D03*
D15*
X25000Y900400D03*
X25000Y875000D03*
X25000Y849600D03*
X25000Y660400D03*
X25000Y635000D03*
X25000Y609600D03*
X25000Y425400D03*
X25000Y400000D03*
X25000Y374600D03*
D11*
X409000Y220000D03*
X341000Y220000D03*
D12*
X220000Y110000D03*
D13*
X245000Y135000D03*
D14*
X270000Y110000D03*
D15*
X25000Y190400D03*
X25000Y165000D03*
X25000Y139600D03*
D11*
X999000Y610000D03*
X931000Y610000D03*
D12*
X805000Y505000D03*
D13*
X830000Y530000D03*
D14*
X855000Y505000D03*
D15*
X610000Y585400D03*
X610000Y560000D03*
X610000Y534600D03*
D11*
X1009000Y835000D03*
X941000Y835000D03*
D12*
X815000Y730000D03*
D13*
X840000Y755000D03*
D14*
X865000Y730000D03*
D15*
X620000Y810400D03*
X620000Y785000D03*
X620000Y759600D03*
D11*
X1346000Y800000D03*
X1414000Y800000D03*
D12*
X1540000Y905000D03*
D13*
X1515000Y880000D03*
D14*
X1490000Y905000D03*
D15*
X1735000Y814600D03*
X1735000Y840000D03*
X1735000Y865400D03*
D11*
X1346000Y560000D03*
X1414000Y560000D03*
D12*
X1540000Y670000D03*
D13*
X1515000Y645000D03*
D14*
X1490000Y670000D03*
D15*
X1735000Y589600D03*
X1735000Y615000D03*
X1735000Y640400D03*
D11*
X1341000Y330000D03*
X1409000Y330000D03*
D12*
X1535000Y435000D03*
D13*
X1510000Y410000D03*
D14*
X1485000Y435000D03*
D15*
X1735000Y359600D03*
X1735000Y385000D03*
X1735000Y410400D03*
D11*
X1341000Y80000D03*
X1409000Y80000D03*
D12*
X1535000Y185000D03*
D13*
X1510000Y160000D03*
D14*
X1485000Y185000D03*
D15*
X1735000Y99600D03*
X1735000Y125000D03*
X1735000Y150400D03*
D16*
X762100Y975000D03*
X787500Y975000D03*
X812900Y975000D03*
X838300Y975000D03*
X863700Y975000D03*
X889100Y975000D03*
X914500Y975000D03*
X939900Y975000D03*
D17*
X1164800Y428020D02*
X1164800Y412780D01*
X1139400Y412780D02*
X1139400Y428020D01*
X1114000Y428020D02*
X1114000Y412780D01*
X1088600Y412780D02*
X1088600Y428020D01*
X1063200Y428020D02*
X1063200Y412780D01*
X1037800Y412780D02*
X1037800Y428020D01*
X987000Y428020D02*
X987000Y412780D01*
X961600Y412780D02*
X961600Y428020D01*
X936200Y428020D02*
X936200Y412780D01*
X910800Y412780D02*
X910800Y428020D01*
X885400Y428020D02*
X885400Y412780D01*
X860000Y412780D02*
X860000Y428020D01*
X834600Y428020D02*
X834600Y412780D01*
X809200Y412780D02*
X809200Y428020D01*
X758400Y428020D02*
X758400Y412780D01*
X733000Y412780D02*
X733000Y428020D01*
X707600Y428020D02*
X707600Y412780D01*
X682200Y412780D02*
X682200Y428020D01*
X656800Y428020D02*
X656800Y412780D01*
X631400Y412780D02*
X631400Y428020D01*
X606000Y428020D02*
X606000Y412780D01*
X580600Y412780D02*
X580600Y428020D01*
X631400Y895380D02*
X631400Y910620D01*
X656800Y910620D02*
X656800Y895380D01*
X682200Y895380D02*
X682200Y910620D01*
X707600Y910620D02*
X707600Y895380D01*
X733000Y895380D02*
X733000Y910620D01*
X758400Y910620D02*
X758400Y895380D01*
X783800Y895380D02*
X783800Y910620D01*
X809200Y910620D02*
X809200Y895380D01*
X860000Y895380D02*
X860000Y910620D01*
X885400Y910620D02*
X885400Y895380D01*
X910800Y895380D02*
X910800Y910620D01*
X936200Y910620D02*
X936200Y895380D01*
X961600Y895380D02*
X961600Y910620D01*
X987000Y910620D02*
X987000Y895380D01*
X1012400Y895380D02*
X1012400Y910620D01*
X1037800Y910620D02*
X1037800Y895380D01*
X1075900Y895380D02*
X1075900Y910620D01*
X1101300Y910620D02*
X1101300Y895380D01*
X1126700Y895380D02*
X1126700Y910620D01*
X1152100Y910620D02*
X1152100Y895380D01*
X1177500Y895380D02*
X1177500Y910620D01*
X1202900Y910620D02*
X1202900Y895380D01*
X1228300Y895380D02*
X1228300Y910620D01*
X1253700Y910620D02*
X1253700Y895380D01*
D18*
X555200Y903000D03*
X529800Y903000D03*
X555200Y877600D03*
X529800Y877600D03*
X555200Y852200D03*
X529800Y852200D03*
X555200Y826800D03*
X529800Y826800D03*
X555200Y801400D03*
X529800Y801400D03*
X555200Y776000D03*
X529800Y776000D03*
X555200Y750600D03*
X529800Y750600D03*
X555200Y725200D03*
X529800Y725200D03*
X555200Y699800D03*
X529800Y699800D03*
X555200Y674400D03*
X529800Y674400D03*
X555200Y649000D03*
X529800Y649000D03*
X555200Y623600D03*
X529800Y623600D03*
X555200Y598200D03*
X529800Y598200D03*
X555200Y572800D03*
X529800Y572800D03*
X555200Y547400D03*
X529800Y547400D03*
X555200Y522000D03*
X529800Y522000D03*
X555200Y496600D03*
X529800Y496600D03*
X555200Y471200D03*
X529800Y471200D03*
D19*
X1342600Y903000D03*
X1342600Y420400D03*
X593300Y903000D03*
X529800Y420400D03*
D20*
X145000Y560000D03*
X485000Y355000D03*
X497000Y893000D03*
X508000Y662000D03*
X509028Y441972D03*
X505000Y182000D03*
X1297000Y843000D03*
X1283000Y564000D03*
X1565000Y405000D03*
X1273000Y360920D03*
X1147000Y372000D03*
D21*
X1426416Y116280D03*
X1455880Y116280D03*
D20*
X1278000Y102000D03*
X668000Y243000D03*
X767926Y242926D03*
X833000Y244000D03*
X938000Y244000D03*
X1009000Y243000D03*
X1083000Y244000D03*
X584350Y196650D03*
X1251000Y781000D03*
X679000Y70000D03*
X1129000Y195000D03*
X678000Y81000D03*
X1139000Y194000D03*
X638518Y203167D03*
X639000Y135000D03*
X808000Y214000D03*
X808000Y136000D03*
X976970Y210921D03*
X978000Y133000D03*
X1119176Y206824D03*
X1120000Y135000D03*
X582676Y119676D03*
X735376Y95376D03*
X698000Y80000D03*
X1133574Y80574D03*
X992876Y69876D03*
X625818Y209167D03*
X625000Y135000D03*
X795000Y214000D03*
X795000Y136000D03*
X963818Y198569D03*
X965000Y133000D03*
X1104000Y212000D03*
X1107000Y134000D03*
X1149000Y246000D03*
X601000Y136000D03*
X1164306Y537000D03*
X1205694Y538000D03*
M02*
