G04 EAGLE Gerber RS-274X export*
G75*
%MOMM*%
%FSLAX34Y34*%
%LPD*%
%INSolderpaste Top*%
%IPPOS*%
%AMOC8*
5,1,8,0,0,1.08239X$1,22.5*%
G01*
%ADD10R,1.100000X1.000000*%
%ADD11R,1.000000X1.100000*%
%ADD12R,2.200000X0.600000*%
%ADD13C,0.300000*%
%ADD14R,0.550000X0.450000*%
%ADD15C,0.150000*%
%ADD16R,1.200000X1.600000*%
%ADD17R,0.500000X0.650000*%
%ADD18R,0.450000X0.700000*%
%ADD19R,0.650000X1.550000*%
%ADD20R,0.800000X0.800000*%
%ADD21R,0.400000X0.850000*%
%ADD22R,2.200000X1.700000*%
%ADD23R,1.300000X1.550000*%
%ADD24R,0.600000X1.050000*%
%ADD25R,2.200000X1.400000*%


D10*
X45000Y801500D03*
X45000Y818500D03*
X95000Y818500D03*
X95000Y801500D03*
D11*
X61500Y925000D03*
X78500Y925000D03*
D12*
X69000Y871350D03*
X121000Y871350D03*
X69000Y884050D03*
X69000Y858650D03*
X69000Y845950D03*
X121000Y884050D03*
X121000Y858650D03*
X121000Y845950D03*
D11*
X103500Y900000D03*
X86500Y900000D03*
X120000Y818500D03*
X120000Y801500D03*
X70000Y801500D03*
X70000Y818500D03*
D10*
X101500Y925000D03*
X118500Y925000D03*
D11*
X145000Y888500D03*
X145000Y871500D03*
X145000Y923500D03*
X145000Y906500D03*
X145000Y801500D03*
X145000Y818500D03*
D10*
X145000Y853500D03*
X145000Y836500D03*
D13*
X198400Y866900D02*
X198400Y883600D01*
X198400Y866900D02*
X195400Y866900D01*
X195400Y883600D01*
X198400Y883600D01*
X198400Y869750D02*
X195400Y869750D01*
X195400Y872600D02*
X198400Y872600D01*
X198400Y875450D02*
X195400Y875450D01*
X195400Y878300D02*
X198400Y878300D01*
X198400Y881150D02*
X195400Y881150D01*
X211100Y883600D02*
X211100Y866900D01*
X208100Y866900D01*
X208100Y883600D01*
X211100Y883600D01*
X211100Y869750D02*
X208100Y869750D01*
X208100Y872600D02*
X211100Y872600D01*
X211100Y875450D02*
X208100Y875450D01*
X208100Y878300D02*
X211100Y878300D01*
X211100Y881150D02*
X208100Y881150D01*
X223800Y883600D02*
X223800Y866900D01*
X220800Y866900D01*
X220800Y883600D01*
X223800Y883600D01*
X223800Y869750D02*
X220800Y869750D01*
X220800Y872600D02*
X223800Y872600D01*
X223800Y875450D02*
X220800Y875450D01*
X220800Y878300D02*
X223800Y878300D01*
X223800Y881150D02*
X220800Y881150D01*
X236500Y883600D02*
X236500Y866900D01*
X233500Y866900D01*
X233500Y883600D01*
X236500Y883600D01*
X236500Y869750D02*
X233500Y869750D01*
X233500Y872600D02*
X236500Y872600D01*
X236500Y875450D02*
X233500Y875450D01*
X233500Y878300D02*
X236500Y878300D01*
X236500Y881150D02*
X233500Y881150D01*
X249200Y883600D02*
X249200Y866900D01*
X246200Y866900D01*
X246200Y883600D01*
X249200Y883600D01*
X249200Y869750D02*
X246200Y869750D01*
X246200Y872600D02*
X249200Y872600D01*
X249200Y875450D02*
X246200Y875450D01*
X246200Y878300D02*
X249200Y878300D01*
X249200Y881150D02*
X246200Y881150D01*
X261900Y883600D02*
X261900Y866900D01*
X258900Y866900D01*
X258900Y883600D01*
X261900Y883600D01*
X261900Y869750D02*
X258900Y869750D01*
X258900Y872600D02*
X261900Y872600D01*
X261900Y875450D02*
X258900Y875450D01*
X258900Y878300D02*
X261900Y878300D01*
X261900Y881150D02*
X258900Y881150D01*
X274600Y883600D02*
X274600Y866900D01*
X271600Y866900D01*
X271600Y883600D01*
X274600Y883600D01*
X274600Y869750D02*
X271600Y869750D01*
X271600Y872600D02*
X274600Y872600D01*
X274600Y875450D02*
X271600Y875450D01*
X271600Y878300D02*
X274600Y878300D01*
X274600Y881150D02*
X271600Y881150D01*
X274600Y916400D02*
X274600Y933100D01*
X274600Y916400D02*
X271600Y916400D01*
X271600Y933100D01*
X274600Y933100D01*
X274600Y919250D02*
X271600Y919250D01*
X271600Y922100D02*
X274600Y922100D01*
X274600Y924950D02*
X271600Y924950D01*
X271600Y927800D02*
X274600Y927800D01*
X274600Y930650D02*
X271600Y930650D01*
X261900Y933100D02*
X261900Y916400D01*
X258900Y916400D01*
X258900Y933100D01*
X261900Y933100D01*
X261900Y919250D02*
X258900Y919250D01*
X258900Y922100D02*
X261900Y922100D01*
X261900Y924950D02*
X258900Y924950D01*
X258900Y927800D02*
X261900Y927800D01*
X261900Y930650D02*
X258900Y930650D01*
X249200Y933100D02*
X249200Y916400D01*
X246200Y916400D01*
X246200Y933100D01*
X249200Y933100D01*
X249200Y919250D02*
X246200Y919250D01*
X246200Y922100D02*
X249200Y922100D01*
X249200Y924950D02*
X246200Y924950D01*
X246200Y927800D02*
X249200Y927800D01*
X249200Y930650D02*
X246200Y930650D01*
X236500Y933100D02*
X236500Y916400D01*
X233500Y916400D01*
X233500Y933100D01*
X236500Y933100D01*
X236500Y919250D02*
X233500Y919250D01*
X233500Y922100D02*
X236500Y922100D01*
X236500Y924950D02*
X233500Y924950D01*
X233500Y927800D02*
X236500Y927800D01*
X236500Y930650D02*
X233500Y930650D01*
X223800Y933100D02*
X223800Y916400D01*
X220800Y916400D01*
X220800Y933100D01*
X223800Y933100D01*
X223800Y919250D02*
X220800Y919250D01*
X220800Y922100D02*
X223800Y922100D01*
X223800Y924950D02*
X220800Y924950D01*
X220800Y927800D02*
X223800Y927800D01*
X223800Y930650D02*
X220800Y930650D01*
X211100Y933100D02*
X211100Y916400D01*
X208100Y916400D01*
X208100Y933100D01*
X211100Y933100D01*
X211100Y919250D02*
X208100Y919250D01*
X208100Y922100D02*
X211100Y922100D01*
X211100Y924950D02*
X208100Y924950D01*
X208100Y927800D02*
X211100Y927800D01*
X211100Y930650D02*
X208100Y930650D01*
X198400Y933100D02*
X198400Y916400D01*
X195400Y916400D01*
X195400Y933100D01*
X198400Y933100D01*
X198400Y919250D02*
X195400Y919250D01*
X195400Y922100D02*
X198400Y922100D01*
X198400Y924950D02*
X195400Y924950D01*
X195400Y927800D02*
X198400Y927800D01*
X198400Y930650D02*
X195400Y930650D01*
D10*
X171500Y815000D03*
X188500Y815000D03*
D11*
X175000Y881500D03*
X175000Y898500D03*
X171500Y840000D03*
X188500Y840000D03*
D10*
X188500Y790000D03*
X171500Y790000D03*
D11*
X300000Y871500D03*
X300000Y888500D03*
X300000Y836500D03*
X300000Y853500D03*
X325000Y791500D03*
X325000Y808500D03*
X355000Y826500D03*
X355000Y843500D03*
D10*
X325000Y826500D03*
X325000Y843500D03*
X330000Y878500D03*
X330000Y861500D03*
D14*
X360000Y865250D03*
X360000Y874750D03*
D10*
X380000Y826500D03*
X380000Y843500D03*
D11*
X223500Y955000D03*
X206500Y955000D03*
X246500Y955000D03*
X263500Y955000D03*
D15*
X448200Y864400D02*
X448200Y846200D01*
X443700Y846200D01*
X443700Y864400D01*
X448200Y864400D01*
X448200Y847625D02*
X443700Y847625D01*
X443700Y849050D02*
X448200Y849050D01*
X448200Y850475D02*
X443700Y850475D01*
X443700Y851900D02*
X448200Y851900D01*
X448200Y853325D02*
X443700Y853325D01*
X443700Y854750D02*
X448200Y854750D01*
X448200Y856175D02*
X443700Y856175D01*
X443700Y857600D02*
X448200Y857600D01*
X448200Y859025D02*
X443700Y859025D01*
X443700Y860450D02*
X448200Y860450D01*
X448200Y861875D02*
X443700Y861875D01*
X443700Y863300D02*
X448200Y863300D01*
X460900Y864400D02*
X460900Y846200D01*
X456400Y846200D01*
X456400Y864400D01*
X460900Y864400D01*
X460900Y847625D02*
X456400Y847625D01*
X456400Y849050D02*
X460900Y849050D01*
X460900Y850475D02*
X456400Y850475D01*
X456400Y851900D02*
X460900Y851900D01*
X460900Y853325D02*
X456400Y853325D01*
X456400Y854750D02*
X460900Y854750D01*
X460900Y856175D02*
X456400Y856175D01*
X456400Y857600D02*
X460900Y857600D01*
X460900Y859025D02*
X456400Y859025D01*
X456400Y860450D02*
X460900Y860450D01*
X460900Y861875D02*
X456400Y861875D01*
X456400Y863300D02*
X460900Y863300D01*
X473600Y864400D02*
X473600Y846200D01*
X469100Y846200D01*
X469100Y864400D01*
X473600Y864400D01*
X473600Y847625D02*
X469100Y847625D01*
X469100Y849050D02*
X473600Y849050D01*
X473600Y850475D02*
X469100Y850475D01*
X469100Y851900D02*
X473600Y851900D01*
X473600Y853325D02*
X469100Y853325D01*
X469100Y854750D02*
X473600Y854750D01*
X473600Y856175D02*
X469100Y856175D01*
X469100Y857600D02*
X473600Y857600D01*
X473600Y859025D02*
X469100Y859025D01*
X469100Y860450D02*
X473600Y860450D01*
X473600Y861875D02*
X469100Y861875D01*
X469100Y863300D02*
X473600Y863300D01*
X486300Y864400D02*
X486300Y846200D01*
X481800Y846200D01*
X481800Y864400D01*
X486300Y864400D01*
X486300Y847625D02*
X481800Y847625D01*
X481800Y849050D02*
X486300Y849050D01*
X486300Y850475D02*
X481800Y850475D01*
X481800Y851900D02*
X486300Y851900D01*
X486300Y853325D02*
X481800Y853325D01*
X481800Y854750D02*
X486300Y854750D01*
X486300Y856175D02*
X481800Y856175D01*
X481800Y857600D02*
X486300Y857600D01*
X486300Y859025D02*
X481800Y859025D01*
X481800Y860450D02*
X486300Y860450D01*
X486300Y861875D02*
X481800Y861875D01*
X481800Y863300D02*
X486300Y863300D01*
X486300Y895600D02*
X486300Y913800D01*
X486300Y895600D02*
X481800Y895600D01*
X481800Y913800D01*
X486300Y913800D01*
X486300Y897025D02*
X481800Y897025D01*
X481800Y898450D02*
X486300Y898450D01*
X486300Y899875D02*
X481800Y899875D01*
X481800Y901300D02*
X486300Y901300D01*
X486300Y902725D02*
X481800Y902725D01*
X481800Y904150D02*
X486300Y904150D01*
X486300Y905575D02*
X481800Y905575D01*
X481800Y907000D02*
X486300Y907000D01*
X486300Y908425D02*
X481800Y908425D01*
X481800Y909850D02*
X486300Y909850D01*
X486300Y911275D02*
X481800Y911275D01*
X481800Y912700D02*
X486300Y912700D01*
X473600Y913800D02*
X473600Y895600D01*
X469100Y895600D01*
X469100Y913800D01*
X473600Y913800D01*
X473600Y897025D02*
X469100Y897025D01*
X469100Y898450D02*
X473600Y898450D01*
X473600Y899875D02*
X469100Y899875D01*
X469100Y901300D02*
X473600Y901300D01*
X473600Y902725D02*
X469100Y902725D01*
X469100Y904150D02*
X473600Y904150D01*
X473600Y905575D02*
X469100Y905575D01*
X469100Y907000D02*
X473600Y907000D01*
X473600Y908425D02*
X469100Y908425D01*
X469100Y909850D02*
X473600Y909850D01*
X473600Y911275D02*
X469100Y911275D01*
X469100Y912700D02*
X473600Y912700D01*
X460900Y913800D02*
X460900Y895600D01*
X456400Y895600D01*
X456400Y913800D01*
X460900Y913800D01*
X460900Y897025D02*
X456400Y897025D01*
X456400Y898450D02*
X460900Y898450D01*
X460900Y899875D02*
X456400Y899875D01*
X456400Y901300D02*
X460900Y901300D01*
X460900Y902725D02*
X456400Y902725D01*
X456400Y904150D02*
X460900Y904150D01*
X460900Y905575D02*
X456400Y905575D01*
X456400Y907000D02*
X460900Y907000D01*
X460900Y908425D02*
X456400Y908425D01*
X456400Y909850D02*
X460900Y909850D01*
X460900Y911275D02*
X456400Y911275D01*
X456400Y912700D02*
X460900Y912700D01*
X448200Y913800D02*
X448200Y895600D01*
X443700Y895600D01*
X443700Y913800D01*
X448200Y913800D01*
X448200Y897025D02*
X443700Y897025D01*
X443700Y898450D02*
X448200Y898450D01*
X448200Y899875D02*
X443700Y899875D01*
X443700Y901300D02*
X448200Y901300D01*
X448200Y902725D02*
X443700Y902725D01*
X443700Y904150D02*
X448200Y904150D01*
X448200Y905575D02*
X443700Y905575D01*
X443700Y907000D02*
X448200Y907000D01*
X448200Y908425D02*
X443700Y908425D01*
X443700Y909850D02*
X448200Y909850D01*
X448200Y911275D02*
X443700Y911275D01*
X443700Y912700D02*
X448200Y912700D01*
D16*
X395000Y934000D03*
X370000Y906000D03*
X345000Y934000D03*
D11*
X493500Y830000D03*
X476500Y830000D03*
X423500Y830000D03*
X406500Y830000D03*
D10*
X446500Y930000D03*
X463500Y930000D03*
D11*
X450000Y828500D03*
X450000Y811500D03*
D10*
X396500Y865000D03*
X413500Y865000D03*
X45000Y566500D03*
X45000Y583500D03*
X95000Y583500D03*
X95000Y566500D03*
D11*
X61500Y700000D03*
X78500Y700000D03*
D12*
X69000Y641350D03*
X121000Y641350D03*
X69000Y654050D03*
X69000Y628650D03*
X69000Y615950D03*
X121000Y654050D03*
X121000Y628650D03*
X121000Y615950D03*
D11*
X120000Y583500D03*
X120000Y566500D03*
X70000Y566500D03*
X70000Y583500D03*
D10*
X96500Y700000D03*
X113500Y700000D03*
D11*
X145000Y658500D03*
X145000Y641500D03*
X145000Y693500D03*
X145000Y676500D03*
X145000Y571500D03*
X145000Y588500D03*
D10*
X145000Y623500D03*
X145000Y606500D03*
D13*
X203400Y636900D02*
X203400Y653600D01*
X203400Y636900D02*
X200400Y636900D01*
X200400Y653600D01*
X203400Y653600D01*
X203400Y639750D02*
X200400Y639750D01*
X200400Y642600D02*
X203400Y642600D01*
X203400Y645450D02*
X200400Y645450D01*
X200400Y648300D02*
X203400Y648300D01*
X203400Y651150D02*
X200400Y651150D01*
X216100Y653600D02*
X216100Y636900D01*
X213100Y636900D01*
X213100Y653600D01*
X216100Y653600D01*
X216100Y639750D02*
X213100Y639750D01*
X213100Y642600D02*
X216100Y642600D01*
X216100Y645450D02*
X213100Y645450D01*
X213100Y648300D02*
X216100Y648300D01*
X216100Y651150D02*
X213100Y651150D01*
X228800Y653600D02*
X228800Y636900D01*
X225800Y636900D01*
X225800Y653600D01*
X228800Y653600D01*
X228800Y639750D02*
X225800Y639750D01*
X225800Y642600D02*
X228800Y642600D01*
X228800Y645450D02*
X225800Y645450D01*
X225800Y648300D02*
X228800Y648300D01*
X228800Y651150D02*
X225800Y651150D01*
X241500Y653600D02*
X241500Y636900D01*
X238500Y636900D01*
X238500Y653600D01*
X241500Y653600D01*
X241500Y639750D02*
X238500Y639750D01*
X238500Y642600D02*
X241500Y642600D01*
X241500Y645450D02*
X238500Y645450D01*
X238500Y648300D02*
X241500Y648300D01*
X241500Y651150D02*
X238500Y651150D01*
X254200Y653600D02*
X254200Y636900D01*
X251200Y636900D01*
X251200Y653600D01*
X254200Y653600D01*
X254200Y639750D02*
X251200Y639750D01*
X251200Y642600D02*
X254200Y642600D01*
X254200Y645450D02*
X251200Y645450D01*
X251200Y648300D02*
X254200Y648300D01*
X254200Y651150D02*
X251200Y651150D01*
X266900Y653600D02*
X266900Y636900D01*
X263900Y636900D01*
X263900Y653600D01*
X266900Y653600D01*
X266900Y639750D02*
X263900Y639750D01*
X263900Y642600D02*
X266900Y642600D01*
X266900Y645450D02*
X263900Y645450D01*
X263900Y648300D02*
X266900Y648300D01*
X266900Y651150D02*
X263900Y651150D01*
X279600Y653600D02*
X279600Y636900D01*
X276600Y636900D01*
X276600Y653600D01*
X279600Y653600D01*
X279600Y639750D02*
X276600Y639750D01*
X276600Y642600D02*
X279600Y642600D01*
X279600Y645450D02*
X276600Y645450D01*
X276600Y648300D02*
X279600Y648300D01*
X279600Y651150D02*
X276600Y651150D01*
X279600Y686400D02*
X279600Y703100D01*
X279600Y686400D02*
X276600Y686400D01*
X276600Y703100D01*
X279600Y703100D01*
X279600Y689250D02*
X276600Y689250D01*
X276600Y692100D02*
X279600Y692100D01*
X279600Y694950D02*
X276600Y694950D01*
X276600Y697800D02*
X279600Y697800D01*
X279600Y700650D02*
X276600Y700650D01*
X266900Y703100D02*
X266900Y686400D01*
X263900Y686400D01*
X263900Y703100D01*
X266900Y703100D01*
X266900Y689250D02*
X263900Y689250D01*
X263900Y692100D02*
X266900Y692100D01*
X266900Y694950D02*
X263900Y694950D01*
X263900Y697800D02*
X266900Y697800D01*
X266900Y700650D02*
X263900Y700650D01*
X254200Y703100D02*
X254200Y686400D01*
X251200Y686400D01*
X251200Y703100D01*
X254200Y703100D01*
X254200Y689250D02*
X251200Y689250D01*
X251200Y692100D02*
X254200Y692100D01*
X254200Y694950D02*
X251200Y694950D01*
X251200Y697800D02*
X254200Y697800D01*
X254200Y700650D02*
X251200Y700650D01*
X241500Y703100D02*
X241500Y686400D01*
X238500Y686400D01*
X238500Y703100D01*
X241500Y703100D01*
X241500Y689250D02*
X238500Y689250D01*
X238500Y692100D02*
X241500Y692100D01*
X241500Y694950D02*
X238500Y694950D01*
X238500Y697800D02*
X241500Y697800D01*
X241500Y700650D02*
X238500Y700650D01*
X228800Y703100D02*
X228800Y686400D01*
X225800Y686400D01*
X225800Y703100D01*
X228800Y703100D01*
X228800Y689250D02*
X225800Y689250D01*
X225800Y692100D02*
X228800Y692100D01*
X228800Y694950D02*
X225800Y694950D01*
X225800Y697800D02*
X228800Y697800D01*
X228800Y700650D02*
X225800Y700650D01*
X216100Y703100D02*
X216100Y686400D01*
X213100Y686400D01*
X213100Y703100D01*
X216100Y703100D01*
X216100Y689250D02*
X213100Y689250D01*
X213100Y692100D02*
X216100Y692100D01*
X216100Y694950D02*
X213100Y694950D01*
X213100Y697800D02*
X216100Y697800D01*
X216100Y700650D02*
X213100Y700650D01*
X203400Y703100D02*
X203400Y686400D01*
X200400Y686400D01*
X200400Y703100D01*
X203400Y703100D01*
X203400Y689250D02*
X200400Y689250D01*
X200400Y692100D02*
X203400Y692100D01*
X203400Y694950D02*
X200400Y694950D01*
X200400Y697800D02*
X203400Y697800D01*
X203400Y700650D02*
X200400Y700650D01*
D10*
X171500Y585000D03*
X188500Y585000D03*
D11*
X180000Y651500D03*
X180000Y668500D03*
X171500Y610000D03*
X188500Y610000D03*
D10*
X188500Y560000D03*
X171500Y560000D03*
D11*
X305000Y623500D03*
X305000Y606500D03*
X305000Y641500D03*
X305000Y658500D03*
X330000Y561500D03*
X330000Y578500D03*
X360000Y596500D03*
X360000Y613500D03*
D10*
X330000Y596500D03*
X330000Y613500D03*
X335000Y648500D03*
X335000Y631500D03*
D14*
X365000Y635250D03*
X365000Y644750D03*
D10*
X385000Y596500D03*
X385000Y613500D03*
D11*
X233500Y720000D03*
X216500Y720000D03*
X256500Y720000D03*
X273500Y720000D03*
D15*
X453200Y639400D02*
X453200Y621200D01*
X448700Y621200D01*
X448700Y639400D01*
X453200Y639400D01*
X453200Y622625D02*
X448700Y622625D01*
X448700Y624050D02*
X453200Y624050D01*
X453200Y625475D02*
X448700Y625475D01*
X448700Y626900D02*
X453200Y626900D01*
X453200Y628325D02*
X448700Y628325D01*
X448700Y629750D02*
X453200Y629750D01*
X453200Y631175D02*
X448700Y631175D01*
X448700Y632600D02*
X453200Y632600D01*
X453200Y634025D02*
X448700Y634025D01*
X448700Y635450D02*
X453200Y635450D01*
X453200Y636875D02*
X448700Y636875D01*
X448700Y638300D02*
X453200Y638300D01*
X465900Y639400D02*
X465900Y621200D01*
X461400Y621200D01*
X461400Y639400D01*
X465900Y639400D01*
X465900Y622625D02*
X461400Y622625D01*
X461400Y624050D02*
X465900Y624050D01*
X465900Y625475D02*
X461400Y625475D01*
X461400Y626900D02*
X465900Y626900D01*
X465900Y628325D02*
X461400Y628325D01*
X461400Y629750D02*
X465900Y629750D01*
X465900Y631175D02*
X461400Y631175D01*
X461400Y632600D02*
X465900Y632600D01*
X465900Y634025D02*
X461400Y634025D01*
X461400Y635450D02*
X465900Y635450D01*
X465900Y636875D02*
X461400Y636875D01*
X461400Y638300D02*
X465900Y638300D01*
X478600Y639400D02*
X478600Y621200D01*
X474100Y621200D01*
X474100Y639400D01*
X478600Y639400D01*
X478600Y622625D02*
X474100Y622625D01*
X474100Y624050D02*
X478600Y624050D01*
X478600Y625475D02*
X474100Y625475D01*
X474100Y626900D02*
X478600Y626900D01*
X478600Y628325D02*
X474100Y628325D01*
X474100Y629750D02*
X478600Y629750D01*
X478600Y631175D02*
X474100Y631175D01*
X474100Y632600D02*
X478600Y632600D01*
X478600Y634025D02*
X474100Y634025D01*
X474100Y635450D02*
X478600Y635450D01*
X478600Y636875D02*
X474100Y636875D01*
X474100Y638300D02*
X478600Y638300D01*
X491300Y639400D02*
X491300Y621200D01*
X486800Y621200D01*
X486800Y639400D01*
X491300Y639400D01*
X491300Y622625D02*
X486800Y622625D01*
X486800Y624050D02*
X491300Y624050D01*
X491300Y625475D02*
X486800Y625475D01*
X486800Y626900D02*
X491300Y626900D01*
X491300Y628325D02*
X486800Y628325D01*
X486800Y629750D02*
X491300Y629750D01*
X491300Y631175D02*
X486800Y631175D01*
X486800Y632600D02*
X491300Y632600D01*
X491300Y634025D02*
X486800Y634025D01*
X486800Y635450D02*
X491300Y635450D01*
X491300Y636875D02*
X486800Y636875D01*
X486800Y638300D02*
X491300Y638300D01*
X491300Y670600D02*
X491300Y688800D01*
X491300Y670600D02*
X486800Y670600D01*
X486800Y688800D01*
X491300Y688800D01*
X491300Y672025D02*
X486800Y672025D01*
X486800Y673450D02*
X491300Y673450D01*
X491300Y674875D02*
X486800Y674875D01*
X486800Y676300D02*
X491300Y676300D01*
X491300Y677725D02*
X486800Y677725D01*
X486800Y679150D02*
X491300Y679150D01*
X491300Y680575D02*
X486800Y680575D01*
X486800Y682000D02*
X491300Y682000D01*
X491300Y683425D02*
X486800Y683425D01*
X486800Y684850D02*
X491300Y684850D01*
X491300Y686275D02*
X486800Y686275D01*
X486800Y687700D02*
X491300Y687700D01*
X478600Y688800D02*
X478600Y670600D01*
X474100Y670600D01*
X474100Y688800D01*
X478600Y688800D01*
X478600Y672025D02*
X474100Y672025D01*
X474100Y673450D02*
X478600Y673450D01*
X478600Y674875D02*
X474100Y674875D01*
X474100Y676300D02*
X478600Y676300D01*
X478600Y677725D02*
X474100Y677725D01*
X474100Y679150D02*
X478600Y679150D01*
X478600Y680575D02*
X474100Y680575D01*
X474100Y682000D02*
X478600Y682000D01*
X478600Y683425D02*
X474100Y683425D01*
X474100Y684850D02*
X478600Y684850D01*
X478600Y686275D02*
X474100Y686275D01*
X474100Y687700D02*
X478600Y687700D01*
X465900Y688800D02*
X465900Y670600D01*
X461400Y670600D01*
X461400Y688800D01*
X465900Y688800D01*
X465900Y672025D02*
X461400Y672025D01*
X461400Y673450D02*
X465900Y673450D01*
X465900Y674875D02*
X461400Y674875D01*
X461400Y676300D02*
X465900Y676300D01*
X465900Y677725D02*
X461400Y677725D01*
X461400Y679150D02*
X465900Y679150D01*
X465900Y680575D02*
X461400Y680575D01*
X461400Y682000D02*
X465900Y682000D01*
X465900Y683425D02*
X461400Y683425D01*
X461400Y684850D02*
X465900Y684850D01*
X465900Y686275D02*
X461400Y686275D01*
X461400Y687700D02*
X465900Y687700D01*
X453200Y688800D02*
X453200Y670600D01*
X448700Y670600D01*
X448700Y688800D01*
X453200Y688800D01*
X453200Y672025D02*
X448700Y672025D01*
X448700Y673450D02*
X453200Y673450D01*
X453200Y674875D02*
X448700Y674875D01*
X448700Y676300D02*
X453200Y676300D01*
X453200Y677725D02*
X448700Y677725D01*
X448700Y679150D02*
X453200Y679150D01*
X453200Y680575D02*
X448700Y680575D01*
X448700Y682000D02*
X453200Y682000D01*
X453200Y683425D02*
X448700Y683425D01*
X448700Y684850D02*
X453200Y684850D01*
X453200Y686275D02*
X448700Y686275D01*
X448700Y687700D02*
X453200Y687700D01*
D16*
X400000Y704000D03*
X375000Y676000D03*
X350000Y704000D03*
D11*
X411500Y605000D03*
X428500Y605000D03*
X481500Y605000D03*
X498500Y605000D03*
D10*
X451500Y705000D03*
X468500Y705000D03*
D11*
X455000Y603500D03*
X455000Y586500D03*
D10*
X418500Y640000D03*
X401500Y640000D03*
X45000Y331500D03*
X45000Y348500D03*
X95000Y348500D03*
X95000Y331500D03*
D11*
X66500Y470000D03*
X83500Y470000D03*
D12*
X69000Y406350D03*
X121000Y406350D03*
X69000Y419050D03*
X69000Y393650D03*
X69000Y380950D03*
X121000Y419050D03*
X121000Y393650D03*
X121000Y380950D03*
D11*
X103500Y440000D03*
X86500Y440000D03*
X120000Y348500D03*
X120000Y331500D03*
X70000Y331500D03*
X70000Y348500D03*
D10*
X101500Y470000D03*
X118500Y470000D03*
D11*
X145000Y423500D03*
X145000Y406500D03*
X145000Y458500D03*
X145000Y441500D03*
X145000Y336500D03*
X145000Y353500D03*
D10*
X145000Y388500D03*
X145000Y371500D03*
D13*
X203400Y401900D02*
X203400Y418600D01*
X203400Y401900D02*
X200400Y401900D01*
X200400Y418600D01*
X203400Y418600D01*
X203400Y404750D02*
X200400Y404750D01*
X200400Y407600D02*
X203400Y407600D01*
X203400Y410450D02*
X200400Y410450D01*
X200400Y413300D02*
X203400Y413300D01*
X203400Y416150D02*
X200400Y416150D01*
X216100Y418600D02*
X216100Y401900D01*
X213100Y401900D01*
X213100Y418600D01*
X216100Y418600D01*
X216100Y404750D02*
X213100Y404750D01*
X213100Y407600D02*
X216100Y407600D01*
X216100Y410450D02*
X213100Y410450D01*
X213100Y413300D02*
X216100Y413300D01*
X216100Y416150D02*
X213100Y416150D01*
X228800Y418600D02*
X228800Y401900D01*
X225800Y401900D01*
X225800Y418600D01*
X228800Y418600D01*
X228800Y404750D02*
X225800Y404750D01*
X225800Y407600D02*
X228800Y407600D01*
X228800Y410450D02*
X225800Y410450D01*
X225800Y413300D02*
X228800Y413300D01*
X228800Y416150D02*
X225800Y416150D01*
X241500Y418600D02*
X241500Y401900D01*
X238500Y401900D01*
X238500Y418600D01*
X241500Y418600D01*
X241500Y404750D02*
X238500Y404750D01*
X238500Y407600D02*
X241500Y407600D01*
X241500Y410450D02*
X238500Y410450D01*
X238500Y413300D02*
X241500Y413300D01*
X241500Y416150D02*
X238500Y416150D01*
X254200Y418600D02*
X254200Y401900D01*
X251200Y401900D01*
X251200Y418600D01*
X254200Y418600D01*
X254200Y404750D02*
X251200Y404750D01*
X251200Y407600D02*
X254200Y407600D01*
X254200Y410450D02*
X251200Y410450D01*
X251200Y413300D02*
X254200Y413300D01*
X254200Y416150D02*
X251200Y416150D01*
X266900Y418600D02*
X266900Y401900D01*
X263900Y401900D01*
X263900Y418600D01*
X266900Y418600D01*
X266900Y404750D02*
X263900Y404750D01*
X263900Y407600D02*
X266900Y407600D01*
X266900Y410450D02*
X263900Y410450D01*
X263900Y413300D02*
X266900Y413300D01*
X266900Y416150D02*
X263900Y416150D01*
X279600Y418600D02*
X279600Y401900D01*
X276600Y401900D01*
X276600Y418600D01*
X279600Y418600D01*
X279600Y404750D02*
X276600Y404750D01*
X276600Y407600D02*
X279600Y407600D01*
X279600Y410450D02*
X276600Y410450D01*
X276600Y413300D02*
X279600Y413300D01*
X279600Y416150D02*
X276600Y416150D01*
X279600Y451400D02*
X279600Y468100D01*
X279600Y451400D02*
X276600Y451400D01*
X276600Y468100D01*
X279600Y468100D01*
X279600Y454250D02*
X276600Y454250D01*
X276600Y457100D02*
X279600Y457100D01*
X279600Y459950D02*
X276600Y459950D01*
X276600Y462800D02*
X279600Y462800D01*
X279600Y465650D02*
X276600Y465650D01*
X266900Y468100D02*
X266900Y451400D01*
X263900Y451400D01*
X263900Y468100D01*
X266900Y468100D01*
X266900Y454250D02*
X263900Y454250D01*
X263900Y457100D02*
X266900Y457100D01*
X266900Y459950D02*
X263900Y459950D01*
X263900Y462800D02*
X266900Y462800D01*
X266900Y465650D02*
X263900Y465650D01*
X254200Y468100D02*
X254200Y451400D01*
X251200Y451400D01*
X251200Y468100D01*
X254200Y468100D01*
X254200Y454250D02*
X251200Y454250D01*
X251200Y457100D02*
X254200Y457100D01*
X254200Y459950D02*
X251200Y459950D01*
X251200Y462800D02*
X254200Y462800D01*
X254200Y465650D02*
X251200Y465650D01*
X241500Y468100D02*
X241500Y451400D01*
X238500Y451400D01*
X238500Y468100D01*
X241500Y468100D01*
X241500Y454250D02*
X238500Y454250D01*
X238500Y457100D02*
X241500Y457100D01*
X241500Y459950D02*
X238500Y459950D01*
X238500Y462800D02*
X241500Y462800D01*
X241500Y465650D02*
X238500Y465650D01*
X228800Y468100D02*
X228800Y451400D01*
X225800Y451400D01*
X225800Y468100D01*
X228800Y468100D01*
X228800Y454250D02*
X225800Y454250D01*
X225800Y457100D02*
X228800Y457100D01*
X228800Y459950D02*
X225800Y459950D01*
X225800Y462800D02*
X228800Y462800D01*
X228800Y465650D02*
X225800Y465650D01*
X216100Y468100D02*
X216100Y451400D01*
X213100Y451400D01*
X213100Y468100D01*
X216100Y468100D01*
X216100Y454250D02*
X213100Y454250D01*
X213100Y457100D02*
X216100Y457100D01*
X216100Y459950D02*
X213100Y459950D01*
X213100Y462800D02*
X216100Y462800D01*
X216100Y465650D02*
X213100Y465650D01*
X203400Y468100D02*
X203400Y451400D01*
X200400Y451400D01*
X200400Y468100D01*
X203400Y468100D01*
X203400Y454250D02*
X200400Y454250D01*
X200400Y457100D02*
X203400Y457100D01*
X203400Y459950D02*
X200400Y459950D01*
X200400Y462800D02*
X203400Y462800D01*
X203400Y465650D02*
X200400Y465650D01*
D10*
X171500Y350000D03*
X188500Y350000D03*
D11*
X180000Y416500D03*
X180000Y433500D03*
X171500Y375000D03*
X188500Y375000D03*
D10*
X188500Y325000D03*
X171500Y325000D03*
D11*
X305000Y388500D03*
X305000Y371500D03*
X305000Y406500D03*
X305000Y423500D03*
X330000Y326500D03*
X330000Y343500D03*
X360000Y361500D03*
X360000Y378500D03*
D10*
X330000Y361500D03*
X330000Y378500D03*
D14*
X365000Y400250D03*
X365000Y409750D03*
D10*
X385000Y361500D03*
X385000Y378500D03*
D11*
X233500Y485000D03*
X216500Y485000D03*
X256500Y485000D03*
X273500Y485000D03*
D15*
X453200Y404400D02*
X453200Y386200D01*
X448700Y386200D01*
X448700Y404400D01*
X453200Y404400D01*
X453200Y387625D02*
X448700Y387625D01*
X448700Y389050D02*
X453200Y389050D01*
X453200Y390475D02*
X448700Y390475D01*
X448700Y391900D02*
X453200Y391900D01*
X453200Y393325D02*
X448700Y393325D01*
X448700Y394750D02*
X453200Y394750D01*
X453200Y396175D02*
X448700Y396175D01*
X448700Y397600D02*
X453200Y397600D01*
X453200Y399025D02*
X448700Y399025D01*
X448700Y400450D02*
X453200Y400450D01*
X453200Y401875D02*
X448700Y401875D01*
X448700Y403300D02*
X453200Y403300D01*
X465900Y404400D02*
X465900Y386200D01*
X461400Y386200D01*
X461400Y404400D01*
X465900Y404400D01*
X465900Y387625D02*
X461400Y387625D01*
X461400Y389050D02*
X465900Y389050D01*
X465900Y390475D02*
X461400Y390475D01*
X461400Y391900D02*
X465900Y391900D01*
X465900Y393325D02*
X461400Y393325D01*
X461400Y394750D02*
X465900Y394750D01*
X465900Y396175D02*
X461400Y396175D01*
X461400Y397600D02*
X465900Y397600D01*
X465900Y399025D02*
X461400Y399025D01*
X461400Y400450D02*
X465900Y400450D01*
X465900Y401875D02*
X461400Y401875D01*
X461400Y403300D02*
X465900Y403300D01*
X478600Y404400D02*
X478600Y386200D01*
X474100Y386200D01*
X474100Y404400D01*
X478600Y404400D01*
X478600Y387625D02*
X474100Y387625D01*
X474100Y389050D02*
X478600Y389050D01*
X478600Y390475D02*
X474100Y390475D01*
X474100Y391900D02*
X478600Y391900D01*
X478600Y393325D02*
X474100Y393325D01*
X474100Y394750D02*
X478600Y394750D01*
X478600Y396175D02*
X474100Y396175D01*
X474100Y397600D02*
X478600Y397600D01*
X478600Y399025D02*
X474100Y399025D01*
X474100Y400450D02*
X478600Y400450D01*
X478600Y401875D02*
X474100Y401875D01*
X474100Y403300D02*
X478600Y403300D01*
X491300Y404400D02*
X491300Y386200D01*
X486800Y386200D01*
X486800Y404400D01*
X491300Y404400D01*
X491300Y387625D02*
X486800Y387625D01*
X486800Y389050D02*
X491300Y389050D01*
X491300Y390475D02*
X486800Y390475D01*
X486800Y391900D02*
X491300Y391900D01*
X491300Y393325D02*
X486800Y393325D01*
X486800Y394750D02*
X491300Y394750D01*
X491300Y396175D02*
X486800Y396175D01*
X486800Y397600D02*
X491300Y397600D01*
X491300Y399025D02*
X486800Y399025D01*
X486800Y400450D02*
X491300Y400450D01*
X491300Y401875D02*
X486800Y401875D01*
X486800Y403300D02*
X491300Y403300D01*
X491300Y435600D02*
X491300Y453800D01*
X491300Y435600D02*
X486800Y435600D01*
X486800Y453800D01*
X491300Y453800D01*
X491300Y437025D02*
X486800Y437025D01*
X486800Y438450D02*
X491300Y438450D01*
X491300Y439875D02*
X486800Y439875D01*
X486800Y441300D02*
X491300Y441300D01*
X491300Y442725D02*
X486800Y442725D01*
X486800Y444150D02*
X491300Y444150D01*
X491300Y445575D02*
X486800Y445575D01*
X486800Y447000D02*
X491300Y447000D01*
X491300Y448425D02*
X486800Y448425D01*
X486800Y449850D02*
X491300Y449850D01*
X491300Y451275D02*
X486800Y451275D01*
X486800Y452700D02*
X491300Y452700D01*
X478600Y453800D02*
X478600Y435600D01*
X474100Y435600D01*
X474100Y453800D01*
X478600Y453800D01*
X478600Y437025D02*
X474100Y437025D01*
X474100Y438450D02*
X478600Y438450D01*
X478600Y439875D02*
X474100Y439875D01*
X474100Y441300D02*
X478600Y441300D01*
X478600Y442725D02*
X474100Y442725D01*
X474100Y444150D02*
X478600Y444150D01*
X478600Y445575D02*
X474100Y445575D01*
X474100Y447000D02*
X478600Y447000D01*
X478600Y448425D02*
X474100Y448425D01*
X474100Y449850D02*
X478600Y449850D01*
X478600Y451275D02*
X474100Y451275D01*
X474100Y452700D02*
X478600Y452700D01*
X465900Y453800D02*
X465900Y435600D01*
X461400Y435600D01*
X461400Y453800D01*
X465900Y453800D01*
X465900Y437025D02*
X461400Y437025D01*
X461400Y438450D02*
X465900Y438450D01*
X465900Y439875D02*
X461400Y439875D01*
X461400Y441300D02*
X465900Y441300D01*
X465900Y442725D02*
X461400Y442725D01*
X461400Y444150D02*
X465900Y444150D01*
X465900Y445575D02*
X461400Y445575D01*
X461400Y447000D02*
X465900Y447000D01*
X465900Y448425D02*
X461400Y448425D01*
X461400Y449850D02*
X465900Y449850D01*
X465900Y451275D02*
X461400Y451275D01*
X461400Y452700D02*
X465900Y452700D01*
X453200Y453800D02*
X453200Y435600D01*
X448700Y435600D01*
X448700Y453800D01*
X453200Y453800D01*
X453200Y437025D02*
X448700Y437025D01*
X448700Y438450D02*
X453200Y438450D01*
X453200Y439875D02*
X448700Y439875D01*
X448700Y441300D02*
X453200Y441300D01*
X453200Y442725D02*
X448700Y442725D01*
X448700Y444150D02*
X453200Y444150D01*
X453200Y445575D02*
X448700Y445575D01*
X448700Y447000D02*
X453200Y447000D01*
X453200Y448425D02*
X448700Y448425D01*
X448700Y449850D02*
X453200Y449850D01*
X453200Y451275D02*
X448700Y451275D01*
X448700Y452700D02*
X453200Y452700D01*
D16*
X400000Y469000D03*
X375000Y441000D03*
X350000Y469000D03*
D11*
X411500Y370000D03*
X428500Y370000D03*
X481500Y370000D03*
X498500Y370000D03*
D10*
X451500Y470000D03*
X468500Y470000D03*
D11*
X455000Y368500D03*
X455000Y351500D03*
D10*
X418500Y405000D03*
X401500Y405000D03*
D11*
X103500Y670000D03*
X86500Y670000D03*
D10*
X45000Y86500D03*
X45000Y103500D03*
X70000Y103500D03*
X70000Y86500D03*
D11*
X66500Y235000D03*
X83500Y235000D03*
D12*
X69000Y166350D03*
X121000Y166350D03*
X69000Y179050D03*
X69000Y153650D03*
X69000Y140950D03*
X121000Y179050D03*
X121000Y153650D03*
X121000Y140950D03*
D11*
X103500Y200000D03*
X86500Y200000D03*
X120000Y103500D03*
X120000Y86500D03*
X95000Y86500D03*
X95000Y103500D03*
D10*
X101500Y235000D03*
X118500Y235000D03*
D11*
X150000Y178500D03*
X150000Y161500D03*
X150000Y213500D03*
X150000Y196500D03*
X150000Y91500D03*
X150000Y108500D03*
D10*
X150000Y143500D03*
X150000Y126500D03*
D13*
X208400Y171900D02*
X208400Y188600D01*
X208400Y171900D02*
X205400Y171900D01*
X205400Y188600D01*
X208400Y188600D01*
X208400Y174750D02*
X205400Y174750D01*
X205400Y177600D02*
X208400Y177600D01*
X208400Y180450D02*
X205400Y180450D01*
X205400Y183300D02*
X208400Y183300D01*
X208400Y186150D02*
X205400Y186150D01*
X221100Y188600D02*
X221100Y171900D01*
X218100Y171900D01*
X218100Y188600D01*
X221100Y188600D01*
X221100Y174750D02*
X218100Y174750D01*
X218100Y177600D02*
X221100Y177600D01*
X221100Y180450D02*
X218100Y180450D01*
X218100Y183300D02*
X221100Y183300D01*
X221100Y186150D02*
X218100Y186150D01*
X233800Y188600D02*
X233800Y171900D01*
X230800Y171900D01*
X230800Y188600D01*
X233800Y188600D01*
X233800Y174750D02*
X230800Y174750D01*
X230800Y177600D02*
X233800Y177600D01*
X233800Y180450D02*
X230800Y180450D01*
X230800Y183300D02*
X233800Y183300D01*
X233800Y186150D02*
X230800Y186150D01*
X246500Y188600D02*
X246500Y171900D01*
X243500Y171900D01*
X243500Y188600D01*
X246500Y188600D01*
X246500Y174750D02*
X243500Y174750D01*
X243500Y177600D02*
X246500Y177600D01*
X246500Y180450D02*
X243500Y180450D01*
X243500Y183300D02*
X246500Y183300D01*
X246500Y186150D02*
X243500Y186150D01*
X259200Y188600D02*
X259200Y171900D01*
X256200Y171900D01*
X256200Y188600D01*
X259200Y188600D01*
X259200Y174750D02*
X256200Y174750D01*
X256200Y177600D02*
X259200Y177600D01*
X259200Y180450D02*
X256200Y180450D01*
X256200Y183300D02*
X259200Y183300D01*
X259200Y186150D02*
X256200Y186150D01*
X271900Y188600D02*
X271900Y171900D01*
X268900Y171900D01*
X268900Y188600D01*
X271900Y188600D01*
X271900Y174750D02*
X268900Y174750D01*
X268900Y177600D02*
X271900Y177600D01*
X271900Y180450D02*
X268900Y180450D01*
X268900Y183300D02*
X271900Y183300D01*
X271900Y186150D02*
X268900Y186150D01*
X284600Y188600D02*
X284600Y171900D01*
X281600Y171900D01*
X281600Y188600D01*
X284600Y188600D01*
X284600Y174750D02*
X281600Y174750D01*
X281600Y177600D02*
X284600Y177600D01*
X284600Y180450D02*
X281600Y180450D01*
X281600Y183300D02*
X284600Y183300D01*
X284600Y186150D02*
X281600Y186150D01*
X284600Y221400D02*
X284600Y238100D01*
X284600Y221400D02*
X281600Y221400D01*
X281600Y238100D01*
X284600Y238100D01*
X284600Y224250D02*
X281600Y224250D01*
X281600Y227100D02*
X284600Y227100D01*
X284600Y229950D02*
X281600Y229950D01*
X281600Y232800D02*
X284600Y232800D01*
X284600Y235650D02*
X281600Y235650D01*
X271900Y238100D02*
X271900Y221400D01*
X268900Y221400D01*
X268900Y238100D01*
X271900Y238100D01*
X271900Y224250D02*
X268900Y224250D01*
X268900Y227100D02*
X271900Y227100D01*
X271900Y229950D02*
X268900Y229950D01*
X268900Y232800D02*
X271900Y232800D01*
X271900Y235650D02*
X268900Y235650D01*
X259200Y238100D02*
X259200Y221400D01*
X256200Y221400D01*
X256200Y238100D01*
X259200Y238100D01*
X259200Y224250D02*
X256200Y224250D01*
X256200Y227100D02*
X259200Y227100D01*
X259200Y229950D02*
X256200Y229950D01*
X256200Y232800D02*
X259200Y232800D01*
X259200Y235650D02*
X256200Y235650D01*
X246500Y238100D02*
X246500Y221400D01*
X243500Y221400D01*
X243500Y238100D01*
X246500Y238100D01*
X246500Y224250D02*
X243500Y224250D01*
X243500Y227100D02*
X246500Y227100D01*
X246500Y229950D02*
X243500Y229950D01*
X243500Y232800D02*
X246500Y232800D01*
X246500Y235650D02*
X243500Y235650D01*
X233800Y238100D02*
X233800Y221400D01*
X230800Y221400D01*
X230800Y238100D01*
X233800Y238100D01*
X233800Y224250D02*
X230800Y224250D01*
X230800Y227100D02*
X233800Y227100D01*
X233800Y229950D02*
X230800Y229950D01*
X230800Y232800D02*
X233800Y232800D01*
X233800Y235650D02*
X230800Y235650D01*
X221100Y238100D02*
X221100Y221400D01*
X218100Y221400D01*
X218100Y238100D01*
X221100Y238100D01*
X221100Y224250D02*
X218100Y224250D01*
X218100Y227100D02*
X221100Y227100D01*
X221100Y229950D02*
X218100Y229950D01*
X218100Y232800D02*
X221100Y232800D01*
X221100Y235650D02*
X218100Y235650D01*
X208400Y238100D02*
X208400Y221400D01*
X205400Y221400D01*
X205400Y238100D01*
X208400Y238100D01*
X208400Y224250D02*
X205400Y224250D01*
X205400Y227100D02*
X208400Y227100D01*
X208400Y229950D02*
X205400Y229950D01*
X205400Y232800D02*
X208400Y232800D01*
X208400Y235650D02*
X205400Y235650D01*
D10*
X176500Y105000D03*
X193500Y105000D03*
D11*
X185000Y186500D03*
X185000Y203500D03*
X176500Y130000D03*
X193500Y130000D03*
D10*
X193500Y80000D03*
X176500Y80000D03*
D11*
X305000Y171500D03*
X305000Y188500D03*
X305000Y153500D03*
X305000Y136500D03*
X330000Y81500D03*
X330000Y98500D03*
X360000Y106500D03*
X360000Y123500D03*
D10*
X330000Y116500D03*
X330000Y133500D03*
X335000Y173500D03*
X335000Y156500D03*
D14*
X365000Y155250D03*
X365000Y164750D03*
D10*
X385000Y106500D03*
X385000Y123500D03*
D11*
X233500Y260000D03*
X216500Y260000D03*
X256500Y260000D03*
X273500Y260000D03*
D15*
X453200Y149400D02*
X453200Y131200D01*
X448700Y131200D01*
X448700Y149400D01*
X453200Y149400D01*
X453200Y132625D02*
X448700Y132625D01*
X448700Y134050D02*
X453200Y134050D01*
X453200Y135475D02*
X448700Y135475D01*
X448700Y136900D02*
X453200Y136900D01*
X453200Y138325D02*
X448700Y138325D01*
X448700Y139750D02*
X453200Y139750D01*
X453200Y141175D02*
X448700Y141175D01*
X448700Y142600D02*
X453200Y142600D01*
X453200Y144025D02*
X448700Y144025D01*
X448700Y145450D02*
X453200Y145450D01*
X453200Y146875D02*
X448700Y146875D01*
X448700Y148300D02*
X453200Y148300D01*
X465900Y149400D02*
X465900Y131200D01*
X461400Y131200D01*
X461400Y149400D01*
X465900Y149400D01*
X465900Y132625D02*
X461400Y132625D01*
X461400Y134050D02*
X465900Y134050D01*
X465900Y135475D02*
X461400Y135475D01*
X461400Y136900D02*
X465900Y136900D01*
X465900Y138325D02*
X461400Y138325D01*
X461400Y139750D02*
X465900Y139750D01*
X465900Y141175D02*
X461400Y141175D01*
X461400Y142600D02*
X465900Y142600D01*
X465900Y144025D02*
X461400Y144025D01*
X461400Y145450D02*
X465900Y145450D01*
X465900Y146875D02*
X461400Y146875D01*
X461400Y148300D02*
X465900Y148300D01*
X478600Y149400D02*
X478600Y131200D01*
X474100Y131200D01*
X474100Y149400D01*
X478600Y149400D01*
X478600Y132625D02*
X474100Y132625D01*
X474100Y134050D02*
X478600Y134050D01*
X478600Y135475D02*
X474100Y135475D01*
X474100Y136900D02*
X478600Y136900D01*
X478600Y138325D02*
X474100Y138325D01*
X474100Y139750D02*
X478600Y139750D01*
X478600Y141175D02*
X474100Y141175D01*
X474100Y142600D02*
X478600Y142600D01*
X478600Y144025D02*
X474100Y144025D01*
X474100Y145450D02*
X478600Y145450D01*
X478600Y146875D02*
X474100Y146875D01*
X474100Y148300D02*
X478600Y148300D01*
X491300Y149400D02*
X491300Y131200D01*
X486800Y131200D01*
X486800Y149400D01*
X491300Y149400D01*
X491300Y132625D02*
X486800Y132625D01*
X486800Y134050D02*
X491300Y134050D01*
X491300Y135475D02*
X486800Y135475D01*
X486800Y136900D02*
X491300Y136900D01*
X491300Y138325D02*
X486800Y138325D01*
X486800Y139750D02*
X491300Y139750D01*
X491300Y141175D02*
X486800Y141175D01*
X486800Y142600D02*
X491300Y142600D01*
X491300Y144025D02*
X486800Y144025D01*
X486800Y145450D02*
X491300Y145450D01*
X491300Y146875D02*
X486800Y146875D01*
X486800Y148300D02*
X491300Y148300D01*
X491300Y180600D02*
X491300Y198800D01*
X491300Y180600D02*
X486800Y180600D01*
X486800Y198800D01*
X491300Y198800D01*
X491300Y182025D02*
X486800Y182025D01*
X486800Y183450D02*
X491300Y183450D01*
X491300Y184875D02*
X486800Y184875D01*
X486800Y186300D02*
X491300Y186300D01*
X491300Y187725D02*
X486800Y187725D01*
X486800Y189150D02*
X491300Y189150D01*
X491300Y190575D02*
X486800Y190575D01*
X486800Y192000D02*
X491300Y192000D01*
X491300Y193425D02*
X486800Y193425D01*
X486800Y194850D02*
X491300Y194850D01*
X491300Y196275D02*
X486800Y196275D01*
X486800Y197700D02*
X491300Y197700D01*
X478600Y198800D02*
X478600Y180600D01*
X474100Y180600D01*
X474100Y198800D01*
X478600Y198800D01*
X478600Y182025D02*
X474100Y182025D01*
X474100Y183450D02*
X478600Y183450D01*
X478600Y184875D02*
X474100Y184875D01*
X474100Y186300D02*
X478600Y186300D01*
X478600Y187725D02*
X474100Y187725D01*
X474100Y189150D02*
X478600Y189150D01*
X478600Y190575D02*
X474100Y190575D01*
X474100Y192000D02*
X478600Y192000D01*
X478600Y193425D02*
X474100Y193425D01*
X474100Y194850D02*
X478600Y194850D01*
X478600Y196275D02*
X474100Y196275D01*
X474100Y197700D02*
X478600Y197700D01*
X465900Y198800D02*
X465900Y180600D01*
X461400Y180600D01*
X461400Y198800D01*
X465900Y198800D01*
X465900Y182025D02*
X461400Y182025D01*
X461400Y183450D02*
X465900Y183450D01*
X465900Y184875D02*
X461400Y184875D01*
X461400Y186300D02*
X465900Y186300D01*
X465900Y187725D02*
X461400Y187725D01*
X461400Y189150D02*
X465900Y189150D01*
X465900Y190575D02*
X461400Y190575D01*
X461400Y192000D02*
X465900Y192000D01*
X465900Y193425D02*
X461400Y193425D01*
X461400Y194850D02*
X465900Y194850D01*
X465900Y196275D02*
X461400Y196275D01*
X461400Y197700D02*
X465900Y197700D01*
X453200Y198800D02*
X453200Y180600D01*
X448700Y180600D01*
X448700Y198800D01*
X453200Y198800D01*
X453200Y182025D02*
X448700Y182025D01*
X448700Y183450D02*
X453200Y183450D01*
X453200Y184875D02*
X448700Y184875D01*
X448700Y186300D02*
X453200Y186300D01*
X453200Y187725D02*
X448700Y187725D01*
X448700Y189150D02*
X453200Y189150D01*
X453200Y190575D02*
X448700Y190575D01*
X448700Y192000D02*
X453200Y192000D01*
X453200Y193425D02*
X448700Y193425D01*
X448700Y194850D02*
X453200Y194850D01*
X453200Y196275D02*
X448700Y196275D01*
X448700Y197700D02*
X453200Y197700D01*
D16*
X400000Y234000D03*
X375000Y206000D03*
X350000Y234000D03*
D11*
X411500Y115000D03*
X428500Y115000D03*
X476500Y115000D03*
X493500Y115000D03*
D10*
X451500Y225000D03*
X468500Y225000D03*
D11*
X455000Y113500D03*
X455000Y96500D03*
D10*
X418500Y160000D03*
X401500Y160000D03*
X620000Y481500D03*
X620000Y498500D03*
X650000Y498500D03*
X650000Y481500D03*
D11*
X651500Y630000D03*
X668500Y630000D03*
D12*
X654000Y561350D03*
X706000Y561350D03*
X654000Y574050D03*
X654000Y548650D03*
X654000Y535950D03*
X706000Y574050D03*
X706000Y548650D03*
X706000Y535950D03*
D11*
X688500Y600000D03*
X671500Y600000D03*
X710000Y498500D03*
X710000Y481500D03*
X680000Y481500D03*
X680000Y498500D03*
D10*
X691500Y630000D03*
X708500Y630000D03*
D11*
X735000Y573500D03*
X735000Y556500D03*
X735000Y608500D03*
X735000Y591500D03*
X735000Y486500D03*
X735000Y503500D03*
D10*
X735000Y538500D03*
X735000Y521500D03*
D13*
X798400Y566900D02*
X798400Y583600D01*
X798400Y566900D02*
X795400Y566900D01*
X795400Y583600D01*
X798400Y583600D01*
X798400Y569750D02*
X795400Y569750D01*
X795400Y572600D02*
X798400Y572600D01*
X798400Y575450D02*
X795400Y575450D01*
X795400Y578300D02*
X798400Y578300D01*
X798400Y581150D02*
X795400Y581150D01*
X811100Y583600D02*
X811100Y566900D01*
X808100Y566900D01*
X808100Y583600D01*
X811100Y583600D01*
X811100Y569750D02*
X808100Y569750D01*
X808100Y572600D02*
X811100Y572600D01*
X811100Y575450D02*
X808100Y575450D01*
X808100Y578300D02*
X811100Y578300D01*
X811100Y581150D02*
X808100Y581150D01*
X823800Y583600D02*
X823800Y566900D01*
X820800Y566900D01*
X820800Y583600D01*
X823800Y583600D01*
X823800Y569750D02*
X820800Y569750D01*
X820800Y572600D02*
X823800Y572600D01*
X823800Y575450D02*
X820800Y575450D01*
X820800Y578300D02*
X823800Y578300D01*
X823800Y581150D02*
X820800Y581150D01*
X836500Y583600D02*
X836500Y566900D01*
X833500Y566900D01*
X833500Y583600D01*
X836500Y583600D01*
X836500Y569750D02*
X833500Y569750D01*
X833500Y572600D02*
X836500Y572600D01*
X836500Y575450D02*
X833500Y575450D01*
X833500Y578300D02*
X836500Y578300D01*
X836500Y581150D02*
X833500Y581150D01*
X849200Y583600D02*
X849200Y566900D01*
X846200Y566900D01*
X846200Y583600D01*
X849200Y583600D01*
X849200Y569750D02*
X846200Y569750D01*
X846200Y572600D02*
X849200Y572600D01*
X849200Y575450D02*
X846200Y575450D01*
X846200Y578300D02*
X849200Y578300D01*
X849200Y581150D02*
X846200Y581150D01*
X861900Y583600D02*
X861900Y566900D01*
X858900Y566900D01*
X858900Y583600D01*
X861900Y583600D01*
X861900Y569750D02*
X858900Y569750D01*
X858900Y572600D02*
X861900Y572600D01*
X861900Y575450D02*
X858900Y575450D01*
X858900Y578300D02*
X861900Y578300D01*
X861900Y581150D02*
X858900Y581150D01*
X874600Y583600D02*
X874600Y566900D01*
X871600Y566900D01*
X871600Y583600D01*
X874600Y583600D01*
X874600Y569750D02*
X871600Y569750D01*
X871600Y572600D02*
X874600Y572600D01*
X874600Y575450D02*
X871600Y575450D01*
X871600Y578300D02*
X874600Y578300D01*
X874600Y581150D02*
X871600Y581150D01*
X874600Y616400D02*
X874600Y633100D01*
X874600Y616400D02*
X871600Y616400D01*
X871600Y633100D01*
X874600Y633100D01*
X874600Y619250D02*
X871600Y619250D01*
X871600Y622100D02*
X874600Y622100D01*
X874600Y624950D02*
X871600Y624950D01*
X871600Y627800D02*
X874600Y627800D01*
X874600Y630650D02*
X871600Y630650D01*
X861900Y633100D02*
X861900Y616400D01*
X858900Y616400D01*
X858900Y633100D01*
X861900Y633100D01*
X861900Y619250D02*
X858900Y619250D01*
X858900Y622100D02*
X861900Y622100D01*
X861900Y624950D02*
X858900Y624950D01*
X858900Y627800D02*
X861900Y627800D01*
X861900Y630650D02*
X858900Y630650D01*
X849200Y633100D02*
X849200Y616400D01*
X846200Y616400D01*
X846200Y633100D01*
X849200Y633100D01*
X849200Y619250D02*
X846200Y619250D01*
X846200Y622100D02*
X849200Y622100D01*
X849200Y624950D02*
X846200Y624950D01*
X846200Y627800D02*
X849200Y627800D01*
X849200Y630650D02*
X846200Y630650D01*
X836500Y633100D02*
X836500Y616400D01*
X833500Y616400D01*
X833500Y633100D01*
X836500Y633100D01*
X836500Y619250D02*
X833500Y619250D01*
X833500Y622100D02*
X836500Y622100D01*
X836500Y624950D02*
X833500Y624950D01*
X833500Y627800D02*
X836500Y627800D01*
X836500Y630650D02*
X833500Y630650D01*
X823800Y633100D02*
X823800Y616400D01*
X820800Y616400D01*
X820800Y633100D01*
X823800Y633100D01*
X823800Y619250D02*
X820800Y619250D01*
X820800Y622100D02*
X823800Y622100D01*
X823800Y624950D02*
X820800Y624950D01*
X820800Y627800D02*
X823800Y627800D01*
X823800Y630650D02*
X820800Y630650D01*
X811100Y633100D02*
X811100Y616400D01*
X808100Y616400D01*
X808100Y633100D01*
X811100Y633100D01*
X811100Y619250D02*
X808100Y619250D01*
X808100Y622100D02*
X811100Y622100D01*
X811100Y624950D02*
X808100Y624950D01*
X808100Y627800D02*
X811100Y627800D01*
X811100Y630650D02*
X808100Y630650D01*
X798400Y633100D02*
X798400Y616400D01*
X795400Y616400D01*
X795400Y633100D01*
X798400Y633100D01*
X798400Y619250D02*
X795400Y619250D01*
X795400Y622100D02*
X798400Y622100D01*
X798400Y624950D02*
X795400Y624950D01*
X795400Y627800D02*
X798400Y627800D01*
X798400Y630650D02*
X795400Y630650D01*
D10*
X761500Y500000D03*
X778500Y500000D03*
D11*
X770000Y581500D03*
X770000Y598500D03*
X761500Y525000D03*
X778500Y525000D03*
D10*
X778500Y475000D03*
X761500Y475000D03*
D11*
X895000Y566500D03*
X895000Y583500D03*
X895000Y548500D03*
X895000Y531500D03*
X920000Y476500D03*
X920000Y493500D03*
X950000Y501500D03*
X950000Y518500D03*
D10*
X920000Y511500D03*
X920000Y528500D03*
X925000Y568500D03*
X925000Y551500D03*
D14*
X955000Y550250D03*
X955000Y559750D03*
D10*
X975000Y501500D03*
X975000Y518500D03*
D11*
X828500Y655000D03*
X811500Y655000D03*
X851500Y655000D03*
X868500Y655000D03*
D15*
X1043200Y544400D02*
X1043200Y526200D01*
X1038700Y526200D01*
X1038700Y544400D01*
X1043200Y544400D01*
X1043200Y527625D02*
X1038700Y527625D01*
X1038700Y529050D02*
X1043200Y529050D01*
X1043200Y530475D02*
X1038700Y530475D01*
X1038700Y531900D02*
X1043200Y531900D01*
X1043200Y533325D02*
X1038700Y533325D01*
X1038700Y534750D02*
X1043200Y534750D01*
X1043200Y536175D02*
X1038700Y536175D01*
X1038700Y537600D02*
X1043200Y537600D01*
X1043200Y539025D02*
X1038700Y539025D01*
X1038700Y540450D02*
X1043200Y540450D01*
X1043200Y541875D02*
X1038700Y541875D01*
X1038700Y543300D02*
X1043200Y543300D01*
X1055900Y544400D02*
X1055900Y526200D01*
X1051400Y526200D01*
X1051400Y544400D01*
X1055900Y544400D01*
X1055900Y527625D02*
X1051400Y527625D01*
X1051400Y529050D02*
X1055900Y529050D01*
X1055900Y530475D02*
X1051400Y530475D01*
X1051400Y531900D02*
X1055900Y531900D01*
X1055900Y533325D02*
X1051400Y533325D01*
X1051400Y534750D02*
X1055900Y534750D01*
X1055900Y536175D02*
X1051400Y536175D01*
X1051400Y537600D02*
X1055900Y537600D01*
X1055900Y539025D02*
X1051400Y539025D01*
X1051400Y540450D02*
X1055900Y540450D01*
X1055900Y541875D02*
X1051400Y541875D01*
X1051400Y543300D02*
X1055900Y543300D01*
X1068600Y544400D02*
X1068600Y526200D01*
X1064100Y526200D01*
X1064100Y544400D01*
X1068600Y544400D01*
X1068600Y527625D02*
X1064100Y527625D01*
X1064100Y529050D02*
X1068600Y529050D01*
X1068600Y530475D02*
X1064100Y530475D01*
X1064100Y531900D02*
X1068600Y531900D01*
X1068600Y533325D02*
X1064100Y533325D01*
X1064100Y534750D02*
X1068600Y534750D01*
X1068600Y536175D02*
X1064100Y536175D01*
X1064100Y537600D02*
X1068600Y537600D01*
X1068600Y539025D02*
X1064100Y539025D01*
X1064100Y540450D02*
X1068600Y540450D01*
X1068600Y541875D02*
X1064100Y541875D01*
X1064100Y543300D02*
X1068600Y543300D01*
X1081300Y544400D02*
X1081300Y526200D01*
X1076800Y526200D01*
X1076800Y544400D01*
X1081300Y544400D01*
X1081300Y527625D02*
X1076800Y527625D01*
X1076800Y529050D02*
X1081300Y529050D01*
X1081300Y530475D02*
X1076800Y530475D01*
X1076800Y531900D02*
X1081300Y531900D01*
X1081300Y533325D02*
X1076800Y533325D01*
X1076800Y534750D02*
X1081300Y534750D01*
X1081300Y536175D02*
X1076800Y536175D01*
X1076800Y537600D02*
X1081300Y537600D01*
X1081300Y539025D02*
X1076800Y539025D01*
X1076800Y540450D02*
X1081300Y540450D01*
X1081300Y541875D02*
X1076800Y541875D01*
X1076800Y543300D02*
X1081300Y543300D01*
X1081300Y575600D02*
X1081300Y593800D01*
X1081300Y575600D02*
X1076800Y575600D01*
X1076800Y593800D01*
X1081300Y593800D01*
X1081300Y577025D02*
X1076800Y577025D01*
X1076800Y578450D02*
X1081300Y578450D01*
X1081300Y579875D02*
X1076800Y579875D01*
X1076800Y581300D02*
X1081300Y581300D01*
X1081300Y582725D02*
X1076800Y582725D01*
X1076800Y584150D02*
X1081300Y584150D01*
X1081300Y585575D02*
X1076800Y585575D01*
X1076800Y587000D02*
X1081300Y587000D01*
X1081300Y588425D02*
X1076800Y588425D01*
X1076800Y589850D02*
X1081300Y589850D01*
X1081300Y591275D02*
X1076800Y591275D01*
X1076800Y592700D02*
X1081300Y592700D01*
X1068600Y593800D02*
X1068600Y575600D01*
X1064100Y575600D01*
X1064100Y593800D01*
X1068600Y593800D01*
X1068600Y577025D02*
X1064100Y577025D01*
X1064100Y578450D02*
X1068600Y578450D01*
X1068600Y579875D02*
X1064100Y579875D01*
X1064100Y581300D02*
X1068600Y581300D01*
X1068600Y582725D02*
X1064100Y582725D01*
X1064100Y584150D02*
X1068600Y584150D01*
X1068600Y585575D02*
X1064100Y585575D01*
X1064100Y587000D02*
X1068600Y587000D01*
X1068600Y588425D02*
X1064100Y588425D01*
X1064100Y589850D02*
X1068600Y589850D01*
X1068600Y591275D02*
X1064100Y591275D01*
X1064100Y592700D02*
X1068600Y592700D01*
X1055900Y593800D02*
X1055900Y575600D01*
X1051400Y575600D01*
X1051400Y593800D01*
X1055900Y593800D01*
X1055900Y577025D02*
X1051400Y577025D01*
X1051400Y578450D02*
X1055900Y578450D01*
X1055900Y579875D02*
X1051400Y579875D01*
X1051400Y581300D02*
X1055900Y581300D01*
X1055900Y582725D02*
X1051400Y582725D01*
X1051400Y584150D02*
X1055900Y584150D01*
X1055900Y585575D02*
X1051400Y585575D01*
X1051400Y587000D02*
X1055900Y587000D01*
X1055900Y588425D02*
X1051400Y588425D01*
X1051400Y589850D02*
X1055900Y589850D01*
X1055900Y591275D02*
X1051400Y591275D01*
X1051400Y592700D02*
X1055900Y592700D01*
X1043200Y593800D02*
X1043200Y575600D01*
X1038700Y575600D01*
X1038700Y593800D01*
X1043200Y593800D01*
X1043200Y577025D02*
X1038700Y577025D01*
X1038700Y578450D02*
X1043200Y578450D01*
X1043200Y579875D02*
X1038700Y579875D01*
X1038700Y581300D02*
X1043200Y581300D01*
X1043200Y582725D02*
X1038700Y582725D01*
X1038700Y584150D02*
X1043200Y584150D01*
X1043200Y585575D02*
X1038700Y585575D01*
X1038700Y587000D02*
X1043200Y587000D01*
X1043200Y588425D02*
X1038700Y588425D01*
X1038700Y589850D02*
X1043200Y589850D01*
X1043200Y591275D02*
X1038700Y591275D01*
X1038700Y592700D02*
X1043200Y592700D01*
D16*
X990000Y624000D03*
X965000Y596000D03*
X940000Y624000D03*
D11*
X1001500Y510000D03*
X1018500Y510000D03*
X1066500Y510000D03*
X1083500Y510000D03*
D10*
X1041500Y615000D03*
X1058500Y615000D03*
D11*
X1045000Y508500D03*
X1045000Y491500D03*
D10*
X1008500Y550000D03*
X991500Y550000D03*
X630000Y706500D03*
X630000Y723500D03*
X660000Y723500D03*
X660000Y706500D03*
D11*
X661500Y855000D03*
X678500Y855000D03*
D12*
X664000Y786350D03*
X716000Y786350D03*
X664000Y799050D03*
X664000Y773650D03*
X664000Y760950D03*
X716000Y799050D03*
X716000Y773650D03*
X716000Y760950D03*
D11*
X698500Y825000D03*
X681500Y825000D03*
X720000Y723500D03*
X720000Y706500D03*
X690000Y706500D03*
X690000Y723500D03*
D10*
X701500Y855000D03*
X718500Y855000D03*
D11*
X745000Y816500D03*
X745000Y833500D03*
X745000Y781500D03*
X745000Y798500D03*
X745000Y711500D03*
X745000Y728500D03*
D10*
X745000Y763500D03*
X745000Y746500D03*
D13*
X808400Y791900D02*
X808400Y808600D01*
X808400Y791900D02*
X805400Y791900D01*
X805400Y808600D01*
X808400Y808600D01*
X808400Y794750D02*
X805400Y794750D01*
X805400Y797600D02*
X808400Y797600D01*
X808400Y800450D02*
X805400Y800450D01*
X805400Y803300D02*
X808400Y803300D01*
X808400Y806150D02*
X805400Y806150D01*
X821100Y808600D02*
X821100Y791900D01*
X818100Y791900D01*
X818100Y808600D01*
X821100Y808600D01*
X821100Y794750D02*
X818100Y794750D01*
X818100Y797600D02*
X821100Y797600D01*
X821100Y800450D02*
X818100Y800450D01*
X818100Y803300D02*
X821100Y803300D01*
X821100Y806150D02*
X818100Y806150D01*
X833800Y808600D02*
X833800Y791900D01*
X830800Y791900D01*
X830800Y808600D01*
X833800Y808600D01*
X833800Y794750D02*
X830800Y794750D01*
X830800Y797600D02*
X833800Y797600D01*
X833800Y800450D02*
X830800Y800450D01*
X830800Y803300D02*
X833800Y803300D01*
X833800Y806150D02*
X830800Y806150D01*
X846500Y808600D02*
X846500Y791900D01*
X843500Y791900D01*
X843500Y808600D01*
X846500Y808600D01*
X846500Y794750D02*
X843500Y794750D01*
X843500Y797600D02*
X846500Y797600D01*
X846500Y800450D02*
X843500Y800450D01*
X843500Y803300D02*
X846500Y803300D01*
X846500Y806150D02*
X843500Y806150D01*
X859200Y808600D02*
X859200Y791900D01*
X856200Y791900D01*
X856200Y808600D01*
X859200Y808600D01*
X859200Y794750D02*
X856200Y794750D01*
X856200Y797600D02*
X859200Y797600D01*
X859200Y800450D02*
X856200Y800450D01*
X856200Y803300D02*
X859200Y803300D01*
X859200Y806150D02*
X856200Y806150D01*
X871900Y808600D02*
X871900Y791900D01*
X868900Y791900D01*
X868900Y808600D01*
X871900Y808600D01*
X871900Y794750D02*
X868900Y794750D01*
X868900Y797600D02*
X871900Y797600D01*
X871900Y800450D02*
X868900Y800450D01*
X868900Y803300D02*
X871900Y803300D01*
X871900Y806150D02*
X868900Y806150D01*
X884600Y808600D02*
X884600Y791900D01*
X881600Y791900D01*
X881600Y808600D01*
X884600Y808600D01*
X884600Y794750D02*
X881600Y794750D01*
X881600Y797600D02*
X884600Y797600D01*
X884600Y800450D02*
X881600Y800450D01*
X881600Y803300D02*
X884600Y803300D01*
X884600Y806150D02*
X881600Y806150D01*
X884600Y841400D02*
X884600Y858100D01*
X884600Y841400D02*
X881600Y841400D01*
X881600Y858100D01*
X884600Y858100D01*
X884600Y844250D02*
X881600Y844250D01*
X881600Y847100D02*
X884600Y847100D01*
X884600Y849950D02*
X881600Y849950D01*
X881600Y852800D02*
X884600Y852800D01*
X884600Y855650D02*
X881600Y855650D01*
X871900Y858100D02*
X871900Y841400D01*
X868900Y841400D01*
X868900Y858100D01*
X871900Y858100D01*
X871900Y844250D02*
X868900Y844250D01*
X868900Y847100D02*
X871900Y847100D01*
X871900Y849950D02*
X868900Y849950D01*
X868900Y852800D02*
X871900Y852800D01*
X871900Y855650D02*
X868900Y855650D01*
X859200Y858100D02*
X859200Y841400D01*
X856200Y841400D01*
X856200Y858100D01*
X859200Y858100D01*
X859200Y844250D02*
X856200Y844250D01*
X856200Y847100D02*
X859200Y847100D01*
X859200Y849950D02*
X856200Y849950D01*
X856200Y852800D02*
X859200Y852800D01*
X859200Y855650D02*
X856200Y855650D01*
X846500Y858100D02*
X846500Y841400D01*
X843500Y841400D01*
X843500Y858100D01*
X846500Y858100D01*
X846500Y844250D02*
X843500Y844250D01*
X843500Y847100D02*
X846500Y847100D01*
X846500Y849950D02*
X843500Y849950D01*
X843500Y852800D02*
X846500Y852800D01*
X846500Y855650D02*
X843500Y855650D01*
X833800Y858100D02*
X833800Y841400D01*
X830800Y841400D01*
X830800Y858100D01*
X833800Y858100D01*
X833800Y844250D02*
X830800Y844250D01*
X830800Y847100D02*
X833800Y847100D01*
X833800Y849950D02*
X830800Y849950D01*
X830800Y852800D02*
X833800Y852800D01*
X833800Y855650D02*
X830800Y855650D01*
X821100Y858100D02*
X821100Y841400D01*
X818100Y841400D01*
X818100Y858100D01*
X821100Y858100D01*
X821100Y844250D02*
X818100Y844250D01*
X818100Y847100D02*
X821100Y847100D01*
X821100Y849950D02*
X818100Y849950D01*
X818100Y852800D02*
X821100Y852800D01*
X821100Y855650D02*
X818100Y855650D01*
X808400Y858100D02*
X808400Y841400D01*
X805400Y841400D01*
X805400Y858100D01*
X808400Y858100D01*
X808400Y844250D02*
X805400Y844250D01*
X805400Y847100D02*
X808400Y847100D01*
X808400Y849950D02*
X805400Y849950D01*
X805400Y852800D02*
X808400Y852800D01*
X808400Y855650D02*
X805400Y855650D01*
D10*
X771500Y725000D03*
X788500Y725000D03*
D11*
X780000Y806500D03*
X780000Y823500D03*
X771500Y755000D03*
X788500Y755000D03*
D10*
X788500Y695000D03*
X771500Y695000D03*
D11*
X905000Y791500D03*
X905000Y808500D03*
X905000Y773500D03*
X905000Y756500D03*
X930000Y701500D03*
X930000Y718500D03*
X960000Y726500D03*
X960000Y743500D03*
D10*
X930000Y736500D03*
X930000Y753500D03*
X935000Y793500D03*
X935000Y776500D03*
D14*
X965000Y775250D03*
X965000Y784750D03*
D10*
X985000Y726500D03*
X985000Y743500D03*
D11*
X843500Y880000D03*
X826500Y880000D03*
X901500Y870000D03*
X918500Y870000D03*
D15*
X1053200Y769400D02*
X1053200Y751200D01*
X1048700Y751200D01*
X1048700Y769400D01*
X1053200Y769400D01*
X1053200Y752625D02*
X1048700Y752625D01*
X1048700Y754050D02*
X1053200Y754050D01*
X1053200Y755475D02*
X1048700Y755475D01*
X1048700Y756900D02*
X1053200Y756900D01*
X1053200Y758325D02*
X1048700Y758325D01*
X1048700Y759750D02*
X1053200Y759750D01*
X1053200Y761175D02*
X1048700Y761175D01*
X1048700Y762600D02*
X1053200Y762600D01*
X1053200Y764025D02*
X1048700Y764025D01*
X1048700Y765450D02*
X1053200Y765450D01*
X1053200Y766875D02*
X1048700Y766875D01*
X1048700Y768300D02*
X1053200Y768300D01*
X1065900Y769400D02*
X1065900Y751200D01*
X1061400Y751200D01*
X1061400Y769400D01*
X1065900Y769400D01*
X1065900Y752625D02*
X1061400Y752625D01*
X1061400Y754050D02*
X1065900Y754050D01*
X1065900Y755475D02*
X1061400Y755475D01*
X1061400Y756900D02*
X1065900Y756900D01*
X1065900Y758325D02*
X1061400Y758325D01*
X1061400Y759750D02*
X1065900Y759750D01*
X1065900Y761175D02*
X1061400Y761175D01*
X1061400Y762600D02*
X1065900Y762600D01*
X1065900Y764025D02*
X1061400Y764025D01*
X1061400Y765450D02*
X1065900Y765450D01*
X1065900Y766875D02*
X1061400Y766875D01*
X1061400Y768300D02*
X1065900Y768300D01*
X1078600Y769400D02*
X1078600Y751200D01*
X1074100Y751200D01*
X1074100Y769400D01*
X1078600Y769400D01*
X1078600Y752625D02*
X1074100Y752625D01*
X1074100Y754050D02*
X1078600Y754050D01*
X1078600Y755475D02*
X1074100Y755475D01*
X1074100Y756900D02*
X1078600Y756900D01*
X1078600Y758325D02*
X1074100Y758325D01*
X1074100Y759750D02*
X1078600Y759750D01*
X1078600Y761175D02*
X1074100Y761175D01*
X1074100Y762600D02*
X1078600Y762600D01*
X1078600Y764025D02*
X1074100Y764025D01*
X1074100Y765450D02*
X1078600Y765450D01*
X1078600Y766875D02*
X1074100Y766875D01*
X1074100Y768300D02*
X1078600Y768300D01*
X1091300Y769400D02*
X1091300Y751200D01*
X1086800Y751200D01*
X1086800Y769400D01*
X1091300Y769400D01*
X1091300Y752625D02*
X1086800Y752625D01*
X1086800Y754050D02*
X1091300Y754050D01*
X1091300Y755475D02*
X1086800Y755475D01*
X1086800Y756900D02*
X1091300Y756900D01*
X1091300Y758325D02*
X1086800Y758325D01*
X1086800Y759750D02*
X1091300Y759750D01*
X1091300Y761175D02*
X1086800Y761175D01*
X1086800Y762600D02*
X1091300Y762600D01*
X1091300Y764025D02*
X1086800Y764025D01*
X1086800Y765450D02*
X1091300Y765450D01*
X1091300Y766875D02*
X1086800Y766875D01*
X1086800Y768300D02*
X1091300Y768300D01*
X1091300Y800600D02*
X1091300Y818800D01*
X1091300Y800600D02*
X1086800Y800600D01*
X1086800Y818800D01*
X1091300Y818800D01*
X1091300Y802025D02*
X1086800Y802025D01*
X1086800Y803450D02*
X1091300Y803450D01*
X1091300Y804875D02*
X1086800Y804875D01*
X1086800Y806300D02*
X1091300Y806300D01*
X1091300Y807725D02*
X1086800Y807725D01*
X1086800Y809150D02*
X1091300Y809150D01*
X1091300Y810575D02*
X1086800Y810575D01*
X1086800Y812000D02*
X1091300Y812000D01*
X1091300Y813425D02*
X1086800Y813425D01*
X1086800Y814850D02*
X1091300Y814850D01*
X1091300Y816275D02*
X1086800Y816275D01*
X1086800Y817700D02*
X1091300Y817700D01*
X1078600Y818800D02*
X1078600Y800600D01*
X1074100Y800600D01*
X1074100Y818800D01*
X1078600Y818800D01*
X1078600Y802025D02*
X1074100Y802025D01*
X1074100Y803450D02*
X1078600Y803450D01*
X1078600Y804875D02*
X1074100Y804875D01*
X1074100Y806300D02*
X1078600Y806300D01*
X1078600Y807725D02*
X1074100Y807725D01*
X1074100Y809150D02*
X1078600Y809150D01*
X1078600Y810575D02*
X1074100Y810575D01*
X1074100Y812000D02*
X1078600Y812000D01*
X1078600Y813425D02*
X1074100Y813425D01*
X1074100Y814850D02*
X1078600Y814850D01*
X1078600Y816275D02*
X1074100Y816275D01*
X1074100Y817700D02*
X1078600Y817700D01*
X1065900Y818800D02*
X1065900Y800600D01*
X1061400Y800600D01*
X1061400Y818800D01*
X1065900Y818800D01*
X1065900Y802025D02*
X1061400Y802025D01*
X1061400Y803450D02*
X1065900Y803450D01*
X1065900Y804875D02*
X1061400Y804875D01*
X1061400Y806300D02*
X1065900Y806300D01*
X1065900Y807725D02*
X1061400Y807725D01*
X1061400Y809150D02*
X1065900Y809150D01*
X1065900Y810575D02*
X1061400Y810575D01*
X1061400Y812000D02*
X1065900Y812000D01*
X1065900Y813425D02*
X1061400Y813425D01*
X1061400Y814850D02*
X1065900Y814850D01*
X1065900Y816275D02*
X1061400Y816275D01*
X1061400Y817700D02*
X1065900Y817700D01*
X1053200Y818800D02*
X1053200Y800600D01*
X1048700Y800600D01*
X1048700Y818800D01*
X1053200Y818800D01*
X1053200Y802025D02*
X1048700Y802025D01*
X1048700Y803450D02*
X1053200Y803450D01*
X1053200Y804875D02*
X1048700Y804875D01*
X1048700Y806300D02*
X1053200Y806300D01*
X1053200Y807725D02*
X1048700Y807725D01*
X1048700Y809150D02*
X1053200Y809150D01*
X1053200Y810575D02*
X1048700Y810575D01*
X1048700Y812000D02*
X1053200Y812000D01*
X1053200Y813425D02*
X1048700Y813425D01*
X1048700Y814850D02*
X1053200Y814850D01*
X1053200Y816275D02*
X1048700Y816275D01*
X1048700Y817700D02*
X1053200Y817700D01*
D16*
X1000000Y849000D03*
X975000Y821000D03*
X950000Y849000D03*
D11*
X1016500Y735000D03*
X1033500Y735000D03*
X1076500Y735000D03*
X1093500Y735000D03*
D10*
X1051500Y840000D03*
X1068500Y840000D03*
D11*
X1055000Y733500D03*
X1055000Y716500D03*
D10*
X1001500Y775000D03*
X1018500Y775000D03*
X1725000Y928500D03*
X1725000Y911500D03*
X1695000Y911500D03*
X1695000Y928500D03*
D11*
X1693500Y780000D03*
X1676500Y780000D03*
D12*
X1691000Y848650D03*
X1639000Y848650D03*
X1691000Y835950D03*
X1691000Y861350D03*
X1691000Y874050D03*
X1639000Y835950D03*
X1639000Y861350D03*
X1639000Y874050D03*
D11*
X1656500Y810000D03*
X1673500Y810000D03*
X1635000Y911500D03*
X1635000Y928500D03*
X1665000Y928500D03*
X1665000Y911500D03*
D10*
X1653500Y780000D03*
X1636500Y780000D03*
D11*
X1610000Y818500D03*
X1610000Y801500D03*
X1610000Y853500D03*
X1610000Y836500D03*
X1610000Y923500D03*
X1610000Y906500D03*
D10*
X1610000Y871500D03*
X1610000Y888500D03*
D13*
X1546600Y843100D02*
X1546600Y826400D01*
X1546600Y843100D02*
X1549600Y843100D01*
X1549600Y826400D01*
X1546600Y826400D01*
X1546600Y829250D02*
X1549600Y829250D01*
X1549600Y832100D02*
X1546600Y832100D01*
X1546600Y834950D02*
X1549600Y834950D01*
X1549600Y837800D02*
X1546600Y837800D01*
X1546600Y840650D02*
X1549600Y840650D01*
X1533900Y843100D02*
X1533900Y826400D01*
X1533900Y843100D02*
X1536900Y843100D01*
X1536900Y826400D01*
X1533900Y826400D01*
X1533900Y829250D02*
X1536900Y829250D01*
X1536900Y832100D02*
X1533900Y832100D01*
X1533900Y834950D02*
X1536900Y834950D01*
X1536900Y837800D02*
X1533900Y837800D01*
X1533900Y840650D02*
X1536900Y840650D01*
X1521200Y843100D02*
X1521200Y826400D01*
X1521200Y843100D02*
X1524200Y843100D01*
X1524200Y826400D01*
X1521200Y826400D01*
X1521200Y829250D02*
X1524200Y829250D01*
X1524200Y832100D02*
X1521200Y832100D01*
X1521200Y834950D02*
X1524200Y834950D01*
X1524200Y837800D02*
X1521200Y837800D01*
X1521200Y840650D02*
X1524200Y840650D01*
X1508500Y843100D02*
X1508500Y826400D01*
X1508500Y843100D02*
X1511500Y843100D01*
X1511500Y826400D01*
X1508500Y826400D01*
X1508500Y829250D02*
X1511500Y829250D01*
X1511500Y832100D02*
X1508500Y832100D01*
X1508500Y834950D02*
X1511500Y834950D01*
X1511500Y837800D02*
X1508500Y837800D01*
X1508500Y840650D02*
X1511500Y840650D01*
X1495800Y843100D02*
X1495800Y826400D01*
X1495800Y843100D02*
X1498800Y843100D01*
X1498800Y826400D01*
X1495800Y826400D01*
X1495800Y829250D02*
X1498800Y829250D01*
X1498800Y832100D02*
X1495800Y832100D01*
X1495800Y834950D02*
X1498800Y834950D01*
X1498800Y837800D02*
X1495800Y837800D01*
X1495800Y840650D02*
X1498800Y840650D01*
X1483100Y843100D02*
X1483100Y826400D01*
X1483100Y843100D02*
X1486100Y843100D01*
X1486100Y826400D01*
X1483100Y826400D01*
X1483100Y829250D02*
X1486100Y829250D01*
X1486100Y832100D02*
X1483100Y832100D01*
X1483100Y834950D02*
X1486100Y834950D01*
X1486100Y837800D02*
X1483100Y837800D01*
X1483100Y840650D02*
X1486100Y840650D01*
X1470400Y843100D02*
X1470400Y826400D01*
X1470400Y843100D02*
X1473400Y843100D01*
X1473400Y826400D01*
X1470400Y826400D01*
X1470400Y829250D02*
X1473400Y829250D01*
X1473400Y832100D02*
X1470400Y832100D01*
X1470400Y834950D02*
X1473400Y834950D01*
X1473400Y837800D02*
X1470400Y837800D01*
X1470400Y840650D02*
X1473400Y840650D01*
X1470400Y793600D02*
X1470400Y776900D01*
X1470400Y793600D02*
X1473400Y793600D01*
X1473400Y776900D01*
X1470400Y776900D01*
X1470400Y779750D02*
X1473400Y779750D01*
X1473400Y782600D02*
X1470400Y782600D01*
X1470400Y785450D02*
X1473400Y785450D01*
X1473400Y788300D02*
X1470400Y788300D01*
X1470400Y791150D02*
X1473400Y791150D01*
X1483100Y793600D02*
X1483100Y776900D01*
X1483100Y793600D02*
X1486100Y793600D01*
X1486100Y776900D01*
X1483100Y776900D01*
X1483100Y779750D02*
X1486100Y779750D01*
X1486100Y782600D02*
X1483100Y782600D01*
X1483100Y785450D02*
X1486100Y785450D01*
X1486100Y788300D02*
X1483100Y788300D01*
X1483100Y791150D02*
X1486100Y791150D01*
X1495800Y793600D02*
X1495800Y776900D01*
X1495800Y793600D02*
X1498800Y793600D01*
X1498800Y776900D01*
X1495800Y776900D01*
X1495800Y779750D02*
X1498800Y779750D01*
X1498800Y782600D02*
X1495800Y782600D01*
X1495800Y785450D02*
X1498800Y785450D01*
X1498800Y788300D02*
X1495800Y788300D01*
X1495800Y791150D02*
X1498800Y791150D01*
X1508500Y793600D02*
X1508500Y776900D01*
X1508500Y793600D02*
X1511500Y793600D01*
X1511500Y776900D01*
X1508500Y776900D01*
X1508500Y779750D02*
X1511500Y779750D01*
X1511500Y782600D02*
X1508500Y782600D01*
X1508500Y785450D02*
X1511500Y785450D01*
X1511500Y788300D02*
X1508500Y788300D01*
X1508500Y791150D02*
X1511500Y791150D01*
X1521200Y793600D02*
X1521200Y776900D01*
X1521200Y793600D02*
X1524200Y793600D01*
X1524200Y776900D01*
X1521200Y776900D01*
X1521200Y779750D02*
X1524200Y779750D01*
X1524200Y782600D02*
X1521200Y782600D01*
X1521200Y785450D02*
X1524200Y785450D01*
X1524200Y788300D02*
X1521200Y788300D01*
X1521200Y791150D02*
X1524200Y791150D01*
X1533900Y793600D02*
X1533900Y776900D01*
X1533900Y793600D02*
X1536900Y793600D01*
X1536900Y776900D01*
X1533900Y776900D01*
X1533900Y779750D02*
X1536900Y779750D01*
X1536900Y782600D02*
X1533900Y782600D01*
X1533900Y785450D02*
X1536900Y785450D01*
X1536900Y788300D02*
X1533900Y788300D01*
X1533900Y791150D02*
X1536900Y791150D01*
X1546600Y793600D02*
X1546600Y776900D01*
X1546600Y793600D02*
X1549600Y793600D01*
X1549600Y776900D01*
X1546600Y776900D01*
X1546600Y779750D02*
X1549600Y779750D01*
X1549600Y782600D02*
X1546600Y782600D01*
X1546600Y785450D02*
X1549600Y785450D01*
X1549600Y788300D02*
X1546600Y788300D01*
X1546600Y791150D02*
X1549600Y791150D01*
D10*
X1583500Y910000D03*
X1566500Y910000D03*
D11*
X1575000Y828500D03*
X1575000Y811500D03*
X1583500Y880000D03*
X1566500Y880000D03*
D10*
X1566500Y940000D03*
X1583500Y940000D03*
D11*
X1450000Y861500D03*
X1450000Y878500D03*
X1450000Y843500D03*
X1450000Y826500D03*
X1425000Y933500D03*
X1425000Y916500D03*
X1400000Y908500D03*
X1400000Y891500D03*
D10*
X1425000Y898500D03*
X1425000Y881500D03*
X1420000Y841500D03*
X1420000Y858500D03*
D14*
X1390000Y859750D03*
X1390000Y850250D03*
D10*
X1375000Y908500D03*
X1375000Y891500D03*
D11*
X1516500Y755000D03*
X1533500Y755000D03*
X1493500Y755000D03*
X1476500Y755000D03*
D15*
X1301800Y865600D02*
X1301800Y883800D01*
X1306300Y883800D01*
X1306300Y865600D01*
X1301800Y865600D01*
X1301800Y867025D02*
X1306300Y867025D01*
X1306300Y868450D02*
X1301800Y868450D01*
X1301800Y869875D02*
X1306300Y869875D01*
X1306300Y871300D02*
X1301800Y871300D01*
X1301800Y872725D02*
X1306300Y872725D01*
X1306300Y874150D02*
X1301800Y874150D01*
X1301800Y875575D02*
X1306300Y875575D01*
X1306300Y877000D02*
X1301800Y877000D01*
X1301800Y878425D02*
X1306300Y878425D01*
X1306300Y879850D02*
X1301800Y879850D01*
X1301800Y881275D02*
X1306300Y881275D01*
X1306300Y882700D02*
X1301800Y882700D01*
X1289100Y883800D02*
X1289100Y865600D01*
X1289100Y883800D02*
X1293600Y883800D01*
X1293600Y865600D01*
X1289100Y865600D01*
X1289100Y867025D02*
X1293600Y867025D01*
X1293600Y868450D02*
X1289100Y868450D01*
X1289100Y869875D02*
X1293600Y869875D01*
X1293600Y871300D02*
X1289100Y871300D01*
X1289100Y872725D02*
X1293600Y872725D01*
X1293600Y874150D02*
X1289100Y874150D01*
X1289100Y875575D02*
X1293600Y875575D01*
X1293600Y877000D02*
X1289100Y877000D01*
X1289100Y878425D02*
X1293600Y878425D01*
X1293600Y879850D02*
X1289100Y879850D01*
X1289100Y881275D02*
X1293600Y881275D01*
X1293600Y882700D02*
X1289100Y882700D01*
X1276400Y883800D02*
X1276400Y865600D01*
X1276400Y883800D02*
X1280900Y883800D01*
X1280900Y865600D01*
X1276400Y865600D01*
X1276400Y867025D02*
X1280900Y867025D01*
X1280900Y868450D02*
X1276400Y868450D01*
X1276400Y869875D02*
X1280900Y869875D01*
X1280900Y871300D02*
X1276400Y871300D01*
X1276400Y872725D02*
X1280900Y872725D01*
X1280900Y874150D02*
X1276400Y874150D01*
X1276400Y875575D02*
X1280900Y875575D01*
X1280900Y877000D02*
X1276400Y877000D01*
X1276400Y878425D02*
X1280900Y878425D01*
X1280900Y879850D02*
X1276400Y879850D01*
X1276400Y881275D02*
X1280900Y881275D01*
X1280900Y882700D02*
X1276400Y882700D01*
X1263700Y883800D02*
X1263700Y865600D01*
X1263700Y883800D02*
X1268200Y883800D01*
X1268200Y865600D01*
X1263700Y865600D01*
X1263700Y867025D02*
X1268200Y867025D01*
X1268200Y868450D02*
X1263700Y868450D01*
X1263700Y869875D02*
X1268200Y869875D01*
X1268200Y871300D02*
X1263700Y871300D01*
X1263700Y872725D02*
X1268200Y872725D01*
X1268200Y874150D02*
X1263700Y874150D01*
X1263700Y875575D02*
X1268200Y875575D01*
X1268200Y877000D02*
X1263700Y877000D01*
X1263700Y878425D02*
X1268200Y878425D01*
X1268200Y879850D02*
X1263700Y879850D01*
X1263700Y881275D02*
X1268200Y881275D01*
X1268200Y882700D02*
X1263700Y882700D01*
X1263700Y834400D02*
X1263700Y816200D01*
X1263700Y834400D02*
X1268200Y834400D01*
X1268200Y816200D01*
X1263700Y816200D01*
X1263700Y817625D02*
X1268200Y817625D01*
X1268200Y819050D02*
X1263700Y819050D01*
X1263700Y820475D02*
X1268200Y820475D01*
X1268200Y821900D02*
X1263700Y821900D01*
X1263700Y823325D02*
X1268200Y823325D01*
X1268200Y824750D02*
X1263700Y824750D01*
X1263700Y826175D02*
X1268200Y826175D01*
X1268200Y827600D02*
X1263700Y827600D01*
X1263700Y829025D02*
X1268200Y829025D01*
X1268200Y830450D02*
X1263700Y830450D01*
X1263700Y831875D02*
X1268200Y831875D01*
X1268200Y833300D02*
X1263700Y833300D01*
X1276400Y834400D02*
X1276400Y816200D01*
X1276400Y834400D02*
X1280900Y834400D01*
X1280900Y816200D01*
X1276400Y816200D01*
X1276400Y817625D02*
X1280900Y817625D01*
X1280900Y819050D02*
X1276400Y819050D01*
X1276400Y820475D02*
X1280900Y820475D01*
X1280900Y821900D02*
X1276400Y821900D01*
X1276400Y823325D02*
X1280900Y823325D01*
X1280900Y824750D02*
X1276400Y824750D01*
X1276400Y826175D02*
X1280900Y826175D01*
X1280900Y827600D02*
X1276400Y827600D01*
X1276400Y829025D02*
X1280900Y829025D01*
X1280900Y830450D02*
X1276400Y830450D01*
X1276400Y831875D02*
X1280900Y831875D01*
X1280900Y833300D02*
X1276400Y833300D01*
X1289100Y834400D02*
X1289100Y816200D01*
X1289100Y834400D02*
X1293600Y834400D01*
X1293600Y816200D01*
X1289100Y816200D01*
X1289100Y817625D02*
X1293600Y817625D01*
X1293600Y819050D02*
X1289100Y819050D01*
X1289100Y820475D02*
X1293600Y820475D01*
X1293600Y821900D02*
X1289100Y821900D01*
X1289100Y823325D02*
X1293600Y823325D01*
X1293600Y824750D02*
X1289100Y824750D01*
X1289100Y826175D02*
X1293600Y826175D01*
X1293600Y827600D02*
X1289100Y827600D01*
X1289100Y829025D02*
X1293600Y829025D01*
X1293600Y830450D02*
X1289100Y830450D01*
X1289100Y831875D02*
X1293600Y831875D01*
X1293600Y833300D02*
X1289100Y833300D01*
X1301800Y834400D02*
X1301800Y816200D01*
X1301800Y834400D02*
X1306300Y834400D01*
X1306300Y816200D01*
X1301800Y816200D01*
X1301800Y817625D02*
X1306300Y817625D01*
X1306300Y819050D02*
X1301800Y819050D01*
X1301800Y820475D02*
X1306300Y820475D01*
X1306300Y821900D02*
X1301800Y821900D01*
X1301800Y823325D02*
X1306300Y823325D01*
X1306300Y824750D02*
X1301800Y824750D01*
X1301800Y826175D02*
X1306300Y826175D01*
X1306300Y827600D02*
X1301800Y827600D01*
X1301800Y829025D02*
X1306300Y829025D01*
X1306300Y830450D02*
X1301800Y830450D01*
X1301800Y831875D02*
X1306300Y831875D01*
X1306300Y833300D02*
X1301800Y833300D01*
D16*
X1355000Y786000D03*
X1380000Y814000D03*
X1405000Y786000D03*
D11*
X1319500Y937000D03*
X1336500Y937000D03*
X1288500Y900000D03*
X1271500Y900000D03*
D10*
X1303500Y795000D03*
X1286500Y795000D03*
D11*
X1307000Y901500D03*
X1307000Y918500D03*
D10*
X1353500Y860000D03*
X1336500Y860000D03*
X335000Y413500D03*
X335000Y396500D03*
X1710000Y693500D03*
X1710000Y676500D03*
X1685000Y676500D03*
X1685000Y693500D03*
D11*
X1688500Y550000D03*
X1671500Y550000D03*
D12*
X1691000Y618650D03*
X1639000Y618650D03*
X1691000Y605950D03*
X1691000Y631350D03*
X1691000Y644050D03*
X1639000Y605950D03*
X1639000Y631350D03*
X1639000Y644050D03*
D11*
X1656500Y580000D03*
X1673500Y580000D03*
X1635000Y676500D03*
X1635000Y693500D03*
X1660000Y693500D03*
X1660000Y676500D03*
D10*
X1653500Y550000D03*
X1636500Y550000D03*
D11*
X1610000Y583500D03*
X1610000Y566500D03*
X1610000Y618500D03*
X1610000Y601500D03*
X1610000Y688500D03*
X1610000Y671500D03*
D10*
X1610000Y653500D03*
X1610000Y636500D03*
D13*
X1546600Y608100D02*
X1546600Y591400D01*
X1546600Y608100D02*
X1549600Y608100D01*
X1549600Y591400D01*
X1546600Y591400D01*
X1546600Y594250D02*
X1549600Y594250D01*
X1549600Y597100D02*
X1546600Y597100D01*
X1546600Y599950D02*
X1549600Y599950D01*
X1549600Y602800D02*
X1546600Y602800D01*
X1546600Y605650D02*
X1549600Y605650D01*
X1533900Y608100D02*
X1533900Y591400D01*
X1533900Y608100D02*
X1536900Y608100D01*
X1536900Y591400D01*
X1533900Y591400D01*
X1533900Y594250D02*
X1536900Y594250D01*
X1536900Y597100D02*
X1533900Y597100D01*
X1533900Y599950D02*
X1536900Y599950D01*
X1536900Y602800D02*
X1533900Y602800D01*
X1533900Y605650D02*
X1536900Y605650D01*
X1521200Y608100D02*
X1521200Y591400D01*
X1521200Y608100D02*
X1524200Y608100D01*
X1524200Y591400D01*
X1521200Y591400D01*
X1521200Y594250D02*
X1524200Y594250D01*
X1524200Y597100D02*
X1521200Y597100D01*
X1521200Y599950D02*
X1524200Y599950D01*
X1524200Y602800D02*
X1521200Y602800D01*
X1521200Y605650D02*
X1524200Y605650D01*
X1508500Y608100D02*
X1508500Y591400D01*
X1508500Y608100D02*
X1511500Y608100D01*
X1511500Y591400D01*
X1508500Y591400D01*
X1508500Y594250D02*
X1511500Y594250D01*
X1511500Y597100D02*
X1508500Y597100D01*
X1508500Y599950D02*
X1511500Y599950D01*
X1511500Y602800D02*
X1508500Y602800D01*
X1508500Y605650D02*
X1511500Y605650D01*
X1495800Y608100D02*
X1495800Y591400D01*
X1495800Y608100D02*
X1498800Y608100D01*
X1498800Y591400D01*
X1495800Y591400D01*
X1495800Y594250D02*
X1498800Y594250D01*
X1498800Y597100D02*
X1495800Y597100D01*
X1495800Y599950D02*
X1498800Y599950D01*
X1498800Y602800D02*
X1495800Y602800D01*
X1495800Y605650D02*
X1498800Y605650D01*
X1483100Y608100D02*
X1483100Y591400D01*
X1483100Y608100D02*
X1486100Y608100D01*
X1486100Y591400D01*
X1483100Y591400D01*
X1483100Y594250D02*
X1486100Y594250D01*
X1486100Y597100D02*
X1483100Y597100D01*
X1483100Y599950D02*
X1486100Y599950D01*
X1486100Y602800D02*
X1483100Y602800D01*
X1483100Y605650D02*
X1486100Y605650D01*
X1470400Y608100D02*
X1470400Y591400D01*
X1470400Y608100D02*
X1473400Y608100D01*
X1473400Y591400D01*
X1470400Y591400D01*
X1470400Y594250D02*
X1473400Y594250D01*
X1473400Y597100D02*
X1470400Y597100D01*
X1470400Y599950D02*
X1473400Y599950D01*
X1473400Y602800D02*
X1470400Y602800D01*
X1470400Y605650D02*
X1473400Y605650D01*
X1470400Y558600D02*
X1470400Y541900D01*
X1470400Y558600D02*
X1473400Y558600D01*
X1473400Y541900D01*
X1470400Y541900D01*
X1470400Y544750D02*
X1473400Y544750D01*
X1473400Y547600D02*
X1470400Y547600D01*
X1470400Y550450D02*
X1473400Y550450D01*
X1473400Y553300D02*
X1470400Y553300D01*
X1470400Y556150D02*
X1473400Y556150D01*
X1483100Y558600D02*
X1483100Y541900D01*
X1483100Y558600D02*
X1486100Y558600D01*
X1486100Y541900D01*
X1483100Y541900D01*
X1483100Y544750D02*
X1486100Y544750D01*
X1486100Y547600D02*
X1483100Y547600D01*
X1483100Y550450D02*
X1486100Y550450D01*
X1486100Y553300D02*
X1483100Y553300D01*
X1483100Y556150D02*
X1486100Y556150D01*
X1495800Y558600D02*
X1495800Y541900D01*
X1495800Y558600D02*
X1498800Y558600D01*
X1498800Y541900D01*
X1495800Y541900D01*
X1495800Y544750D02*
X1498800Y544750D01*
X1498800Y547600D02*
X1495800Y547600D01*
X1495800Y550450D02*
X1498800Y550450D01*
X1498800Y553300D02*
X1495800Y553300D01*
X1495800Y556150D02*
X1498800Y556150D01*
X1508500Y558600D02*
X1508500Y541900D01*
X1508500Y558600D02*
X1511500Y558600D01*
X1511500Y541900D01*
X1508500Y541900D01*
X1508500Y544750D02*
X1511500Y544750D01*
X1511500Y547600D02*
X1508500Y547600D01*
X1508500Y550450D02*
X1511500Y550450D01*
X1511500Y553300D02*
X1508500Y553300D01*
X1508500Y556150D02*
X1511500Y556150D01*
X1521200Y558600D02*
X1521200Y541900D01*
X1521200Y558600D02*
X1524200Y558600D01*
X1524200Y541900D01*
X1521200Y541900D01*
X1521200Y544750D02*
X1524200Y544750D01*
X1524200Y547600D02*
X1521200Y547600D01*
X1521200Y550450D02*
X1524200Y550450D01*
X1524200Y553300D02*
X1521200Y553300D01*
X1521200Y556150D02*
X1524200Y556150D01*
X1533900Y558600D02*
X1533900Y541900D01*
X1533900Y558600D02*
X1536900Y558600D01*
X1536900Y541900D01*
X1533900Y541900D01*
X1533900Y544750D02*
X1536900Y544750D01*
X1536900Y547600D02*
X1533900Y547600D01*
X1533900Y550450D02*
X1536900Y550450D01*
X1536900Y553300D02*
X1533900Y553300D01*
X1533900Y556150D02*
X1536900Y556150D01*
X1546600Y558600D02*
X1546600Y541900D01*
X1546600Y558600D02*
X1549600Y558600D01*
X1549600Y541900D01*
X1546600Y541900D01*
X1546600Y544750D02*
X1549600Y544750D01*
X1549600Y547600D02*
X1546600Y547600D01*
X1546600Y550450D02*
X1549600Y550450D01*
X1549600Y553300D02*
X1546600Y553300D01*
X1546600Y556150D02*
X1549600Y556150D01*
D10*
X1583500Y680000D03*
X1566500Y680000D03*
D11*
X1575000Y593500D03*
X1575000Y576500D03*
X1583500Y655000D03*
X1566500Y655000D03*
D10*
X1566500Y705000D03*
X1583500Y705000D03*
D11*
X1450000Y626500D03*
X1450000Y643500D03*
X1450000Y608500D03*
X1450000Y591500D03*
X1425000Y693500D03*
X1425000Y676500D03*
X1390000Y668500D03*
X1390000Y651500D03*
D10*
X1425000Y658500D03*
X1425000Y641500D03*
X1420000Y601500D03*
X1420000Y618500D03*
D14*
X1390000Y614750D03*
X1390000Y605250D03*
D10*
X1365000Y668500D03*
X1365000Y651500D03*
D11*
X1511500Y520000D03*
X1528500Y520000D03*
X1493500Y520000D03*
X1476500Y520000D03*
D15*
X1301800Y620600D02*
X1301800Y638800D01*
X1306300Y638800D01*
X1306300Y620600D01*
X1301800Y620600D01*
X1301800Y622025D02*
X1306300Y622025D01*
X1306300Y623450D02*
X1301800Y623450D01*
X1301800Y624875D02*
X1306300Y624875D01*
X1306300Y626300D02*
X1301800Y626300D01*
X1301800Y627725D02*
X1306300Y627725D01*
X1306300Y629150D02*
X1301800Y629150D01*
X1301800Y630575D02*
X1306300Y630575D01*
X1306300Y632000D02*
X1301800Y632000D01*
X1301800Y633425D02*
X1306300Y633425D01*
X1306300Y634850D02*
X1301800Y634850D01*
X1301800Y636275D02*
X1306300Y636275D01*
X1306300Y637700D02*
X1301800Y637700D01*
X1289100Y638800D02*
X1289100Y620600D01*
X1289100Y638800D02*
X1293600Y638800D01*
X1293600Y620600D01*
X1289100Y620600D01*
X1289100Y622025D02*
X1293600Y622025D01*
X1293600Y623450D02*
X1289100Y623450D01*
X1289100Y624875D02*
X1293600Y624875D01*
X1293600Y626300D02*
X1289100Y626300D01*
X1289100Y627725D02*
X1293600Y627725D01*
X1293600Y629150D02*
X1289100Y629150D01*
X1289100Y630575D02*
X1293600Y630575D01*
X1293600Y632000D02*
X1289100Y632000D01*
X1289100Y633425D02*
X1293600Y633425D01*
X1293600Y634850D02*
X1289100Y634850D01*
X1289100Y636275D02*
X1293600Y636275D01*
X1293600Y637700D02*
X1289100Y637700D01*
X1276400Y638800D02*
X1276400Y620600D01*
X1276400Y638800D02*
X1280900Y638800D01*
X1280900Y620600D01*
X1276400Y620600D01*
X1276400Y622025D02*
X1280900Y622025D01*
X1280900Y623450D02*
X1276400Y623450D01*
X1276400Y624875D02*
X1280900Y624875D01*
X1280900Y626300D02*
X1276400Y626300D01*
X1276400Y627725D02*
X1280900Y627725D01*
X1280900Y629150D02*
X1276400Y629150D01*
X1276400Y630575D02*
X1280900Y630575D01*
X1280900Y632000D02*
X1276400Y632000D01*
X1276400Y633425D02*
X1280900Y633425D01*
X1280900Y634850D02*
X1276400Y634850D01*
X1276400Y636275D02*
X1280900Y636275D01*
X1280900Y637700D02*
X1276400Y637700D01*
X1263700Y638800D02*
X1263700Y620600D01*
X1263700Y638800D02*
X1268200Y638800D01*
X1268200Y620600D01*
X1263700Y620600D01*
X1263700Y622025D02*
X1268200Y622025D01*
X1268200Y623450D02*
X1263700Y623450D01*
X1263700Y624875D02*
X1268200Y624875D01*
X1268200Y626300D02*
X1263700Y626300D01*
X1263700Y627725D02*
X1268200Y627725D01*
X1268200Y629150D02*
X1263700Y629150D01*
X1263700Y630575D02*
X1268200Y630575D01*
X1268200Y632000D02*
X1263700Y632000D01*
X1263700Y633425D02*
X1268200Y633425D01*
X1268200Y634850D02*
X1263700Y634850D01*
X1263700Y636275D02*
X1268200Y636275D01*
X1268200Y637700D02*
X1263700Y637700D01*
X1263700Y589400D02*
X1263700Y571200D01*
X1263700Y589400D02*
X1268200Y589400D01*
X1268200Y571200D01*
X1263700Y571200D01*
X1263700Y572625D02*
X1268200Y572625D01*
X1268200Y574050D02*
X1263700Y574050D01*
X1263700Y575475D02*
X1268200Y575475D01*
X1268200Y576900D02*
X1263700Y576900D01*
X1263700Y578325D02*
X1268200Y578325D01*
X1268200Y579750D02*
X1263700Y579750D01*
X1263700Y581175D02*
X1268200Y581175D01*
X1268200Y582600D02*
X1263700Y582600D01*
X1263700Y584025D02*
X1268200Y584025D01*
X1268200Y585450D02*
X1263700Y585450D01*
X1263700Y586875D02*
X1268200Y586875D01*
X1268200Y588300D02*
X1263700Y588300D01*
X1276400Y589400D02*
X1276400Y571200D01*
X1276400Y589400D02*
X1280900Y589400D01*
X1280900Y571200D01*
X1276400Y571200D01*
X1276400Y572625D02*
X1280900Y572625D01*
X1280900Y574050D02*
X1276400Y574050D01*
X1276400Y575475D02*
X1280900Y575475D01*
X1280900Y576900D02*
X1276400Y576900D01*
X1276400Y578325D02*
X1280900Y578325D01*
X1280900Y579750D02*
X1276400Y579750D01*
X1276400Y581175D02*
X1280900Y581175D01*
X1280900Y582600D02*
X1276400Y582600D01*
X1276400Y584025D02*
X1280900Y584025D01*
X1280900Y585450D02*
X1276400Y585450D01*
X1276400Y586875D02*
X1280900Y586875D01*
X1280900Y588300D02*
X1276400Y588300D01*
X1289100Y589400D02*
X1289100Y571200D01*
X1289100Y589400D02*
X1293600Y589400D01*
X1293600Y571200D01*
X1289100Y571200D01*
X1289100Y572625D02*
X1293600Y572625D01*
X1293600Y574050D02*
X1289100Y574050D01*
X1289100Y575475D02*
X1293600Y575475D01*
X1293600Y576900D02*
X1289100Y576900D01*
X1289100Y578325D02*
X1293600Y578325D01*
X1293600Y579750D02*
X1289100Y579750D01*
X1289100Y581175D02*
X1293600Y581175D01*
X1293600Y582600D02*
X1289100Y582600D01*
X1289100Y584025D02*
X1293600Y584025D01*
X1293600Y585450D02*
X1289100Y585450D01*
X1289100Y586875D02*
X1293600Y586875D01*
X1293600Y588300D02*
X1289100Y588300D01*
X1301800Y589400D02*
X1301800Y571200D01*
X1301800Y589400D02*
X1306300Y589400D01*
X1306300Y571200D01*
X1301800Y571200D01*
X1301800Y572625D02*
X1306300Y572625D01*
X1306300Y574050D02*
X1301800Y574050D01*
X1301800Y575475D02*
X1306300Y575475D01*
X1306300Y576900D02*
X1301800Y576900D01*
X1301800Y578325D02*
X1306300Y578325D01*
X1306300Y579750D02*
X1301800Y579750D01*
X1301800Y581175D02*
X1306300Y581175D01*
X1306300Y582600D02*
X1301800Y582600D01*
X1301800Y584025D02*
X1306300Y584025D01*
X1306300Y585450D02*
X1301800Y585450D01*
X1301800Y586875D02*
X1306300Y586875D01*
X1306300Y588300D02*
X1301800Y588300D01*
D16*
X1355000Y546000D03*
X1380000Y574000D03*
X1405000Y546000D03*
D11*
X1338500Y655000D03*
X1321500Y655000D03*
X1278500Y655000D03*
X1261500Y655000D03*
D10*
X1298500Y550000D03*
X1281500Y550000D03*
D11*
X1300000Y656500D03*
X1300000Y673500D03*
D10*
X1353500Y610000D03*
X1336500Y610000D03*
X1710000Y458500D03*
X1710000Y441500D03*
X1685000Y441500D03*
X1685000Y458500D03*
D11*
X1693500Y320000D03*
X1676500Y320000D03*
D12*
X1691000Y383650D03*
X1639000Y383650D03*
X1691000Y370950D03*
X1691000Y396350D03*
X1691000Y409050D03*
X1639000Y370950D03*
X1639000Y396350D03*
X1639000Y409050D03*
D11*
X1656500Y350000D03*
X1673500Y350000D03*
X1635000Y441500D03*
X1635000Y458500D03*
X1660000Y458500D03*
X1660000Y441500D03*
D10*
X1658500Y320000D03*
X1641500Y320000D03*
D11*
X1445000Y391500D03*
X1445000Y408500D03*
X1610000Y383500D03*
X1610000Y366500D03*
X1610000Y453500D03*
X1610000Y436500D03*
D10*
X1610000Y401500D03*
X1610000Y418500D03*
D13*
X1541600Y373100D02*
X1541600Y356400D01*
X1541600Y373100D02*
X1544600Y373100D01*
X1544600Y356400D01*
X1541600Y356400D01*
X1541600Y359250D02*
X1544600Y359250D01*
X1544600Y362100D02*
X1541600Y362100D01*
X1541600Y364950D02*
X1544600Y364950D01*
X1544600Y367800D02*
X1541600Y367800D01*
X1541600Y370650D02*
X1544600Y370650D01*
X1528900Y373100D02*
X1528900Y356400D01*
X1528900Y373100D02*
X1531900Y373100D01*
X1531900Y356400D01*
X1528900Y356400D01*
X1528900Y359250D02*
X1531900Y359250D01*
X1531900Y362100D02*
X1528900Y362100D01*
X1528900Y364950D02*
X1531900Y364950D01*
X1531900Y367800D02*
X1528900Y367800D01*
X1528900Y370650D02*
X1531900Y370650D01*
X1516200Y373100D02*
X1516200Y356400D01*
X1516200Y373100D02*
X1519200Y373100D01*
X1519200Y356400D01*
X1516200Y356400D01*
X1516200Y359250D02*
X1519200Y359250D01*
X1519200Y362100D02*
X1516200Y362100D01*
X1516200Y364950D02*
X1519200Y364950D01*
X1519200Y367800D02*
X1516200Y367800D01*
X1516200Y370650D02*
X1519200Y370650D01*
X1503500Y373100D02*
X1503500Y356400D01*
X1503500Y373100D02*
X1506500Y373100D01*
X1506500Y356400D01*
X1503500Y356400D01*
X1503500Y359250D02*
X1506500Y359250D01*
X1506500Y362100D02*
X1503500Y362100D01*
X1503500Y364950D02*
X1506500Y364950D01*
X1506500Y367800D02*
X1503500Y367800D01*
X1503500Y370650D02*
X1506500Y370650D01*
X1490800Y373100D02*
X1490800Y356400D01*
X1490800Y373100D02*
X1493800Y373100D01*
X1493800Y356400D01*
X1490800Y356400D01*
X1490800Y359250D02*
X1493800Y359250D01*
X1493800Y362100D02*
X1490800Y362100D01*
X1490800Y364950D02*
X1493800Y364950D01*
X1493800Y367800D02*
X1490800Y367800D01*
X1490800Y370650D02*
X1493800Y370650D01*
X1478100Y373100D02*
X1478100Y356400D01*
X1478100Y373100D02*
X1481100Y373100D01*
X1481100Y356400D01*
X1478100Y356400D01*
X1478100Y359250D02*
X1481100Y359250D01*
X1481100Y362100D02*
X1478100Y362100D01*
X1478100Y364950D02*
X1481100Y364950D01*
X1481100Y367800D02*
X1478100Y367800D01*
X1478100Y370650D02*
X1481100Y370650D01*
X1465400Y373100D02*
X1465400Y356400D01*
X1465400Y373100D02*
X1468400Y373100D01*
X1468400Y356400D01*
X1465400Y356400D01*
X1465400Y359250D02*
X1468400Y359250D01*
X1468400Y362100D02*
X1465400Y362100D01*
X1465400Y364950D02*
X1468400Y364950D01*
X1468400Y367800D02*
X1465400Y367800D01*
X1465400Y370650D02*
X1468400Y370650D01*
X1465400Y323600D02*
X1465400Y306900D01*
X1465400Y323600D02*
X1468400Y323600D01*
X1468400Y306900D01*
X1465400Y306900D01*
X1465400Y309750D02*
X1468400Y309750D01*
X1468400Y312600D02*
X1465400Y312600D01*
X1465400Y315450D02*
X1468400Y315450D01*
X1468400Y318300D02*
X1465400Y318300D01*
X1465400Y321150D02*
X1468400Y321150D01*
X1478100Y323600D02*
X1478100Y306900D01*
X1478100Y323600D02*
X1481100Y323600D01*
X1481100Y306900D01*
X1478100Y306900D01*
X1478100Y309750D02*
X1481100Y309750D01*
X1481100Y312600D02*
X1478100Y312600D01*
X1478100Y315450D02*
X1481100Y315450D01*
X1481100Y318300D02*
X1478100Y318300D01*
X1478100Y321150D02*
X1481100Y321150D01*
X1490800Y323600D02*
X1490800Y306900D01*
X1490800Y323600D02*
X1493800Y323600D01*
X1493800Y306900D01*
X1490800Y306900D01*
X1490800Y309750D02*
X1493800Y309750D01*
X1493800Y312600D02*
X1490800Y312600D01*
X1490800Y315450D02*
X1493800Y315450D01*
X1493800Y318300D02*
X1490800Y318300D01*
X1490800Y321150D02*
X1493800Y321150D01*
X1503500Y323600D02*
X1503500Y306900D01*
X1503500Y323600D02*
X1506500Y323600D01*
X1506500Y306900D01*
X1503500Y306900D01*
X1503500Y309750D02*
X1506500Y309750D01*
X1506500Y312600D02*
X1503500Y312600D01*
X1503500Y315450D02*
X1506500Y315450D01*
X1506500Y318300D02*
X1503500Y318300D01*
X1503500Y321150D02*
X1506500Y321150D01*
X1516200Y323600D02*
X1516200Y306900D01*
X1516200Y323600D02*
X1519200Y323600D01*
X1519200Y306900D01*
X1516200Y306900D01*
X1516200Y309750D02*
X1519200Y309750D01*
X1519200Y312600D02*
X1516200Y312600D01*
X1516200Y315450D02*
X1519200Y315450D01*
X1519200Y318300D02*
X1516200Y318300D01*
X1516200Y321150D02*
X1519200Y321150D01*
X1528900Y323600D02*
X1528900Y306900D01*
X1528900Y323600D02*
X1531900Y323600D01*
X1531900Y306900D01*
X1528900Y306900D01*
X1528900Y309750D02*
X1531900Y309750D01*
X1531900Y312600D02*
X1528900Y312600D01*
X1528900Y315450D02*
X1531900Y315450D01*
X1531900Y318300D02*
X1528900Y318300D01*
X1528900Y321150D02*
X1531900Y321150D01*
X1541600Y323600D02*
X1541600Y306900D01*
X1541600Y323600D02*
X1544600Y323600D01*
X1544600Y306900D01*
X1541600Y306900D01*
X1541600Y309750D02*
X1544600Y309750D01*
X1544600Y312600D02*
X1541600Y312600D01*
X1541600Y315450D02*
X1544600Y315450D01*
X1544600Y318300D02*
X1541600Y318300D01*
X1541600Y321150D02*
X1544600Y321150D01*
D10*
X1583500Y445000D03*
X1566500Y445000D03*
D11*
X1575000Y363500D03*
X1575000Y346500D03*
X1583500Y420000D03*
X1566500Y420000D03*
D10*
X1566500Y470000D03*
X1583500Y470000D03*
D11*
X1610000Y348500D03*
X1610000Y331500D03*
X1445000Y373500D03*
X1445000Y356500D03*
X1420000Y458500D03*
X1420000Y441500D03*
X1399000Y425500D03*
X1399000Y408500D03*
D10*
X1420000Y423500D03*
X1420000Y406500D03*
X1415000Y366500D03*
X1415000Y383500D03*
D14*
X1385000Y379750D03*
X1385000Y370250D03*
D10*
X1375000Y425500D03*
X1375000Y408500D03*
D11*
X1516500Y285000D03*
X1533500Y285000D03*
X1498500Y285000D03*
X1481500Y285000D03*
D15*
X1296800Y385600D02*
X1296800Y403800D01*
X1301300Y403800D01*
X1301300Y385600D01*
X1296800Y385600D01*
X1296800Y387025D02*
X1301300Y387025D01*
X1301300Y388450D02*
X1296800Y388450D01*
X1296800Y389875D02*
X1301300Y389875D01*
X1301300Y391300D02*
X1296800Y391300D01*
X1296800Y392725D02*
X1301300Y392725D01*
X1301300Y394150D02*
X1296800Y394150D01*
X1296800Y395575D02*
X1301300Y395575D01*
X1301300Y397000D02*
X1296800Y397000D01*
X1296800Y398425D02*
X1301300Y398425D01*
X1301300Y399850D02*
X1296800Y399850D01*
X1296800Y401275D02*
X1301300Y401275D01*
X1301300Y402700D02*
X1296800Y402700D01*
X1284100Y403800D02*
X1284100Y385600D01*
X1284100Y403800D02*
X1288600Y403800D01*
X1288600Y385600D01*
X1284100Y385600D01*
X1284100Y387025D02*
X1288600Y387025D01*
X1288600Y388450D02*
X1284100Y388450D01*
X1284100Y389875D02*
X1288600Y389875D01*
X1288600Y391300D02*
X1284100Y391300D01*
X1284100Y392725D02*
X1288600Y392725D01*
X1288600Y394150D02*
X1284100Y394150D01*
X1284100Y395575D02*
X1288600Y395575D01*
X1288600Y397000D02*
X1284100Y397000D01*
X1284100Y398425D02*
X1288600Y398425D01*
X1288600Y399850D02*
X1284100Y399850D01*
X1284100Y401275D02*
X1288600Y401275D01*
X1288600Y402700D02*
X1284100Y402700D01*
X1271400Y403800D02*
X1271400Y385600D01*
X1271400Y403800D02*
X1275900Y403800D01*
X1275900Y385600D01*
X1271400Y385600D01*
X1271400Y387025D02*
X1275900Y387025D01*
X1275900Y388450D02*
X1271400Y388450D01*
X1271400Y389875D02*
X1275900Y389875D01*
X1275900Y391300D02*
X1271400Y391300D01*
X1271400Y392725D02*
X1275900Y392725D01*
X1275900Y394150D02*
X1271400Y394150D01*
X1271400Y395575D02*
X1275900Y395575D01*
X1275900Y397000D02*
X1271400Y397000D01*
X1271400Y398425D02*
X1275900Y398425D01*
X1275900Y399850D02*
X1271400Y399850D01*
X1271400Y401275D02*
X1275900Y401275D01*
X1275900Y402700D02*
X1271400Y402700D01*
X1258700Y403800D02*
X1258700Y385600D01*
X1258700Y403800D02*
X1263200Y403800D01*
X1263200Y385600D01*
X1258700Y385600D01*
X1258700Y387025D02*
X1263200Y387025D01*
X1263200Y388450D02*
X1258700Y388450D01*
X1258700Y389875D02*
X1263200Y389875D01*
X1263200Y391300D02*
X1258700Y391300D01*
X1258700Y392725D02*
X1263200Y392725D01*
X1263200Y394150D02*
X1258700Y394150D01*
X1258700Y395575D02*
X1263200Y395575D01*
X1263200Y397000D02*
X1258700Y397000D01*
X1258700Y398425D02*
X1263200Y398425D01*
X1263200Y399850D02*
X1258700Y399850D01*
X1258700Y401275D02*
X1263200Y401275D01*
X1263200Y402700D02*
X1258700Y402700D01*
X1258700Y354400D02*
X1258700Y336200D01*
X1258700Y354400D02*
X1263200Y354400D01*
X1263200Y336200D01*
X1258700Y336200D01*
X1258700Y337625D02*
X1263200Y337625D01*
X1263200Y339050D02*
X1258700Y339050D01*
X1258700Y340475D02*
X1263200Y340475D01*
X1263200Y341900D02*
X1258700Y341900D01*
X1258700Y343325D02*
X1263200Y343325D01*
X1263200Y344750D02*
X1258700Y344750D01*
X1258700Y346175D02*
X1263200Y346175D01*
X1263200Y347600D02*
X1258700Y347600D01*
X1258700Y349025D02*
X1263200Y349025D01*
X1263200Y350450D02*
X1258700Y350450D01*
X1258700Y351875D02*
X1263200Y351875D01*
X1263200Y353300D02*
X1258700Y353300D01*
X1271400Y354400D02*
X1271400Y336200D01*
X1271400Y354400D02*
X1275900Y354400D01*
X1275900Y336200D01*
X1271400Y336200D01*
X1271400Y337625D02*
X1275900Y337625D01*
X1275900Y339050D02*
X1271400Y339050D01*
X1271400Y340475D02*
X1275900Y340475D01*
X1275900Y341900D02*
X1271400Y341900D01*
X1271400Y343325D02*
X1275900Y343325D01*
X1275900Y344750D02*
X1271400Y344750D01*
X1271400Y346175D02*
X1275900Y346175D01*
X1275900Y347600D02*
X1271400Y347600D01*
X1271400Y349025D02*
X1275900Y349025D01*
X1275900Y350450D02*
X1271400Y350450D01*
X1271400Y351875D02*
X1275900Y351875D01*
X1275900Y353300D02*
X1271400Y353300D01*
X1284100Y354400D02*
X1284100Y336200D01*
X1284100Y354400D02*
X1288600Y354400D01*
X1288600Y336200D01*
X1284100Y336200D01*
X1284100Y337625D02*
X1288600Y337625D01*
X1288600Y339050D02*
X1284100Y339050D01*
X1284100Y340475D02*
X1288600Y340475D01*
X1288600Y341900D02*
X1284100Y341900D01*
X1284100Y343325D02*
X1288600Y343325D01*
X1288600Y344750D02*
X1284100Y344750D01*
X1284100Y346175D02*
X1288600Y346175D01*
X1288600Y347600D02*
X1284100Y347600D01*
X1284100Y349025D02*
X1288600Y349025D01*
X1288600Y350450D02*
X1284100Y350450D01*
X1284100Y351875D02*
X1288600Y351875D01*
X1288600Y353300D02*
X1284100Y353300D01*
X1296800Y354400D02*
X1296800Y336200D01*
X1296800Y354400D02*
X1301300Y354400D01*
X1301300Y336200D01*
X1296800Y336200D01*
X1296800Y337625D02*
X1301300Y337625D01*
X1301300Y339050D02*
X1296800Y339050D01*
X1296800Y340475D02*
X1301300Y340475D01*
X1301300Y341900D02*
X1296800Y341900D01*
X1296800Y343325D02*
X1301300Y343325D01*
X1301300Y344750D02*
X1296800Y344750D01*
X1296800Y346175D02*
X1301300Y346175D01*
X1301300Y347600D02*
X1296800Y347600D01*
X1296800Y349025D02*
X1301300Y349025D01*
X1301300Y350450D02*
X1296800Y350450D01*
X1296800Y351875D02*
X1301300Y351875D01*
X1301300Y353300D02*
X1296800Y353300D01*
D16*
X1350000Y316000D03*
X1375000Y344000D03*
X1400000Y316000D03*
D11*
X1333500Y389000D03*
X1316500Y389000D03*
X1273500Y420000D03*
X1256500Y420000D03*
D10*
X1293500Y315000D03*
X1276500Y315000D03*
D11*
X1295000Y421500D03*
X1295000Y438500D03*
D10*
X1351500Y368000D03*
X1334500Y368000D03*
X1710000Y208500D03*
X1710000Y191500D03*
X1685000Y191500D03*
X1685000Y208500D03*
D11*
X1698500Y70000D03*
X1681500Y70000D03*
D12*
X1691000Y138650D03*
X1639000Y138650D03*
X1691000Y125950D03*
X1691000Y151350D03*
X1691000Y164050D03*
X1639000Y125950D03*
X1639000Y151350D03*
X1639000Y164050D03*
D11*
X1656500Y100000D03*
X1673500Y100000D03*
X1635000Y191500D03*
X1635000Y208500D03*
X1660000Y208500D03*
X1660000Y191500D03*
D10*
X1658500Y70000D03*
X1641500Y70000D03*
D11*
X1610000Y98500D03*
X1610000Y81500D03*
X1610000Y133500D03*
X1610000Y116500D03*
X1610000Y203500D03*
X1610000Y186500D03*
D10*
X1610000Y151500D03*
X1610000Y168500D03*
D13*
X1541600Y123100D02*
X1541600Y106400D01*
X1541600Y123100D02*
X1544600Y123100D01*
X1544600Y106400D01*
X1541600Y106400D01*
X1541600Y109250D02*
X1544600Y109250D01*
X1544600Y112100D02*
X1541600Y112100D01*
X1541600Y114950D02*
X1544600Y114950D01*
X1544600Y117800D02*
X1541600Y117800D01*
X1541600Y120650D02*
X1544600Y120650D01*
X1528900Y123100D02*
X1528900Y106400D01*
X1528900Y123100D02*
X1531900Y123100D01*
X1531900Y106400D01*
X1528900Y106400D01*
X1528900Y109250D02*
X1531900Y109250D01*
X1531900Y112100D02*
X1528900Y112100D01*
X1528900Y114950D02*
X1531900Y114950D01*
X1531900Y117800D02*
X1528900Y117800D01*
X1528900Y120650D02*
X1531900Y120650D01*
X1516200Y123100D02*
X1516200Y106400D01*
X1516200Y123100D02*
X1519200Y123100D01*
X1519200Y106400D01*
X1516200Y106400D01*
X1516200Y109250D02*
X1519200Y109250D01*
X1519200Y112100D02*
X1516200Y112100D01*
X1516200Y114950D02*
X1519200Y114950D01*
X1519200Y117800D02*
X1516200Y117800D01*
X1516200Y120650D02*
X1519200Y120650D01*
X1503500Y123100D02*
X1503500Y106400D01*
X1503500Y123100D02*
X1506500Y123100D01*
X1506500Y106400D01*
X1503500Y106400D01*
X1503500Y109250D02*
X1506500Y109250D01*
X1506500Y112100D02*
X1503500Y112100D01*
X1503500Y114950D02*
X1506500Y114950D01*
X1506500Y117800D02*
X1503500Y117800D01*
X1503500Y120650D02*
X1506500Y120650D01*
X1490800Y123100D02*
X1490800Y106400D01*
X1490800Y123100D02*
X1493800Y123100D01*
X1493800Y106400D01*
X1490800Y106400D01*
X1490800Y109250D02*
X1493800Y109250D01*
X1493800Y112100D02*
X1490800Y112100D01*
X1490800Y114950D02*
X1493800Y114950D01*
X1493800Y117800D02*
X1490800Y117800D01*
X1490800Y120650D02*
X1493800Y120650D01*
X1478100Y123100D02*
X1478100Y106400D01*
X1478100Y123100D02*
X1481100Y123100D01*
X1481100Y106400D01*
X1478100Y106400D01*
X1478100Y109250D02*
X1481100Y109250D01*
X1481100Y112100D02*
X1478100Y112100D01*
X1478100Y114950D02*
X1481100Y114950D01*
X1481100Y117800D02*
X1478100Y117800D01*
X1478100Y120650D02*
X1481100Y120650D01*
X1465400Y123100D02*
X1465400Y106400D01*
X1465400Y123100D02*
X1468400Y123100D01*
X1468400Y106400D01*
X1465400Y106400D01*
X1465400Y109250D02*
X1468400Y109250D01*
X1468400Y112100D02*
X1465400Y112100D01*
X1465400Y114950D02*
X1468400Y114950D01*
X1468400Y117800D02*
X1465400Y117800D01*
X1465400Y120650D02*
X1468400Y120650D01*
X1465400Y73600D02*
X1465400Y56900D01*
X1465400Y73600D02*
X1468400Y73600D01*
X1468400Y56900D01*
X1465400Y56900D01*
X1465400Y59750D02*
X1468400Y59750D01*
X1468400Y62600D02*
X1465400Y62600D01*
X1465400Y65450D02*
X1468400Y65450D01*
X1468400Y68300D02*
X1465400Y68300D01*
X1465400Y71150D02*
X1468400Y71150D01*
X1478100Y73600D02*
X1478100Y56900D01*
X1478100Y73600D02*
X1481100Y73600D01*
X1481100Y56900D01*
X1478100Y56900D01*
X1478100Y59750D02*
X1481100Y59750D01*
X1481100Y62600D02*
X1478100Y62600D01*
X1478100Y65450D02*
X1481100Y65450D01*
X1481100Y68300D02*
X1478100Y68300D01*
X1478100Y71150D02*
X1481100Y71150D01*
X1490800Y73600D02*
X1490800Y56900D01*
X1490800Y73600D02*
X1493800Y73600D01*
X1493800Y56900D01*
X1490800Y56900D01*
X1490800Y59750D02*
X1493800Y59750D01*
X1493800Y62600D02*
X1490800Y62600D01*
X1490800Y65450D02*
X1493800Y65450D01*
X1493800Y68300D02*
X1490800Y68300D01*
X1490800Y71150D02*
X1493800Y71150D01*
X1503500Y73600D02*
X1503500Y56900D01*
X1503500Y73600D02*
X1506500Y73600D01*
X1506500Y56900D01*
X1503500Y56900D01*
X1503500Y59750D02*
X1506500Y59750D01*
X1506500Y62600D02*
X1503500Y62600D01*
X1503500Y65450D02*
X1506500Y65450D01*
X1506500Y68300D02*
X1503500Y68300D01*
X1503500Y71150D02*
X1506500Y71150D01*
X1516200Y73600D02*
X1516200Y56900D01*
X1516200Y73600D02*
X1519200Y73600D01*
X1519200Y56900D01*
X1516200Y56900D01*
X1516200Y59750D02*
X1519200Y59750D01*
X1519200Y62600D02*
X1516200Y62600D01*
X1516200Y65450D02*
X1519200Y65450D01*
X1519200Y68300D02*
X1516200Y68300D01*
X1516200Y71150D02*
X1519200Y71150D01*
X1528900Y73600D02*
X1528900Y56900D01*
X1528900Y73600D02*
X1531900Y73600D01*
X1531900Y56900D01*
X1528900Y56900D01*
X1528900Y59750D02*
X1531900Y59750D01*
X1531900Y62600D02*
X1528900Y62600D01*
X1528900Y65450D02*
X1531900Y65450D01*
X1531900Y68300D02*
X1528900Y68300D01*
X1528900Y71150D02*
X1531900Y71150D01*
X1541600Y73600D02*
X1541600Y56900D01*
X1541600Y73600D02*
X1544600Y73600D01*
X1544600Y56900D01*
X1541600Y56900D01*
X1541600Y59750D02*
X1544600Y59750D01*
X1544600Y62600D02*
X1541600Y62600D01*
X1541600Y65450D02*
X1544600Y65450D01*
X1544600Y68300D02*
X1541600Y68300D01*
X1541600Y71150D02*
X1544600Y71150D01*
D10*
X1583500Y195000D03*
X1566500Y195000D03*
D11*
X1575000Y103500D03*
X1575000Y86500D03*
X1583500Y170000D03*
X1566500Y170000D03*
D10*
X1566500Y220000D03*
X1583500Y220000D03*
D11*
X1445000Y141500D03*
X1445000Y158500D03*
X1445000Y123500D03*
X1445000Y106500D03*
X1420000Y208500D03*
X1420000Y191500D03*
X1385000Y173500D03*
X1385000Y156500D03*
D10*
X1420000Y173500D03*
X1420000Y156500D03*
X1415000Y116500D03*
X1415000Y133500D03*
D14*
X1385000Y129750D03*
X1385000Y120250D03*
D10*
X1360000Y173500D03*
X1360000Y156500D03*
D11*
X1506500Y35000D03*
X1523500Y35000D03*
X1488500Y35000D03*
X1471500Y35000D03*
D15*
X1301800Y125600D02*
X1301800Y143800D01*
X1306300Y143800D01*
X1306300Y125600D01*
X1301800Y125600D01*
X1301800Y127025D02*
X1306300Y127025D01*
X1306300Y128450D02*
X1301800Y128450D01*
X1301800Y129875D02*
X1306300Y129875D01*
X1306300Y131300D02*
X1301800Y131300D01*
X1301800Y132725D02*
X1306300Y132725D01*
X1306300Y134150D02*
X1301800Y134150D01*
X1301800Y135575D02*
X1306300Y135575D01*
X1306300Y137000D02*
X1301800Y137000D01*
X1301800Y138425D02*
X1306300Y138425D01*
X1306300Y139850D02*
X1301800Y139850D01*
X1301800Y141275D02*
X1306300Y141275D01*
X1306300Y142700D02*
X1301800Y142700D01*
X1289100Y143800D02*
X1289100Y125600D01*
X1289100Y143800D02*
X1293600Y143800D01*
X1293600Y125600D01*
X1289100Y125600D01*
X1289100Y127025D02*
X1293600Y127025D01*
X1293600Y128450D02*
X1289100Y128450D01*
X1289100Y129875D02*
X1293600Y129875D01*
X1293600Y131300D02*
X1289100Y131300D01*
X1289100Y132725D02*
X1293600Y132725D01*
X1293600Y134150D02*
X1289100Y134150D01*
X1289100Y135575D02*
X1293600Y135575D01*
X1293600Y137000D02*
X1289100Y137000D01*
X1289100Y138425D02*
X1293600Y138425D01*
X1293600Y139850D02*
X1289100Y139850D01*
X1289100Y141275D02*
X1293600Y141275D01*
X1293600Y142700D02*
X1289100Y142700D01*
X1276400Y143800D02*
X1276400Y125600D01*
X1276400Y143800D02*
X1280900Y143800D01*
X1280900Y125600D01*
X1276400Y125600D01*
X1276400Y127025D02*
X1280900Y127025D01*
X1280900Y128450D02*
X1276400Y128450D01*
X1276400Y129875D02*
X1280900Y129875D01*
X1280900Y131300D02*
X1276400Y131300D01*
X1276400Y132725D02*
X1280900Y132725D01*
X1280900Y134150D02*
X1276400Y134150D01*
X1276400Y135575D02*
X1280900Y135575D01*
X1280900Y137000D02*
X1276400Y137000D01*
X1276400Y138425D02*
X1280900Y138425D01*
X1280900Y139850D02*
X1276400Y139850D01*
X1276400Y141275D02*
X1280900Y141275D01*
X1280900Y142700D02*
X1276400Y142700D01*
X1263700Y143800D02*
X1263700Y125600D01*
X1263700Y143800D02*
X1268200Y143800D01*
X1268200Y125600D01*
X1263700Y125600D01*
X1263700Y127025D02*
X1268200Y127025D01*
X1268200Y128450D02*
X1263700Y128450D01*
X1263700Y129875D02*
X1268200Y129875D01*
X1268200Y131300D02*
X1263700Y131300D01*
X1263700Y132725D02*
X1268200Y132725D01*
X1268200Y134150D02*
X1263700Y134150D01*
X1263700Y135575D02*
X1268200Y135575D01*
X1268200Y137000D02*
X1263700Y137000D01*
X1263700Y138425D02*
X1268200Y138425D01*
X1268200Y139850D02*
X1263700Y139850D01*
X1263700Y141275D02*
X1268200Y141275D01*
X1268200Y142700D02*
X1263700Y142700D01*
X1263700Y94400D02*
X1263700Y76200D01*
X1263700Y94400D02*
X1268200Y94400D01*
X1268200Y76200D01*
X1263700Y76200D01*
X1263700Y77625D02*
X1268200Y77625D01*
X1268200Y79050D02*
X1263700Y79050D01*
X1263700Y80475D02*
X1268200Y80475D01*
X1268200Y81900D02*
X1263700Y81900D01*
X1263700Y83325D02*
X1268200Y83325D01*
X1268200Y84750D02*
X1263700Y84750D01*
X1263700Y86175D02*
X1268200Y86175D01*
X1268200Y87600D02*
X1263700Y87600D01*
X1263700Y89025D02*
X1268200Y89025D01*
X1268200Y90450D02*
X1263700Y90450D01*
X1263700Y91875D02*
X1268200Y91875D01*
X1268200Y93300D02*
X1263700Y93300D01*
X1276400Y94400D02*
X1276400Y76200D01*
X1276400Y94400D02*
X1280900Y94400D01*
X1280900Y76200D01*
X1276400Y76200D01*
X1276400Y77625D02*
X1280900Y77625D01*
X1280900Y79050D02*
X1276400Y79050D01*
X1276400Y80475D02*
X1280900Y80475D01*
X1280900Y81900D02*
X1276400Y81900D01*
X1276400Y83325D02*
X1280900Y83325D01*
X1280900Y84750D02*
X1276400Y84750D01*
X1276400Y86175D02*
X1280900Y86175D01*
X1280900Y87600D02*
X1276400Y87600D01*
X1276400Y89025D02*
X1280900Y89025D01*
X1280900Y90450D02*
X1276400Y90450D01*
X1276400Y91875D02*
X1280900Y91875D01*
X1280900Y93300D02*
X1276400Y93300D01*
X1289100Y94400D02*
X1289100Y76200D01*
X1289100Y94400D02*
X1293600Y94400D01*
X1293600Y76200D01*
X1289100Y76200D01*
X1289100Y77625D02*
X1293600Y77625D01*
X1293600Y79050D02*
X1289100Y79050D01*
X1289100Y80475D02*
X1293600Y80475D01*
X1293600Y81900D02*
X1289100Y81900D01*
X1289100Y83325D02*
X1293600Y83325D01*
X1293600Y84750D02*
X1289100Y84750D01*
X1289100Y86175D02*
X1293600Y86175D01*
X1293600Y87600D02*
X1289100Y87600D01*
X1289100Y89025D02*
X1293600Y89025D01*
X1293600Y90450D02*
X1289100Y90450D01*
X1289100Y91875D02*
X1293600Y91875D01*
X1293600Y93300D02*
X1289100Y93300D01*
X1301800Y94400D02*
X1301800Y76200D01*
X1301800Y94400D02*
X1306300Y94400D01*
X1306300Y76200D01*
X1301800Y76200D01*
X1301800Y77625D02*
X1306300Y77625D01*
X1306300Y79050D02*
X1301800Y79050D01*
X1301800Y80475D02*
X1306300Y80475D01*
X1306300Y81900D02*
X1301800Y81900D01*
X1301800Y83325D02*
X1306300Y83325D01*
X1306300Y84750D02*
X1301800Y84750D01*
X1301800Y86175D02*
X1306300Y86175D01*
X1306300Y87600D02*
X1301800Y87600D01*
X1301800Y89025D02*
X1306300Y89025D01*
X1306300Y90450D02*
X1301800Y90450D01*
X1301800Y91875D02*
X1306300Y91875D01*
X1306300Y93300D02*
X1301800Y93300D01*
D16*
X1350000Y66000D03*
X1375000Y94000D03*
X1400000Y66000D03*
D11*
X1338500Y160000D03*
X1321500Y160000D03*
X1278500Y160000D03*
X1261500Y160000D03*
D10*
X1303500Y55000D03*
X1286500Y55000D03*
D11*
X1300000Y161500D03*
X1300000Y178500D03*
D10*
X1348500Y125000D03*
X1331500Y125000D03*
D17*
X602000Y256750D03*
X610000Y256750D03*
X618000Y256750D03*
X626000Y256750D03*
X626000Y269250D03*
X618000Y269250D03*
X610000Y269250D03*
X602000Y269250D03*
D18*
X585000Y255250D03*
X593000Y255250D03*
X593000Y270750D03*
X585000Y270750D03*
D19*
X575550Y174750D03*
X588250Y174750D03*
X600950Y174750D03*
X613650Y174750D03*
X626350Y174750D03*
X639050Y174750D03*
X651750Y174750D03*
X664450Y174750D03*
X664450Y229250D03*
X651750Y229250D03*
X639050Y229250D03*
X626350Y229250D03*
X613650Y229250D03*
X600950Y229250D03*
X588250Y229250D03*
X575550Y229250D03*
D20*
X554000Y304500D03*
X554000Y289500D03*
X574000Y304500D03*
X574000Y289500D03*
X594000Y304500D03*
X594000Y289500D03*
X614000Y304500D03*
X614000Y289500D03*
X634000Y304500D03*
X634000Y289500D03*
X654000Y304500D03*
X654000Y289500D03*
D17*
X723000Y256750D03*
X731000Y256750D03*
X739000Y256750D03*
X747000Y256750D03*
X747000Y269250D03*
X739000Y269250D03*
X731000Y269250D03*
X723000Y269250D03*
D18*
X706000Y255250D03*
X714000Y255250D03*
X714000Y270750D03*
X706000Y270750D03*
D20*
X682000Y304500D03*
X682000Y289500D03*
X702000Y304500D03*
X702000Y289500D03*
X722000Y304500D03*
X722000Y289500D03*
X742000Y304500D03*
X742000Y289500D03*
X762000Y304500D03*
X762000Y289500D03*
X782000Y304500D03*
X782000Y289500D03*
D17*
X862000Y258750D03*
X870000Y258750D03*
X878000Y258750D03*
X886000Y258750D03*
X886000Y271250D03*
X878000Y271250D03*
X870000Y271250D03*
X862000Y271250D03*
D18*
X845000Y257250D03*
X853000Y257250D03*
X853000Y272750D03*
X845000Y272750D03*
D20*
X814000Y304500D03*
X814000Y289500D03*
X834000Y304500D03*
X834000Y289500D03*
X854000Y304500D03*
X854000Y289500D03*
X874000Y304500D03*
X874000Y289500D03*
X894000Y304500D03*
X894000Y289500D03*
X914000Y304500D03*
X914000Y289500D03*
D17*
X993000Y258750D03*
X1001000Y258750D03*
X1009000Y258750D03*
X1017000Y258750D03*
X1017000Y271250D03*
X1009000Y271250D03*
X1001000Y271250D03*
X993000Y271250D03*
D18*
X976000Y257250D03*
X984000Y257250D03*
X984000Y272750D03*
X976000Y272750D03*
D20*
X944000Y304500D03*
X944000Y289500D03*
X964000Y304500D03*
X964000Y289500D03*
X984000Y304500D03*
X984000Y289500D03*
X1004000Y304500D03*
X1004000Y289500D03*
X1024000Y304500D03*
X1024000Y289500D03*
X1044000Y304500D03*
X1044000Y289500D03*
D17*
X1117000Y258750D03*
X1125000Y258750D03*
X1133000Y258750D03*
X1141000Y258750D03*
X1141000Y271250D03*
X1133000Y271250D03*
X1125000Y271250D03*
X1117000Y271250D03*
D18*
X1100000Y257250D03*
X1108000Y257250D03*
X1108000Y272750D03*
X1100000Y272750D03*
D20*
X1074000Y304500D03*
X1074000Y289500D03*
X1094000Y304500D03*
X1094000Y289500D03*
X1114000Y304500D03*
X1114000Y289500D03*
X1134000Y304500D03*
X1134000Y289500D03*
X1154000Y304500D03*
X1154000Y289500D03*
X1174000Y304500D03*
X1174000Y289500D03*
D17*
X614000Y72250D03*
X606000Y72250D03*
X598000Y72250D03*
X590000Y72250D03*
X590000Y59750D03*
X598000Y59750D03*
X606000Y59750D03*
X614000Y59750D03*
D18*
X631000Y73750D03*
X623000Y73750D03*
X623000Y58250D03*
X631000Y58250D03*
D20*
X655000Y18500D03*
X655000Y33500D03*
X635000Y18500D03*
X635000Y33500D03*
X615000Y18500D03*
X615000Y33500D03*
X595000Y18500D03*
X595000Y33500D03*
X575000Y18500D03*
X575000Y33500D03*
X555000Y18500D03*
X555000Y33500D03*
D19*
X744550Y174750D03*
X757250Y174750D03*
X769950Y174750D03*
X782650Y174750D03*
X795350Y174750D03*
X808050Y174750D03*
X820750Y174750D03*
X833450Y174750D03*
X833450Y229250D03*
X820750Y229250D03*
X808050Y229250D03*
X795350Y229250D03*
X782650Y229250D03*
X769950Y229250D03*
X757250Y229250D03*
X744550Y229250D03*
X913550Y174750D03*
X926250Y174750D03*
X938950Y174750D03*
X951650Y174750D03*
X964350Y174750D03*
X977050Y174750D03*
X989750Y174750D03*
X1002450Y174750D03*
X1002450Y229250D03*
X989750Y229250D03*
X977050Y229250D03*
X964350Y229250D03*
X951650Y229250D03*
X938950Y229250D03*
X926250Y229250D03*
X913550Y229250D03*
X1056550Y174750D03*
X1069250Y174750D03*
X1081950Y174750D03*
X1094650Y174750D03*
X1107350Y174750D03*
X1120050Y174750D03*
X1132750Y174750D03*
X1145450Y174750D03*
X1145450Y229250D03*
X1132750Y229250D03*
X1120050Y229250D03*
X1107350Y229250D03*
X1094650Y229250D03*
X1081950Y229250D03*
X1069250Y229250D03*
X1056550Y229250D03*
X575550Y95750D03*
X588250Y95750D03*
X600950Y95750D03*
X613650Y95750D03*
X626350Y95750D03*
X639050Y95750D03*
X651750Y95750D03*
X664450Y95750D03*
X664450Y150250D03*
X651750Y150250D03*
X639050Y150250D03*
X626350Y150250D03*
X613650Y150250D03*
X600950Y150250D03*
X588250Y150250D03*
X575550Y150250D03*
D11*
X724000Y210500D03*
X724000Y193500D03*
X893000Y210500D03*
X893000Y193500D03*
X1036000Y210500D03*
X1036000Y193500D03*
X555000Y131500D03*
X555000Y114500D03*
X554000Y217500D03*
X554000Y200500D03*
D17*
X722000Y71250D03*
X714000Y71250D03*
X706000Y71250D03*
X698000Y71250D03*
X698000Y58750D03*
X706000Y58750D03*
X714000Y58750D03*
X722000Y58750D03*
D18*
X739000Y72750D03*
X731000Y72750D03*
X731000Y57250D03*
X739000Y57250D03*
D20*
X785000Y18500D03*
X785000Y33500D03*
X765000Y18500D03*
X765000Y33500D03*
X745000Y18500D03*
X745000Y33500D03*
X725000Y18500D03*
X725000Y33500D03*
X705000Y18500D03*
X705000Y33500D03*
X685000Y18500D03*
X685000Y33500D03*
D17*
X858000Y70250D03*
X850000Y70250D03*
X842000Y70250D03*
X834000Y70250D03*
X834000Y57750D03*
X842000Y57750D03*
X850000Y57750D03*
X858000Y57750D03*
D18*
X875000Y71750D03*
X867000Y71750D03*
X867000Y56250D03*
X875000Y56250D03*
D20*
X915000Y18500D03*
X915000Y33500D03*
X895000Y18500D03*
X895000Y33500D03*
X875000Y18500D03*
X875000Y33500D03*
X855000Y18500D03*
X855000Y33500D03*
X835000Y18500D03*
X835000Y33500D03*
X815000Y18500D03*
X815000Y33500D03*
D17*
X965000Y69250D03*
X957000Y69250D03*
X949000Y69250D03*
X941000Y69250D03*
X941000Y56750D03*
X949000Y56750D03*
X957000Y56750D03*
X965000Y56750D03*
D18*
X982000Y70750D03*
X974000Y70750D03*
X974000Y55250D03*
X982000Y55250D03*
D20*
X1045000Y18500D03*
X1045000Y33500D03*
X1025000Y18500D03*
X1025000Y33500D03*
X1005000Y18500D03*
X1005000Y33500D03*
X985000Y18500D03*
X985000Y33500D03*
X965000Y18500D03*
X965000Y33500D03*
X945000Y18500D03*
X945000Y33500D03*
D17*
X1126000Y68250D03*
X1118000Y68250D03*
X1110000Y68250D03*
X1102000Y68250D03*
X1102000Y55750D03*
X1110000Y55750D03*
X1118000Y55750D03*
X1126000Y55750D03*
D18*
X1143000Y69750D03*
X1135000Y69750D03*
X1135000Y54250D03*
X1143000Y54250D03*
D20*
X1175000Y18500D03*
X1175000Y33500D03*
X1155000Y18500D03*
X1155000Y33500D03*
X1135000Y18500D03*
X1135000Y33500D03*
X1115000Y18500D03*
X1115000Y33500D03*
X1095000Y18500D03*
X1095000Y33500D03*
X1075000Y18500D03*
X1075000Y33500D03*
D19*
X744550Y95750D03*
X757250Y95750D03*
X769950Y95750D03*
X782650Y95750D03*
X795350Y95750D03*
X808050Y95750D03*
X820750Y95750D03*
X833450Y95750D03*
X833450Y150250D03*
X820750Y150250D03*
X808050Y150250D03*
X795350Y150250D03*
X782650Y150250D03*
X769950Y150250D03*
X757250Y150250D03*
X744550Y150250D03*
D11*
X724000Y131500D03*
X724000Y114500D03*
D19*
X914550Y95750D03*
X927250Y95750D03*
X939950Y95750D03*
X952650Y95750D03*
X965350Y95750D03*
X978050Y95750D03*
X990750Y95750D03*
X1003450Y95750D03*
X1003450Y150250D03*
X990750Y150250D03*
X978050Y150250D03*
X965350Y150250D03*
X952650Y150250D03*
X939950Y150250D03*
X927250Y150250D03*
X914550Y150250D03*
D11*
X894000Y131500D03*
X894000Y114500D03*
D17*
X1176000Y102750D03*
X1184000Y102750D03*
X1192000Y102750D03*
X1200000Y102750D03*
X1200000Y115250D03*
X1192000Y115250D03*
X1184000Y115250D03*
X1176000Y115250D03*
D20*
X1195500Y213000D03*
X1180500Y213000D03*
X1195500Y193000D03*
X1180500Y193000D03*
X1195500Y173000D03*
X1180500Y173000D03*
X1195500Y153000D03*
X1180500Y153000D03*
D19*
X1056550Y95750D03*
X1069250Y95750D03*
X1081950Y95750D03*
X1094650Y95750D03*
X1107350Y95750D03*
X1120050Y95750D03*
X1132750Y95750D03*
X1145450Y95750D03*
X1145450Y150250D03*
X1132750Y150250D03*
X1120050Y150250D03*
X1107350Y150250D03*
X1094650Y150250D03*
X1081950Y150250D03*
X1069250Y150250D03*
X1056550Y150250D03*
D11*
X1036000Y131500D03*
X1036000Y114500D03*
D21*
X1194500Y537500D03*
X1185000Y537500D03*
X1175500Y537500D03*
X1175500Y508500D03*
X1185000Y508500D03*
X1194500Y508500D03*
D22*
X1185000Y523000D03*
D10*
X1193500Y558000D03*
X1176500Y558000D03*
X1176500Y488000D03*
X1193500Y488000D03*
X1155000Y506500D03*
X1155000Y489500D03*
D20*
X1155000Y540500D03*
X1155000Y525500D03*
D10*
X1216500Y553000D03*
X1233500Y553000D03*
X1216500Y533000D03*
X1233500Y533000D03*
X1216500Y513000D03*
X1233500Y513000D03*
X1216500Y493000D03*
X1233500Y493000D03*
D23*
X1220500Y712750D03*
X1220500Y633250D03*
X1175500Y712750D03*
X1175500Y633250D03*
X1220500Y830750D03*
X1220500Y751250D03*
X1175500Y830750D03*
X1175500Y751250D03*
D10*
X1147000Y711500D03*
X1147000Y694500D03*
X1147000Y752500D03*
X1147000Y769500D03*
D17*
X824000Y933750D03*
X832000Y933750D03*
X840000Y933750D03*
X848000Y933750D03*
X848000Y946250D03*
X840000Y946250D03*
X832000Y946250D03*
X824000Y946250D03*
D18*
X807000Y932250D03*
X815000Y932250D03*
X815000Y947750D03*
X807000Y947750D03*
D10*
X892500Y940000D03*
X909500Y940000D03*
D20*
X713000Y379500D03*
X713000Y394500D03*
X738000Y379500D03*
X738000Y394500D03*
X763000Y379500D03*
X763000Y394500D03*
X788000Y379500D03*
X788000Y394500D03*
X813000Y379500D03*
X813000Y394500D03*
X838000Y379500D03*
X838000Y394500D03*
X863000Y379500D03*
X863000Y394500D03*
X888000Y379500D03*
X888000Y394500D03*
X913000Y379500D03*
X913000Y394500D03*
X938000Y379500D03*
X938000Y394500D03*
D10*
X713000Y349500D03*
X713000Y366500D03*
X738000Y349500D03*
X738000Y366500D03*
X763000Y349500D03*
X763000Y366500D03*
X788000Y349500D03*
X788000Y366500D03*
X813000Y349500D03*
X813000Y366500D03*
X838000Y349500D03*
X838000Y366500D03*
X863000Y349500D03*
X863000Y366500D03*
X888000Y349500D03*
X888000Y366500D03*
X913000Y349500D03*
X913000Y366500D03*
X938000Y349500D03*
X938000Y366500D03*
D11*
X985500Y391000D03*
X968500Y391000D03*
D24*
X977500Y369000D03*
X958500Y369000D03*
X968000Y347000D03*
D10*
X999500Y373000D03*
X1016500Y373000D03*
X999500Y353000D03*
X1016500Y353000D03*
D25*
X1174000Y592000D03*
X1206000Y592000D03*
X1183000Y453000D03*
X1215000Y453000D03*
M02*
